<svg width="250" height="100" viewBox="0 0 250 100" fill="none" xmlns="http://www.w3.org/2000/svg">
<path d="M98.26 81.8553C96.22 83.3553 93.8301 84.3554 91.0901 84.8554C88.3501 85.3554 85.75 85.5747 83.29 85.5045V96.4784C83.36 97.3469 83.7301 97.803 84.3901 97.8293H85.8201V98.3118H70V97.8293H71.4302C71.8002 97.8293 72.07 97.6977 72.26 97.4433C72.44 97.1889 72.54 96.8293 72.54 96.3819V66.3989C72.54 65.9515 72.45 65.5918 72.26 65.3375C72.08 65.0831 71.8002 64.9515 71.4302 64.9515H70V64.469H85.05C87.7 64.469 90.26 64.855 92.74 65.6269C95.22 66.3989 97.2701 67.627 98.8901 69.3024C100.51 70.9779 101.32 73.0744 101.32 75.592C101.32 78.2675 100.3 80.3553 98.26 81.8553ZM90.8501 75.2499C90.8501 71.9955 90.33 69.4603 89.28 67.6621C88.23 65.855 86.9 64.9515 85.28 64.9515C84.51 64.9866 83.99 65.1006 83.74 65.3111C83.48 65.5216 83.33 65.855 83.3 66.3024V84.9168C88.33 84.6624 90.8501 81.4342 90.8501 75.2411V75.2499Z" fill="#4F4D3F"/>
<path d="M117.92 97.8381H119.3V98.3206H103.53V97.8381H104.91C105.65 97.8381 106.01 97.3556 106.01 96.3907V79.9957C106.01 79.3202 105.77 78.8377 105.29 78.5483C104.81 78.2588 104.22 78.1272 103.53 78.1623V77.7763C105.44 77.7763 107.66 77.4079 110.2 76.6622C112.74 75.9254 114.87 75.0833 116.59 74.1447L116.81 74.3903V96.4433C116.81 97.3469 117.18 97.8118 117.91 97.8469L117.92 97.8381ZM108.38 72.0394C107.42 71.1885 106.95 70.1621 106.95 68.9691C106.95 67.7761 107.43 66.7498 108.38 65.8989C109.34 65.048 110.49 64.6182 111.85 64.6182C113.21 64.6182 114.38 65.048 115.35 65.8989C116.32 66.7498 116.81 67.7761 116.81 68.9691C116.81 70.1621 116.32 71.1885 115.35 72.0394C114.38 72.8902 113.21 73.3201 111.85 73.3201C110.49 73.3201 109.33 72.8902 108.38 72.0394Z" fill="#4F4D3F"/>
<path d="M135.89 97.8382H137.27V98.3206H121.5V97.8382H122.88C123.62 97.8382 123.98 97.3557 123.98 96.3908V66.6972C123.98 65.4428 123.36 64.8112 122.11 64.8112L121.5 64.8638V64.4779C127.89 63.3199 132.25 62.1094 134.56 60.855L134.78 61.1006V96.4522C134.78 97.3557 135.15 97.8206 135.88 97.8557L135.89 97.8382Z" fill="#4F4D3F"/>
<path d="M165.88 98.3206H162.85C161.53 98.2855 160.52 98.0574 159.82 97.6188C159.12 97.1802 158.72 96.3381 158.61 95.0837C158.02 96.4083 156.9 97.4171 155.25 98.1101C153.6 98.8031 151.74 99.1452 149.68 99.1452C147.88 99.1452 146.17 98.8732 144.55 98.3206C142.93 97.7767 141.66 96.9785 140.72 95.9258C139.78 94.8732 139.39 93.61 139.53 92.1275C139.71 90.4871 140.37 89.1187 141.49 88.0397C142.61 86.9607 143.92 86.1274 145.4 85.5484C146.88 84.9694 148.79 84.3554 151.11 83.715C152.87 83.2326 154.22 82.8203 155.16 82.4782C156.1 82.1361 156.89 81.7062 157.53 81.1711C158.17 80.636 158.49 79.9869 158.49 79.2149C158.49 77.5044 158.2 76.2938 157.61 75.5658C157.02 74.8377 155.94 74.5131 154.36 74.5745C153.22 74.6096 152.28 74.978 151.55 75.6886C150.81 76.3991 150.45 77.2062 150.45 78.1097C150.45 78.7588 150.68 79.3378 151.14 79.8465C151.6 80.3641 152.29 80.7501 153.21 81.0045C152.66 81.7501 151.67 82.3729 150.26 82.8905C148.84 83.408 147.42 83.6624 145.99 83.6624C144.56 83.6624 143.35 83.3554 142.38 82.7414C141.41 82.1273 140.92 81.1975 140.92 79.9343C140.92 78.6711 141.58 77.636 142.9 76.7149C144.22 75.7938 145.91 75.0833 147.97 74.5833C150.03 74.0833 152.16 73.8376 154.37 73.8376C158.59 73.8376 162.16 74.6184 165.06 76.1798C167.96 77.7412 169.42 80.7676 169.42 85.2502V96.4171C169.42 97.3557 169.79 97.8206 170.52 97.8206H171.9V98.3031H165.89L165.88 98.3206ZM153.48 95.8995C154.03 96.0574 154.58 96.1451 155.13 96.1451C156.05 96.1451 156.84 95.8644 157.5 95.303C158.16 94.7416 158.51 93.8468 158.55 92.6187V80.9606C157.78 82.0922 156.49 83.5045 154.69 85.2151C153.7 86.2151 152.93 86.9958 152.4 87.5572C151.87 88.1186 151.44 88.7064 151.1 89.3204C150.62 90.1275 150.38 90.9783 150.38 91.8819C150.38 92.5573 150.53 93.1977 150.82 93.7942C151.11 94.3907 151.54 94.8819 152.09 95.2679C152.46 95.5223 152.92 95.7328 153.47 95.8995H153.48Z" fill="#4F4D3F"/>
<path d="M189.141 74.6797H186.051V96.4433C186.051 97.3469 186.401 97.8118 187.101 97.8469H188.531V98.3293L179.541 98.2767C178.111 98.2416 177.031 97.9609 176.321 97.4346C175.611 96.9083 175.25 95.8468 175.25 94.2678V76.5219C175.25 75.8113 175.021 75.3289 174.561 75.0745C174.101 74.8201 173.611 74.6885 173.101 74.6885H171.891V74.1534C175.051 74.1534 177.801 73.3551 180.131 71.7586C182.461 70.1621 184.33 67.741 185.73 64.4778L186.061 64.7234V74.1534H189.151V74.6885L189.141 74.6797Z" fill="#4F4D3F"/>
<path d="M218.11 92.3469C217.06 94.0048 215.45 95.4522 213.29 96.6715C211.12 97.8996 208.46 98.5137 205.3 98.5137C202.51 98.5137 199.97 98.0312 197.69 97.0663C195.41 96.1014 193.6 94.6803 192.26 92.8118C190.92 90.9434 190.25 88.7153 190.25 86.1363C190.25 83.7152 190.97 81.5835 192.43 79.7326C193.88 77.8817 195.83 76.4431 198.27 75.4255C200.71 74.408 203.37 73.8992 206.23 73.8992C207.77 73.8992 209.32 74.136 210.86 74.601C212.4 75.0659 213.76 75.8466 214.94 76.9431C216.12 78.0396 216.85 79.4432 217.15 81.1537L202.21 88.2591C203.13 89.803 204.29 90.9784 205.71 91.7679C207.12 92.5574 208.66 92.9522 210.31 92.9522C212.15 92.9522 213.89 92.4873 215.55 91.5486C217.2 90.61 218.51 89.3117 219.46 87.6275L219.63 87.9696C219.67 89.224 219.16 90.689 218.11 92.3469ZM201.82 87.5837L207.11 84.8731C207 82.838 206.58 80.7151 205.84 78.487C205.1 76.2589 204.11 75.1536 202.86 75.1536C202.71 75.1536 202.53 75.1887 202.31 75.2501C201.69 75.408 201.19 76.0308 200.82 77.1098C200.45 78.1887 200.27 79.4519 200.27 80.9081C200.27 83.0046 200.66 84.9696 201.43 86.8117C201.61 87.2328 201.74 87.4872 201.82 87.5837Z" fill="#4F4D3F"/>
<path d="M238.37 82.8466C240.69 84.0045 242.58 85.0133 244.05 85.8729C245.52 86.7238 246.79 87.7151 247.85 88.8467C248.91 89.9783 249.45 91.1713 249.45 92.4257C249.41 93.8117 248.72 95.0047 247.38 96.0047C246.04 97.0047 244.27 97.7591 242.09 98.2767C239.9 98.7942 237.52 99.0486 234.95 99.0486C231.24 99.0486 228.23 98.6714 225.91 97.917C223.59 97.1626 222.27 95.9872 221.94 94.4082C221.87 94.0222 221.83 93.7327 221.83 93.5398C221.83 92.3468 222.28 91.373 223.18 90.6186C224.08 89.8642 225.23 89.4783 226.63 89.4783C228.03 89.4783 229.17 89.759 229.94 90.3204C230.71 90.8818 231.1 91.5397 231.1 92.2766C231.1 93.0134 230.79 93.5661 230.16 94.0134C229.61 94.3994 229.33 94.838 229.33 95.3205C229.33 96.031 229.83 96.6714 230.82 97.2328C231.81 97.7942 233.1 98.0925 234.68 98.1275C235.93 98.1626 237.03 97.8644 237.99 97.2328C238.95 96.6012 239.42 95.8556 239.42 94.9871C239.42 94.1187 238.91 93.2766 237.88 92.4696C237.07 91.8292 236.13 91.2327 235.07 90.7064C234 90.1713 232.72 89.6011 231.21 88.987C229.19 88.1449 227.56 87.3905 226.33 86.7151C225.1 86.0396 224.06 85.1975 223.21 84.1975C222.36 83.1975 221.94 82.0044 221.94 80.6184C221.94 79.3289 222.57 78.1623 223.84 77.1096C225.11 76.0657 226.78 75.2324 228.86 74.6183C230.94 74.0043 233.11 73.6973 235.39 73.6973C237.67 73.6973 240.06 74.0043 242.56 74.6183C243.96 74.9078 244.91 75.0569 245.43 75.0569C246.02 75.0569 246.55 74.9429 247.03 74.7148L247.47 75.0043L245.65 79.1623L244.22 82.4957H243.67C243.45 80.3992 242.71 78.5745 241.46 77.0043C240.21 75.4429 238.41 74.6622 236.06 74.6622C234.92 74.6622 233.95 74.9517 233.14 75.5306C232.33 76.1096 231.93 76.8201 231.93 77.6622C231.93 78.6623 232.54 79.5658 233.75 80.3728C234.63 80.9518 236.18 81.7764 238.38 82.8378L238.37 82.8466Z" fill="#4F4D3F"/>
<path d="M24.568 26.887H9.496L6.76 34.855H0.952L12.904 0.966979H21.16L33.016 34.855H27.304L24.568 26.887ZM23.032 22.327L17.08 4.85498H16.984L11.032 22.327H23.032ZM63.4911 21.463C63.9711 22.615 64.2111 23.959 64.2111 25.495C64.2111 27.191 63.9551 28.567 63.4431 29.623C62.6751 31.383 61.3631 32.695 59.5071 33.559C57.6511 34.423 55.3631 34.855 52.6431 34.855H39.9711V0.966979H52.6431C55.0431 0.966979 57.0751 1.36698 58.7391 2.16698C60.4031 2.96698 61.5711 4.16698 62.2431 5.76698C62.7551 6.82298 63.0111 8.03898 63.0111 9.41498C63.0111 10.823 62.7711 12.055 62.2911 13.111C61.3951 15.095 59.7631 16.391 57.3951 16.999C58.9311 17.383 60.1951 17.943 61.1871 18.679C62.2111 19.415 62.9791 20.343 63.4911 21.463ZM45.4911 15.271H50.6751C52.2111 15.271 53.5071 15.047 54.5631 14.599C55.6191 14.151 56.3391 13.479 56.7231 12.583C57.0751 11.815 57.2511 10.983 57.2511 10.087C57.2511 9.22298 57.0751 8.43898 56.7231 7.73498C55.9551 6.03898 53.8751 5.19098 50.4831 5.19098H45.4911V15.271ZM57.8271 27.799C58.1471 26.999 58.3071 26.119 58.3071 25.159C58.3071 24.135 58.1311 23.271 57.7791 22.567C56.8831 20.583 54.5951 19.591 50.9151 19.591H45.4911V30.631H50.7231C54.5951 30.631 56.9631 29.687 57.8271 27.799ZM87.8541 35.671C84.8461 35.671 82.2381 35.159 80.0301 34.135C77.8541 33.079 76.1261 31.591 74.8461 29.671C73.7901 28.263 72.9901 26.551 72.4461 24.535C71.9341 22.487 71.6781 20.279 71.6781 17.911C71.6781 14.359 72.2541 11.239 73.4061 8.55098C74.6221 5.89498 76.4461 3.83098 78.8781 2.35898C81.3101 0.886978 84.3021 0.150978 87.8541 0.150978C91.4381 0.150978 94.4461 0.886978 96.8781 2.35898C99.3101 3.79898 101.118 5.84698 102.302 8.50298C103.486 11.159 104.078 14.295 104.078 17.911C104.078 21.559 103.47 24.695 102.254 27.319C101.07 29.975 99.2621 32.039 96.8301 33.511C94.3981 34.951 91.4061 35.671 87.8541 35.671ZM87.8541 30.583C90.1261 30.583 92.0141 30.119 93.5181 29.191C95.0541 28.263 96.1901 26.967 96.9261 25.303C97.4061 24.279 97.7421 23.175 97.9341 21.991C98.1581 20.775 98.2701 19.415 98.2701 17.911C98.2701 16.407 98.1581 15.063 97.9341 13.879C97.7421 12.663 97.4061 11.543 96.9261 10.519C96.1901 8.85498 95.0541 7.55898 93.5181 6.63098C92.0141 5.70298 90.1261 5.23898 87.8541 5.23898C85.5821 5.23898 83.6941 5.70298 82.1901 6.63098C80.6861 7.55898 79.5661 8.85498 78.8301 10.519C78.3501 11.543 77.9981 12.663 77.7741 13.879C77.5821 15.063 77.4861 16.407 77.4861 17.911C77.4861 19.415 77.5821 20.775 77.7741 21.991C77.9981 23.175 78.3501 24.279 78.8301 25.303C79.5661 26.967 80.6861 28.263 82.1901 29.191C83.6941 30.119 85.5821 30.583 87.8541 30.583ZM125.432 35.671C120.952 35.671 117.656 34.695 115.544 32.743C113.432 30.791 112.376 27.751 112.376 23.623V0.966979H117.896V23.191C117.896 25.751 118.488 27.655 119.672 28.903C120.888 30.119 122.808 30.727 125.432 30.727C128.024 30.727 129.928 30.119 131.144 28.903C132.36 27.655 132.968 25.751 132.968 23.191V0.966979H138.488V23.623C138.488 27.751 137.432 30.791 135.32 32.743C133.24 34.695 129.944 35.671 125.432 35.671ZM153.627 5.76698H145.275V0.966979H167.547V5.76698H159.147V34.855H153.627V5.76698Z" fill="#4F4D3F"/>
</svg>
