<svg width="172" height="62" viewBox="0 0 172 62" fill="none" xmlns="http://www.w3.org/2000/svg">
<path d="M81.8505 51.163C80.6341 52.1032 79.2091 52.73 77.5753 53.0434C75.9415 53.3568 74.3912 53.4943 72.9244 53.4503V60.3286C72.9661 60.873 73.1868 61.1589 73.5803 61.1754H74.433V61.4778H65V61.1754H65.8528C66.0734 61.1754 66.2343 61.0929 66.3476 60.9334C66.4549 60.774 66.5145 60.5486 66.5145 60.2682V41.475C66.5145 41.1946 66.4609 40.9692 66.3476 40.8097C66.2402 40.6503 66.0734 40.5678 65.8528 40.5678H65V40.2654H73.9738C75.5539 40.2654 77.0803 40.5073 78.5591 40.9912C80.0378 41.475 81.2602 42.2448 82.2262 43.2949C83.1921 44.3451 83.6751 45.6592 83.6751 47.2372C83.6751 48.9142 83.0669 50.2228 81.8505 51.163ZM77.4322 47.0228C77.4322 44.9829 77.1221 43.3939 76.496 42.2668C75.8699 41.1341 75.0769 40.5678 74.111 40.5678C73.6518 40.5898 73.3418 40.6613 73.1927 40.7932C73.0377 40.9252 72.9483 41.1341 72.9304 41.4145V53.0819C75.9296 52.9224 77.4322 50.8991 77.4322 47.0173V47.0228Z" fill="#4F4D3F"/>
<path d="M93.5735 61.1809H94.3963V61.4833H84.9932V61.1809H85.8161C86.2573 61.1809 86.4719 60.8785 86.4719 60.2737V49.9974C86.4719 49.574 86.3288 49.2716 86.0426 49.0902C85.7564 48.9087 85.4046 48.8263 84.9932 48.8482V48.6063C86.132 48.6063 87.4558 48.3754 88.9704 47.908C90.4849 47.4462 91.7549 46.9183 92.7804 46.33L92.9116 46.484V60.3067C92.9116 60.873 93.1323 61.1644 93.5675 61.1864L93.5735 61.1809ZM87.8851 45.0104C87.3127 44.4771 87.0325 43.8338 87.0325 43.086C87.0325 42.3383 87.3187 41.695 87.8851 41.1616C88.4575 40.6283 89.1432 40.3589 89.9541 40.3589C90.7651 40.3589 91.4627 40.6283 92.0411 41.1616C92.6194 41.695 92.9116 42.3383 92.9116 43.086C92.9116 43.8338 92.6194 44.4771 92.0411 45.0104C91.4627 45.5438 90.7651 45.8132 89.9541 45.8132C89.1432 45.8132 88.4516 45.5438 87.8851 45.0104Z" fill="#4F4D3F"/>
<path d="M104.288 61.1808H105.111V61.4832H95.708V61.1808H96.5309C96.9722 61.1808 97.1867 60.8784 97.1867 60.2736V41.6619C97.1867 40.8756 96.8171 40.4797 96.0718 40.4797L95.708 40.5127V40.2708C99.5181 39.545 102.118 38.7863 103.495 38L103.626 38.154V60.312C103.626 60.8784 103.847 61.1698 104.282 61.1918L104.288 61.1808Z" fill="#4F4D3F"/>
<path d="M122.17 61.4832H120.363C119.576 61.4612 118.974 61.3182 118.556 61.0433C118.139 60.7684 117.9 60.2406 117.835 59.4543C117.483 60.2845 116.815 60.9169 115.831 61.3512C114.847 61.7856 113.738 62 112.51 62C111.437 62 110.417 61.8296 109.451 61.4832C108.485 61.1423 107.728 60.6419 107.167 59.9822C106.607 59.3224 106.374 58.5306 106.458 57.6014C106.565 56.5732 106.959 55.7155 107.627 55.0392C108.294 54.3629 109.076 53.8406 109.958 53.4777C110.841 53.1148 111.979 52.7299 113.363 52.3285C114.412 52.0261 115.217 51.7677 115.778 51.5533C116.338 51.3388 116.809 51.0694 117.191 50.734C117.572 50.3986 117.763 49.9918 117.763 49.5079C117.763 48.4357 117.59 47.677 117.238 47.2206C116.887 46.7643 116.243 46.5608 115.301 46.5993C114.621 46.6213 114.06 46.8522 113.625 47.2976C113.184 47.743 112.969 48.2488 112.969 48.8151C112.969 49.222 113.106 49.5849 113.381 49.9038C113.655 50.2282 114.066 50.4701 114.615 50.6296C114.287 51.0969 113.697 51.4873 112.856 51.8117C112.009 52.1361 111.162 52.2955 110.31 52.2955C109.457 52.2955 108.736 52.1031 108.157 51.7182C107.579 51.3333 107.287 50.7505 107.287 49.9588C107.287 49.167 107.68 48.5182 108.467 47.9409C109.254 47.3636 110.262 46.9182 111.49 46.6048C112.719 46.2914 113.989 46.1375 115.307 46.1375C117.823 46.1375 119.951 46.6268 121.681 47.6055C123.41 48.5842 124.28 50.4811 124.28 53.2907V60.2901C124.28 60.8784 124.501 61.1698 124.936 61.1698H125.759V61.4722H122.176L122.17 61.4832ZM114.776 59.9657C115.104 60.0646 115.432 60.1196 115.76 60.1196C116.308 60.1196 116.779 59.9437 117.173 59.5918C117.566 59.2399 117.775 58.679 117.799 57.9093V50.6021C117.34 51.3114 116.571 52.1966 115.497 53.2687C114.907 53.8955 114.448 54.3849 114.132 54.7368C113.816 55.0887 113.559 55.4571 113.357 55.8419C113.071 56.3478 112.927 56.8811 112.927 57.4474C112.927 57.8708 113.017 58.2722 113.19 58.6461C113.363 59.0199 113.619 59.3279 113.947 59.5698C114.168 59.7292 114.442 59.8612 114.77 59.9657H114.776Z" fill="#4F4D3F"/>
<path d="M136.039 46.6653H134.197V60.3065C134.197 60.8728 134.406 61.1642 134.823 61.1862H135.676V61.4886L130.315 61.4557C129.463 61.4337 128.819 61.2577 128.395 60.9278C127.972 60.5979 127.757 59.9326 127.757 58.9429V47.8199C127.757 47.3745 127.62 47.0721 127.346 46.9127C127.072 46.7532 126.779 46.6707 126.475 46.6707H125.754V46.3354C127.638 46.3354 129.278 45.835 130.667 44.8343C132.056 43.8336 133.171 42.3161 134.006 40.2708L134.203 40.4247V46.3354H136.045V46.6707L136.039 46.6653Z" fill="#4F4D3F"/>
<path d="M153.313 57.7389C152.687 58.7781 151.727 59.6853 150.439 60.4496C149.145 61.2193 147.559 61.6042 145.675 61.6042C144.011 61.6042 142.497 61.3018 141.137 60.697C139.778 60.0922 138.699 59.2015 137.9 58.0303C137.101 56.8592 136.701 55.4626 136.701 53.8461C136.701 52.3286 137.131 50.9925 138.001 49.8324C138.866 48.6722 140.028 47.7705 141.483 47.1327C142.938 46.4949 144.524 46.176 146.229 46.176C147.148 46.176 148.072 46.3245 148.99 46.6159C149.909 46.9073 150.719 47.3966 151.423 48.0839C152.127 48.7712 152.562 49.651 152.741 50.7231L143.833 55.1767C144.381 56.1444 145.073 56.8812 145.92 57.376C146.76 57.8709 147.678 58.1183 148.662 58.1183C149.759 58.1183 150.797 57.8269 151.787 57.2386C152.771 56.6503 153.552 55.8365 154.118 54.7808L154.22 54.9953C154.243 55.7815 153.939 56.6997 153.313 57.7389ZM143.6 54.7534L146.754 53.0544C146.689 51.7788 146.438 50.4482 145.997 49.0516C145.556 47.6551 144.965 46.9623 144.22 46.9623C144.131 46.9623 144.023 46.9843 143.892 47.0228C143.522 47.1217 143.224 47.5121 143.004 48.1884C142.783 48.8647 142.676 49.6565 142.676 50.5692C142.676 51.8833 142.908 53.1149 143.368 54.2695C143.475 54.5334 143.552 54.6929 143.6 54.7534Z" fill="#4F4D3F"/>
<path d="M165.394 51.7843C166.777 52.51 167.904 53.1423 168.78 53.6812C169.657 54.2145 170.414 54.8358 171.046 55.5451C171.678 56.2544 172 57.0021 172 57.7884C171.976 58.6571 171.565 59.4049 170.766 60.0317C169.967 60.6585 168.911 61.1314 167.612 61.4558C166.306 61.7802 164.887 61.9396 163.354 61.9396C161.142 61.9396 159.347 61.7032 157.964 61.2303C156.581 60.7575 155.794 60.0207 155.597 59.031C155.555 58.7891 155.531 58.6076 155.531 58.4867C155.531 57.7389 155.8 57.1286 156.336 56.6557C156.873 56.1829 157.559 55.941 158.393 55.941C159.228 55.941 159.908 56.1169 160.367 56.4688C160.826 56.8207 161.059 57.2331 161.059 57.6949C161.059 58.1568 160.874 58.5032 160.498 58.7836C160.17 59.0255 160.003 59.3004 160.003 59.6028C160.003 60.0482 160.301 60.4496 160.892 60.8015C161.482 61.1533 162.251 61.3403 163.193 61.3623C163.939 61.3843 164.594 61.1973 165.167 60.8015C165.739 60.4056 166.02 59.9382 166.02 59.3939C166.02 58.8496 165.715 58.3217 165.101 57.8159C164.618 57.4145 164.058 57.0406 163.426 56.7107C162.788 56.3753 162.025 56.018 161.124 55.6331C159.92 55.1052 158.948 54.6324 158.214 54.209C157.481 53.7856 156.861 53.2578 156.354 52.631C155.847 52.0042 155.597 51.2564 155.597 50.3877C155.597 49.5795 155.972 48.8482 156.73 48.1884C157.487 47.5341 158.483 47.0118 159.723 46.6269C160.963 46.242 162.257 46.0496 163.617 46.0496C164.976 46.0496 166.401 46.242 167.892 46.6269C168.727 46.8083 169.293 46.9018 169.603 46.9018C169.955 46.9018 170.271 46.8303 170.557 46.6873L170.819 46.8688L169.734 49.475L168.882 51.5643H168.554C168.423 50.2503 167.981 49.1066 167.236 48.1224C166.491 47.1437 165.417 46.6544 164.016 46.6544C163.336 46.6544 162.758 46.8358 162.275 47.1987C161.792 47.5616 161.554 48.0069 161.554 48.5348C161.554 49.1616 161.917 49.7279 162.639 50.2337C163.163 50.5966 164.088 51.1135 165.399 51.7788L165.394 51.7843Z" fill="#4F4D3F"/>
<path d="M16.712 18.688H6.664L4.84 24H0.968L8.936 1.408H14.44L22.344 24H18.536L16.712 18.688ZM15.688 15.648L11.72 4H11.656L7.688 15.648H15.688ZM42.6607 15.072C42.9808 15.84 43.1408 16.736 43.1408 17.76C43.1408 18.8907 42.9701 19.808 42.6287 20.512C42.1168 21.6853 41.2421 22.56 40.0048 23.136C38.7674 23.712 37.2421 24 35.4288 24H26.9807V1.408H35.4288C37.0287 1.408 38.3834 1.67467 39.4928 2.208C40.6021 2.74133 41.3808 3.54133 41.8288 4.608C42.1701 5.312 42.3407 6.12267 42.3407 7.04C42.3407 7.97867 42.1807 8.8 41.8608 9.504C41.2634 10.8267 40.1754 11.6907 38.5968 12.096C39.6208 12.352 40.4634 12.7253 41.1248 13.216C41.8074 13.7067 42.3194 14.3253 42.6607 15.072ZM30.6607 10.944H34.1167C35.1407 10.944 36.0047 10.7947 36.7087 10.496C37.4128 10.1973 37.8928 9.74933 38.1488 9.152C38.3834 8.64 38.5008 8.08533 38.5008 7.488C38.5008 6.912 38.3834 6.38933 38.1488 5.92C37.6367 4.78933 36.2501 4.224 33.9887 4.224H30.6607V10.944ZM38.8848 19.296C39.0981 18.7627 39.2048 18.176 39.2048 17.536C39.2048 16.8533 39.0874 16.2773 38.8527 15.808C38.2554 14.4853 36.7301 13.824 34.2767 13.824H30.6607V21.184H34.1488C36.7301 21.184 38.3088 20.5547 38.8848 19.296ZM58.9027 24.544C56.8974 24.544 55.1587 24.2027 53.6867 23.52C52.2361 22.816 51.0841 21.824 50.2307 20.544C49.5267 19.6053 48.9934 18.464 48.6307 17.12C48.2894 15.7547 48.1187 14.2827 48.1187 12.704C48.1187 10.336 48.5027 8.256 49.2707 6.464C50.0814 4.69333 51.2974 3.31733 52.9187 2.336C54.5401 1.35467 56.5347 0.863998 58.9027 0.863998C61.2921 0.863998 63.2974 1.35467 64.9187 2.336C66.5401 3.296 67.7454 4.66133 68.5347 6.432C69.3241 8.20267 69.7188 10.2933 69.7188 12.704C69.7188 15.136 69.3134 17.2267 68.5028 18.976C67.7134 20.7467 66.5081 22.1227 64.8867 23.104C63.2654 24.064 61.2707 24.544 58.9027 24.544ZM58.9027 21.152C60.4174 21.152 61.6761 20.8427 62.6788 20.224C63.7028 19.6053 64.4601 18.7413 64.9508 17.632C65.2708 16.9493 65.4947 16.2133 65.6227 15.424C65.7721 14.6133 65.8468 13.7067 65.8468 12.704C65.8468 11.7013 65.7721 10.8053 65.6227 10.016C65.4947 9.20533 65.2708 8.45867 64.9508 7.776C64.4601 6.66667 63.7028 5.80267 62.6788 5.184C61.6761 4.56533 60.4174 4.256 58.9027 4.256C57.3881 4.256 56.1294 4.56533 55.1267 5.184C54.1241 5.80267 53.3774 6.66667 52.8867 7.776C52.5667 8.45867 52.3321 9.20533 52.1827 10.016C52.0547 10.8053 51.9907 11.7013 51.9907 12.704C51.9907 13.7067 52.0547 14.6133 52.1827 15.424C52.3321 16.2133 52.5667 16.9493 52.8867 17.632C53.3774 18.7413 54.1241 19.6053 55.1267 20.224C56.1294 20.8427 57.3881 21.152 58.9027 21.152ZM83.955 24.544C80.9683 24.544 78.771 23.8933 77.363 22.592C75.955 21.2907 75.251 19.264 75.251 16.512V1.408H78.931V16.224C78.931 17.9307 79.3257 19.2 80.115 20.032C80.9257 20.8427 82.2057 21.248 83.955 21.248C85.683 21.248 86.9523 20.8427 87.763 20.032C88.5737 19.2 88.979 17.9307 88.979 16.224V1.408H92.659V16.512C92.659 19.264 91.955 21.2907 90.547 22.592C89.1603 23.8933 86.963 24.544 83.955 24.544ZM102.751 4.608H97.1835V1.408H112.031V4.608H106.431V24H102.751V4.608Z" fill="#4F4D3F"/>
</svg>
