<svg width="20" height="24" viewBox="0 0 20 24" fill="none" xmlns="http://www.w3.org/2000/svg">
<path d="M15.3163 6.63633C16.3398 5.55406 18.0977 5.72684 18.7916 7.09587C19.1066 7.71579 19.1046 8.3965 18.7856 9.13801C18.7797 9.15234 18.7796 9.16845 18.7854 9.18284C18.7912 9.19723 18.8024 9.20872 18.8165 9.2148C19.072 9.32199 19.3307 9.41918 19.5925 9.50637C19.877 9.60235 20.0757 9.84592 19.9722 10.1579C19.4882 11.6105 19.0244 12.9983 18.5809 14.3214C18.4762 14.6357 18.2766 14.7445 17.9822 14.6477C17.9751 14.6453 17.9691 14.6433 17.9644 14.6417C17.6724 14.5465 17.5748 14.3522 17.6716 14.0586C18.0945 12.7676 18.5107 11.5149 18.9201 10.3007C18.9233 10.2919 18.9205 10.2859 18.9118 10.2827L18.4904 10.1219C18.477 10.1163 18.4678 10.1207 18.4631 10.1351C17.6895 12.402 16.9131 14.7005 16.1339 17.0306C16.0268 17.3522 15.8637 17.6233 15.521 17.7325C15.4425 17.7574 15.3738 17.8064 15.3245 17.8727C15.2752 17.939 15.2477 18.0192 15.246 18.1021C15.2278 19.0132 15.2286 19.9651 15.2484 20.9577C15.2611 21.6136 15.2052 22.108 15.0806 22.4407C14.6938 23.4666 13.7964 23.9921 12.7217 23.9945C8.90761 24.0025 5.46129 24.0017 2.38272 23.9921C1.72495 23.9897 1.16677 23.7566 0.708156 23.2926C0.184482 22.7623 -0.00118449 22.1504 5.68062e-06 21.4197C0.00714668 16.5963 0.00754366 11.7293 0.0011961 6.8187C5.93486e-06 5.39088 1.0295 4.31582 2.43866 4.31702C3.20671 4.31702 3.95374 4.31742 4.67974 4.31822C4.72497 4.31822 4.74877 4.29542 4.75115 4.24983C4.86461 2.43965 5.71241 1.14981 7.29454 0.380311C7.7833 0.142741 8.3403 0.0163569 8.96553 0.00115879C11.3637 -0.0540343 13.343 1.86932 13.3561 4.28942C13.3561 4.33581 13.3783 4.36621 13.4227 4.38061C14.5161 4.71897 15.1231 5.46247 15.2437 6.61113C15.25 6.67272 15.2742 6.68112 15.3163 6.63633ZM11.4851 2.00971C9.73914 0.158339 6.64233 0.86505 5.8711 3.30794C5.71479 3.80388 5.67988 4.38461 5.76637 5.05013C6.04248 7.17746 7.31596 9.00123 9.00362 10.3727C9.04091 10.4031 9.0786 10.4031 9.11668 10.3727C10.8769 8.95444 12.2325 6.95789 12.3932 4.67457C12.467 3.61711 12.1643 2.72882 11.4851 2.00971ZM13.2585 5.41728C12.8919 7.75219 11.4708 9.73434 9.59037 11.2209C9.35591 11.4057 9.08098 11.6241 8.77511 11.4009C6.78277 9.95031 5.22722 7.81698 4.84994 5.34889C4.842 5.29769 4.81225 5.2725 4.76067 5.2733C4.08148 5.2821 3.36104 5.2809 2.59933 5.2697C2.28433 5.2657 2.01813 5.31129 1.80073 5.40648C1.31276 5.62005 0.95928 6.13839 0.95928 6.68552C0.956106 11.8289 0.955313 16.7827 0.9569 21.5469C0.9569 22.1312 1.23897 22.6291 1.77097 22.8943C1.9741 22.9959 2.30338 23.0455 2.75881 23.0431C6.01828 23.0271 9.25316 23.0283 12.4634 23.0467C13.1966 23.0503 13.7583 22.9315 14.1166 22.2728C14.2515 22.0256 14.3106 21.6276 14.2939 21.0789C14.282 20.6934 14.2796 20.2786 14.2868 19.8347C14.2884 19.7219 14.259 19.7131 14.1987 19.8083C13.9694 20.1658 13.6885 20.489 13.3561 20.7778C12.6408 21.4005 11.8077 21.0861 11.7208 20.1262C11.622 19.0512 11.8862 17.8441 12.1956 16.7715C12.2099 16.7211 12.202 16.6747 12.1718 16.6323C11.9767 16.3563 11.9421 16.0407 12.0481 15.7264C12.7519 13.649 13.4806 11.4969 14.2344 9.26999C14.2733 9.15561 14.2915 9.03762 14.2892 8.91604C14.2812 8.30892 14.2828 7.6402 14.2939 6.90989C14.3046 6.18998 14.0083 5.63205 13.3394 5.37048C13.331 5.36736 13.3221 5.36612 13.3133 5.36686C13.3044 5.3676 13.2958 5.3703 13.2881 5.37476C13.2803 5.37923 13.2737 5.38535 13.2686 5.3927C13.2634 5.40005 13.26 5.40844 13.2585 5.41728ZM13.0145 16.0731L15.1258 16.7978C15.1351 16.8011 15.1448 16.8024 15.1545 16.8018C15.1643 16.8011 15.1738 16.7986 15.1825 16.7942C15.1913 16.7899 15.1991 16.7838 15.2055 16.7764C15.2119 16.769 15.2168 16.7604 15.2199 16.7511L18.0084 8.49129C18.1117 8.18473 18.093 7.85038 17.9564 7.56172C17.8199 7.27307 17.5766 7.05372 17.28 6.95189L17.2669 6.94709C17.12 6.89669 16.9644 6.8767 16.809 6.88826C16.6537 6.89982 16.5016 6.9427 16.3615 7.01445C16.2213 7.0862 16.0959 7.18542 15.9923 7.30645C15.8887 7.42747 15.8091 7.56792 15.7578 7.71979L12.9681 15.9796C12.962 15.9982 12.9635 16.0184 12.9722 16.036C12.9809 16.0535 12.9961 16.0668 13.0145 16.0731ZM14.3927 17.6113C14.3956 17.606 14.3972 17.6001 14.3975 17.5941C14.3979 17.588 14.3969 17.5819 14.3946 17.5762C14.3923 17.5705 14.3889 17.5654 14.3844 17.5611C14.38 17.5568 14.3747 17.5535 14.3689 17.5514L13.1549 17.135C13.1089 17.1198 13.0799 17.1354 13.068 17.1818C12.8792 17.9089 12.7455 18.628 12.667 19.3391C12.6431 19.5615 12.6372 19.7851 12.6491 20.0098C12.6539 20.1074 12.6915 20.1222 12.7622 20.0542C13.4418 19.3979 13.9559 18.4596 14.3927 17.6113Z" fill="#4F4D3F"/>
<path d="M10.4771 4.31704C10.4771 4.69858 10.3267 5.0645 10.0591 5.33429C9.79149 5.60409 9.42852 5.75566 9.05006 5.75566C8.67159 5.75566 8.30863 5.60409 8.04101 5.33429C7.77339 5.0645 7.62305 4.69858 7.62305 4.31704C7.62305 3.93549 7.77339 3.56957 8.04101 3.29978C8.30863 3.02999 8.67159 2.87842 9.05006 2.87842C9.42852 2.87842 9.79149 3.02999 10.0591 3.29978C10.3267 3.56957 10.4771 3.93549 10.4771 4.31704ZM9.52493 4.31704C9.52493 4.19007 9.4749 4.0683 9.38585 3.97852C9.29679 3.88874 9.176 3.8383 9.05006 3.8383C8.92411 3.8383 8.80333 3.88874 8.71427 3.97852C8.62521 4.0683 8.57518 4.19007 8.57518 4.31704C8.57518 4.44401 8.62521 4.56578 8.71427 4.65556C8.80333 4.74534 8.92411 4.79578 9.05006 4.79578C9.176 4.79578 9.29679 4.74534 9.38585 4.65556C9.4749 4.56578 9.52493 4.44401 9.52493 4.31704Z" fill="#4F4D3F"/>
<path d="M10.483 13.916H4.7607C4.50238 13.916 4.29297 14.1271 4.29297 14.3876V14.4044C4.29297 14.6648 4.50238 14.8759 4.7607 14.8759H10.483C10.7413 14.8759 10.9508 14.6648 10.9508 14.4044V14.3876C10.9508 14.1271 10.7413 13.916 10.483 13.916Z" fill="#4F4D3F"/>
<path d="M9.53202 16.7969H4.75707C4.49941 16.7969 4.29053 17.0075 4.29053 17.2672V17.284C4.29053 17.5438 4.49941 17.7544 4.75707 17.7544H9.53202C9.78969 17.7544 9.99857 17.5438 9.99857 17.284V17.2672C9.99857 17.0075 9.78969 16.7969 9.53202 16.7969Z" fill="#4F4D3F"/>
<path d="M9.53111 19.6763H4.75854C4.50087 19.6763 4.29199 19.8868 4.29199 20.1466V20.1634C4.29199 20.4232 4.50087 20.6338 4.75854 20.6338H9.53111C9.78877 20.6338 9.99765 20.4232 9.99765 20.1634V20.1466C9.99765 19.8868 9.78877 19.6763 9.53111 19.6763Z" fill="#4F4D3F"/>
</svg>
