<svg width="8" height="14" viewBox="0 0 8 14" fill="none" xmlns="http://www.w3.org/2000/svg">
<path d="M0.803707 1.33514e-05C0.90887 -0.000577927 1.01312 0.0190363 1.11048 0.0577335C1.20783 0.0964308 1.29638 0.153449 1.37105 0.225518L7.76364 6.44632C7.83853 6.51861 7.89798 6.60461 7.93855 6.69937C7.97911 6.79413 8 6.89576 8 6.99842C8 7.10107 7.97911 7.20271 7.93855 7.29746C7.89798 7.39222 7.83853 7.47822 7.76364 7.55051L1.37105 13.7713C1.22058 13.9177 1.0165 14 0.803707 14C0.590912 14 0.386834 13.9177 0.236365 13.7713C0.085897 13.6249 0.00136423 13.4263 0.00136423 13.2192C0.00136423 13.0121 0.085897 12.8135 0.236365 12.6671L6.0696 6.99842L0.236365 1.32971C0.161469 1.25742 0.102022 1.17142 0.0614538 1.07666C0.0208859 0.981903 0 0.880266 0 0.777614C0 0.674961 0.0208859 0.573324 0.0614538 0.478567C0.102022 0.383809 0.161469 0.297807 0.236365 0.225518C0.311031 0.153449 0.39958 0.0964308 0.496936 0.0577335C0.594294 0.0190363 0.698543 -0.000577927 0.803707 1.33514e-05Z" fill="#FAF6EA"/>
</svg>
