<svg width="24" height="24" viewBox="0 0 24 24" fill="none" xmlns="http://www.w3.org/2000/svg">
<path d="M20.2332 17.6519H17.5426V20.2845H16.1435V17.6519H13.4529V16.3882H16.1435V13.7556H17.435V16.3882H20.1256V17.6519H20.2332ZM24 17.0201C23.8924 25.5498 11.3004 26.6028 9.6861 18.2837H0L2.26009 4.69933H5.27354C6.24215 -1.51368 11.8386 -1.61899 12.8072 4.69933H15.8206L16.6816 9.9646H16.7892C20.7713 9.9646 24 13.1238 24 17.0201ZM6.67265 4.69933H11.4081C11.0852 2.90914 9.90135 0.171204 7.96413 1.75078C7.31839 2.38262 6.99552 3.54098 6.67265 4.69933ZM1.61435 17.0201H9.57847C9.57847 13.4397 12.3767 10.4911 15.9283 10.0699C15.713 10.0699 15.4978 10.0699 15.3901 10.1752L14.7444 6.0683H13.13C13.3453 7.54258 13.3453 8.70094 13.3453 8.80624H12.0538C12.0538 8.17441 12.0538 7.12136 11.8386 6.0683H6.4574C6.24215 7.12136 6.24215 8.17441 6.24215 8.80624H4.95067C4.95067 8.70094 4.95067 7.54258 5.16592 6.0683H3.44395L1.61435 17.0201ZM16.7892 11.3336C9.04036 11.5442 9.04036 22.6012 16.7892 22.8119C24.5381 22.6012 24.5381 11.5442 16.7892 11.3336Z" fill="#4F4D3F"/>
</svg>
