<svg width="1920" height="708" viewBox="0 0 1920 708" fill="none" xmlns="http://www.w3.org/2000/svg">
<rect width="1920" height="708" fill="#788170"/>
<path d="M1281.28 243.604C1272.54 243.604 1263.9 244.196 1255.34 245.097C1258.93 242.432 1262.79 236.991 1262.79 236.991C1262.79 236.991 1264.91 193.633 1267.04 187.02C1269.18 180.407 1286.25 136.321 1286.25 128.968C1286.25 121.626 1283.41 96.641 1274.52 96.641C1265.62 96.641 1255.67 103.254 1251.39 118.69C1247.12 134.113 1230.74 156.902 1217.24 174.534C1203.72 192.165 1070.66 299.46 1055.01 306.061C1039.36 312.674 1020.87 313.415 1011.61 322.237C997.392 328.85 985.29 325.914 985.29 325.914L950.416 348.69C950.416 348.69 821.638 444.955 805.987 465.523C783.216 468.459 775.39 465.523 775.39 465.523C775.39 465.523 744.089 432.456 741.245 415.552C738.402 398.661 735.546 356.772 735.546 339.868C735.546 322.965 711.353 300.928 699.263 291.366C687.16 281.816 647.245 233.314 647.245 233.314L637.914 232.586V212.746C637.914 212.746 661.474 214.214 666.456 209.809C671.438 205.404 678.941 187.032 679.299 180.049C679.658 173.065 693.373 172.337 693.373 172.337C693.373 172.337 684.413 151.399 683.337 142.219C682.274 133.027 684.006 126.414 684.006 126.414C684.006 126.414 691.091 114.297 694.651 104.365C698.212 94.4448 700.697 83.7967 697.495 77.5535C694.293 71.3102 664.76 32 613.888 32C563.017 32 560.52 65.7949 560.52 65.7949C560.52 65.7949 538.466 63.9565 536.327 67.6334C534.189 71.3102 533.126 74.6169 533.126 74.6169C533.126 74.6169 513.21 72.0505 506.806 79.762C500.402 87.4736 488.658 97.406 488.658 147.364C488.658 197.335 499.339 200.642 501.824 212.77C504.309 224.887 500.402 253.549 491.502 254.289C509.291 252.451 536.327 235.547 538.812 216.447C541.298 197.347 540.234 135.988 535.252 122.033C530.27 108.066 530.987 96.678 534.535 94.4818C535.957 100.367 535.957 100.367 535.957 100.367L550.545 99.9971C550.545 99.9971 549.481 107.709 551.608 117.999C553.734 128.277 558.012 154.002 569.039 164.293C569.397 176.409 571.177 229.686 571.177 229.686C571.177 229.686 548.406 248.058 539.159 267.158C529.912 286.258 525.288 291.045 523.508 315.66C521.728 340.276 528.132 377.377 530.975 396.119C533.819 414.861 536.304 450.495 534.882 461.883C533.46 473.284 534.165 475.85 534.165 475.85C534.165 475.85 520.999 486.498 518.156 507.819C515.312 529.127 500.008 576.519 500.008 576.519L485.421 584.601C485.421 584.601 461.944 586.427 456.962 588.636C451.981 590.844 445.577 601.862 456.962 601.492C468.348 601.135 490.044 601.492 490.044 601.492L489.686 619.864L467.667 634.892L461.263 642.974L434.227 654.733C434.227 654.733 406.474 674.943 421.42 675.671C436.354 676.411 467.667 675.671 467.667 675.671C467.667 675.671 470.511 668.687 477.989 662.062C485.468 655.436 485.815 653.252 487.237 653.992C488.658 654.733 492.565 666.109 492.565 666.109C492.565 666.109 497.189 672.352 501.107 671.612C505.026 670.871 514.273 668.305 514.273 666.837C514.273 665.368 515.336 648.095 515.336 645.516C515.336 642.949 515.695 625.688 515.695 625.688L530.282 600.333C530.282 600.333 559.804 546.685 563.005 526.105C566.207 505.536 567.629 497.455 567.629 497.455C567.629 497.455 590.4 452.987 588.979 447.126C597.867 465.128 645.537 547.055 657.639 558.444C664.748 576.803 676.133 619.803 696.419 634.128C716.706 648.452 734.125 652.499 752.631 652.499C771.137 652.499 820.228 647.354 836.237 635.953C852.246 624.565 1035.11 403.769 1035.11 403.769C1035.11 403.769 1055.13 394.824 1066.95 389.308C1061.67 406.459 1058.59 424.559 1058.59 443.61C1058.59 558.752 1158.3 652.117 1281.29 652.117C1404.29 652.117 1504 558.752 1504 443.61C1503.98 328.492 1402.99 243.604 1281.28 243.604ZM1217.98 251.883C1218.2 251.71 1218.5 251.439 1218.68 251.328C1225.56 246.121 1238.55 246.022 1246.36 246.294C1236.73 247.663 1227.22 249.428 1217.98 251.883Z" fill="#E7E8D9" fill-opacity="0.06"/>
<g clip-path="url(#clip0_2108_6670)">
<path d="M1332.94 252.252C1331.38 243.202 1336.88 234.426 1345.7 231.888L1736.28 119.554C1746.58 116.592 1757.17 123.228 1758.99 133.787L1785.91 289.575C1787.72 300.047 1780.12 309.798 1769.52 310.59L1364.76 340.835C1355.51 341.526 1347.26 335.084 1345.68 325.95L1332.94 252.252Z" fill="#F8EFE7"/>
</g>
<g clip-path="url(#clip1_2108_6670)">
<path d="M587.507 470.152C589.071 479.202 583.571 487.977 574.745 490.516L184.169 602.85C173.871 605.812 163.282 599.176 161.457 588.616L134.535 432.828C132.726 422.357 140.334 412.605 150.931 411.813L555.693 381.568C564.936 380.878 573.193 387.319 574.771 396.453L587.507 470.152Z" fill="#F8EFE7"/>
</g>
<g clip-path="url(#clip2_2108_6670)">
<path d="M586.782 238.252C588.346 229.202 582.846 220.426 574.02 217.888L183.445 105.554C173.146 102.592 162.557 109.228 160.732 119.787L133.811 275.575C132.001 286.047 139.609 295.798 150.207 296.59L554.968 326.835C564.211 327.526 572.468 321.084 574.046 311.95L586.782 238.252Z" fill="#F8EFE7"/>
</g>
<g clip-path="url(#clip3_2108_6670)">
<path d="M1332.94 484.294C1331.38 493.343 1336.88 502.119 1345.7 504.658L1736.28 616.992C1746.58 619.954 1757.17 613.317 1758.99 602.758L1785.91 446.97C1787.72 436.499 1780.12 426.747 1769.52 425.955L1364.76 395.71C1355.51 395.02 1347.26 401.461 1345.68 410.595L1332.94 484.294Z" fill="#F8EFE7"/>
</g>
<defs>
<clipPath id="clip0_2108_6670">
<rect width="6" height="263" fill="white" transform="translate(1322 121)"/>
</clipPath>
<clipPath id="clip1_2108_6670">
<rect width="6" height="262" fill="white" transform="translate(592 339)"/>
</clipPath>
<clipPath id="clip2_2108_6670">
<rect width="6" height="263" fill="white" transform="translate(592 107)"/>
</clipPath>
<clipPath id="clip3_2108_6670">
<rect width="6" height="263" fill="white" transform="translate(1322 353)"/>
</clipPath>
</defs>
</svg>
