<svg width="32" height="32" viewBox="0 0 32 32" fill="none" xmlns="http://www.w3.org/2000/svg">
<path d="M32 26.128C32 26.704 31.8718 27.296 31.5994 27.872C31.327 28.448 30.9745 28.992 30.5098 29.504C29.7246 30.368 28.8593 30.992 27.8818 31.392C26.9204 31.792 25.8788 32 24.7571 32C23.1227 32 21.3761 31.616 19.5333 30.832C17.6905 30.048 15.8478 28.992 14.021 27.664C12.1783 26.32 10.4316 24.832 8.76515 23.184C7.11467 21.52 5.62444 19.776 4.29444 17.952C2.98047 16.128 1.92288 14.304 1.15373 12.496C0.384577 10.672 0 8.928 0 7.264C0 6.176 0.192288 5.136 0.576865 4.176C0.961442 3.2 1.57036 2.304 2.41963 1.504C3.44517 0.496 4.56685 0 5.75263 0C6.2013 0 6.64998 0.0960001 7.05058 0.288C7.4672 0.48 7.83575 0.768 8.12419 1.184L11.8418 6.416C12.1302 6.816 12.3385 7.184 12.4827 7.536C12.6269 7.872 12.7071 8.208 12.7071 8.512C12.7071 8.896 12.5949 9.28 12.3706 9.648C12.1622 10.016 11.8578 10.4 11.4732 10.784L10.2554 12.048C10.0791 12.224 9.999 12.432 9.999 12.688C9.999 12.816 10.015 12.928 10.0471 13.056C10.0951 13.184 10.1432 13.28 10.1753 13.376C10.4637 13.904 10.9604 14.592 11.6655 15.424C12.3866 16.256 13.1557 17.104 13.989 17.952C14.8543 18.8 15.6875 19.584 16.5368 20.304C17.3701 21.008 18.0591 21.488 18.6039 21.776C18.684 21.808 18.7802 21.856 18.8923 21.904C19.0205 21.952 19.1487 21.968 19.2929 21.968C19.5653 21.968 19.7737 21.872 19.9499 21.696L21.1678 20.496C21.5684 20.096 21.9529 19.792 22.3215 19.6C22.69 19.376 23.0586 19.264 23.4592 19.264C23.7636 19.264 24.0841 19.328 24.4367 19.472C24.7892 19.616 25.1577 19.824 25.5583 20.096L30.8623 23.856C31.2789 24.144 31.5674 24.48 31.7436 24.88C31.9039 25.28 32 25.68 32 26.128Z" fill="#090909"/>
<path d="M32 26.128C32 26.704 31.8718 27.296 31.5994 27.872C31.327 28.448 30.9745 28.992 30.5098 29.504C29.7246 30.368 28.8593 30.992 27.8818 31.392C26.9204 31.792 25.8788 32 24.7571 32C23.1227 32 21.3761 31.616 19.5333 30.832C17.6905 30.048 15.8478 28.992 14.021 27.664C12.1783 26.32 10.4316 24.832 8.76515 23.184C7.11467 21.52 5.62444 19.776 4.29444 17.952C2.98047 16.128 1.92288 14.304 1.15373 12.496C0.384577 10.672 0 8.928 0 7.264C0 6.176 0.192288 5.136 0.576865 4.176C0.961442 3.2 1.57036 2.304 2.41963 1.504C3.44517 0.496 4.56685 0 5.75263 0C6.2013 0 6.64998 0.0960001 7.05058 0.288C7.4672 0.48 7.83575 0.768 8.12419 1.184L11.8418 6.416C12.1302 6.816 12.3385 7.184 12.4827 7.536C12.6269 7.872 12.7071 8.208 12.7071 8.512C12.7071 8.896 12.5949 9.28 12.3706 9.648C12.1622 10.016 11.8578 10.4 11.4732 10.784L10.2554 12.048C10.0791 12.224 9.999 12.432 9.999 12.688C9.999 12.816 10.015 12.928 10.0471 13.056C10.0951 13.184 10.1432 13.28 10.1753 13.376C10.4637 13.904 10.9604 14.592 11.6655 15.424C12.3866 16.256 13.1557 17.104 13.989 17.952C14.8543 18.8 15.6875 19.584 16.5368 20.304C17.3701 21.008 18.0591 21.488 18.6039 21.776C18.684 21.808 18.7802 21.856 18.8923 21.904C19.0205 21.952 19.1487 21.968 19.2929 21.968C19.5653 21.968 19.7737 21.872 19.9499 21.696L21.1678 20.496C21.5684 20.096 21.9529 19.792 22.3215 19.6C22.69 19.376 23.0586 19.264 23.4592 19.264C23.7636 19.264 24.0841 19.328 24.4367 19.472C24.7892 19.616 25.1577 19.824 25.5583 20.096L30.8623 23.856C31.2789 24.144 31.5674 24.48 31.7436 24.88C31.9039 25.28 32 25.68 32 26.128Z" fill="black" fill-opacity="0.2"/>
</svg>
