<svg width="24" height="24" viewBox="0 0 24 24" fill="none" xmlns="http://www.w3.org/2000/svg">
<mask id="path-1-inside-1_594_9943" fill="white">
<path d="M0 12C0 5.37258 5.37258 0 12 0C18.6274 0 24 5.37258 24 12C24 18.6274 18.6274 24 12 24C5.37258 24 0 18.6274 0 12Z"/>
</mask>
<path d="M0 12C0 5.37258 5.37258 0 12 0C18.6274 0 24 5.37258 24 12C24 18.6274 18.6274 24 12 24C5.37258 24 0 18.6274 0 12Z" fill="#788170"/>
<path d="M0 0H24H0ZM24 13C24 19.6274 18.6274 25 12 25C5.37258 25 0 19.6274 0 13V12C0 18.0751 5.37258 23 12 23C18.6274 23 24 18.0751 24 12V13ZM0 24V0V24ZM24 0V24V0Z" fill="#4F4D3F" mask="url(#path-1-inside-1_594_9943)"/>
</svg>
