<svg width="48" height="48" viewBox="0 0 48 48" fill="none" xmlns="http://www.w3.org/2000/svg">
<mask id="path-1-inside-1_735_8888" fill="white">
<path d="M0 24C0 10.7452 10.7452 0 24 0C37.2548 0 48 10.7452 48 24C48 37.2548 37.2548 48 24 48C10.7452 48 0 37.2548 0 24Z"/>
</mask>
<path d="M0 24C0 10.7452 10.7452 0 24 0C37.2548 0 48 10.7452 48 24C48 37.2548 37.2548 48 24 48C10.7452 48 0 37.2548 0 24Z" fill="#C02134" fill-opacity="0.12"/>
<path d="M0 0H48H0ZM48 25C48 38.2548 37.2548 49 24 49C10.7452 49 0 38.2548 0 25V24C0 36.7025 10.7452 47 24 47C37.2548 47 48 36.7025 48 24V25ZM0 48V0V48ZM48 0V48V0Z" fill="#C02134" mask="url(#path-1-inside-1_735_8888)"/>
<path d="M26.7242 14.1878C26.2236 13.5347 25.432 13.0491 24.6327 12.9783C24.3613 12.9551 24.0623 12.9461 23.7358 12.9513C22.7629 12.9682 21.8844 13.3987 21.2752 14.1855C20.8376 14.7498 20.0264 14.3226 20.2403 13.6786C20.2925 13.5235 20.3974 13.362 20.5553 13.1941C21.7052 11.9745 23.0267 11.643 24.6143 11.77C25.8185 11.8655 26.9109 12.4961 27.6613 13.4729C28.1488 14.108 27.2465 14.8689 26.7242 14.1878Z" fill="#C02134"/>
<path d="M34.4245 15.3545H13.5755C13.2577 15.3545 13 15.6212 13 15.9502V15.9592C13 16.2882 13.2577 16.555 13.5755 16.555H34.4245C34.7423 16.555 35 16.2882 35 15.9592V15.9502C35 15.6212 34.7423 15.3545 34.4245 15.3545Z" fill="#C02134"/>
<path d="M18.1216 33.6145C18.4192 34.1855 19.0186 34.5362 19.6571 34.5373C22.6165 34.5396 25.3706 34.5403 27.9195 34.5396C28.461 34.5396 28.8349 34.4916 29.0413 34.3957C29.5994 34.1383 30.0001 33.6156 30.0837 32.9963C30.7932 27.7943 31.4762 22.8594 32.1328 18.1917C32.1925 17.7702 32.7235 17.6567 33.0221 17.8736C33.2176 18.0152 33.2932 18.2423 33.2491 18.5548C32.6091 23.1423 31.9402 27.988 31.2423 33.0918C31.0263 34.6722 29.8046 35.7445 28.2627 35.7445C22.5799 35.7445 19.7385 35.7445 19.7385 35.7445C18.5733 35.7591 17.4408 35.0724 16.989 33.9416C16.8725 33.6501 16.7842 33.2833 16.7241 32.8412C16.0603 27.9936 15.3997 23.2015 14.7423 18.4648C14.6283 17.6454 15.7729 17.4824 15.8847 18.2783C16.5384 22.952 17.2015 27.7651 17.874 32.7175C17.9262 33.0989 18.0087 33.3979 18.1216 33.6145Z" fill="#C02134"/>
<path d="M19.9142 20.1553L19.9012 20.1562C19.5858 20.1767 19.3462 20.458 19.366 20.7846L19.9495 30.385C19.9694 30.7115 20.2412 30.9596 20.5566 30.939L20.5696 30.9382C20.885 30.9176 21.1246 30.6363 21.1048 30.3098L20.5213 20.7093C20.5014 20.3828 20.2296 20.1348 19.9142 20.1553Z" fill="#C02134"/>
<path d="M24.0089 20.1543H23.9937C23.68 20.1543 23.4258 20.4175 23.4258 20.7422V30.3526C23.4258 30.6773 23.68 30.9405 23.9937 30.9405H24.0089C24.3226 30.9405 24.5768 30.6773 24.5768 30.3526V20.7422C24.5768 20.4175 24.3226 20.1543 24.0089 20.1543Z" fill="#C02134"/>
<path d="M28.0978 20.1572L28.0848 20.1563C27.7694 20.1358 27.4976 20.3838 27.4777 20.7103L26.8944 30.3085C26.8745 30.6351 27.1141 30.9164 27.4296 30.9369L27.4426 30.9378C27.758 30.9583 28.0298 30.7103 28.0496 30.3838L28.633 20.7856C28.6529 20.4591 28.4132 20.1777 28.0978 20.1572Z" fill="#C02134"/>
</svg>
