<svg width="48" height="48" viewBox="0 0 48 48" fill="none" xmlns="http://www.w3.org/2000/svg">
<mask id="path-1-inside-1_735_8822" fill="white">
<path d="M0 24C0 10.7452 10.7452 0 24 0C37.2548 0 48 10.7452 48 24C48 37.2548 37.2548 48 24 48C10.7452 48 0 37.2548 0 24Z"/>
</mask>
<path d="M0 24C0 10.7452 10.7452 0 24 0C37.2548 0 48 10.7452 48 24C48 37.2548 37.2548 48 24 48C10.7452 48 0 37.2548 0 24Z" fill="#F4F4F4"/>
<path d="M0 0H48H0ZM48 25C48 38.2548 37.2548 49 24 49C10.7452 49 0 38.2548 0 25V24C0 36.7025 10.7452 47 24 47C37.2548 47 48 36.7025 48 24V25ZM0 48V0V48ZM48 0V48V0Z" fill="#4F4D3F" mask="url(#path-1-inside-1_735_8822)"/>
<path d="M25.7791 25.8733C24.669 26.1372 23.479 26.4356 22.209 26.7687C21.9578 26.8338 21.7538 26.8446 21.5971 26.8008C21.2238 26.6947 21.0687 26.3085 21.1606 25.9448C21.4699 24.7232 21.778 23.4908 22.085 22.2478C22.1303 22.066 22.2243 21.9003 22.357 21.7685C25.3238 18.8277 28.1551 15.9962 30.8509 13.2739C31.3916 12.7271 31.8234 12.3841 32.1462 12.245C34.4865 11.2352 36.8029 13.5243 35.7318 15.8634C35.6054 16.1392 35.3235 16.4949 34.8861 16.9305C32.0162 19.7894 29.0935 22.7076 26.1178 25.6849C26.0242 25.7777 25.907 25.8429 25.7791 25.8733ZM31.9017 14.2527L33.7195 16.0768C33.7261 16.0835 33.7339 16.0887 33.7425 16.0923C33.7511 16.0959 33.7603 16.0978 33.7696 16.0978C33.779 16.0978 33.7882 16.0959 33.7968 16.0923C33.8054 16.0887 33.8132 16.0835 33.8197 16.0768L34.2062 15.6917C34.3375 15.561 34.4432 15.4071 34.5171 15.2387C34.591 15.0704 34.6318 14.891 34.6372 14.7108C34.6425 14.5305 34.6122 14.353 34.5481 14.1883C34.484 14.0236 34.3873 13.8749 34.2635 13.7508L34.2301 13.7174C34.1064 13.5933 33.958 13.4961 33.7935 13.4314C33.6289 13.3667 33.4514 13.3358 33.2711 13.3405C33.0908 13.3451 32.9112 13.3852 32.7425 13.4585C32.5739 13.5318 32.4195 13.6368 32.2882 13.7675L31.9017 14.1538C31.8887 14.167 31.8814 14.1847 31.8814 14.2033C31.8814 14.2218 31.8887 14.2396 31.9017 14.2527ZM22.7518 25.1663C22.7498 25.1734 22.7498 25.1809 22.7517 25.188C22.7536 25.1951 22.7573 25.2016 22.7625 25.2068C22.7677 25.212 22.7742 25.2158 22.7813 25.2177C22.7885 25.2196 22.796 25.2195 22.8031 25.2176L25.2865 24.5964C25.2937 24.5946 25.3003 24.5909 25.3055 24.5857L32.7832 17.1117C32.7872 17.1078 32.7903 17.1032 32.7925 17.098C32.7946 17.0929 32.7957 17.0874 32.7957 17.0819C32.7957 17.0763 32.7946 17.0708 32.7925 17.0657C32.7903 17.0606 32.7872 17.056 32.7832 17.0521L30.9224 15.1946C30.9185 15.1906 30.9139 15.1875 30.9088 15.1853C30.9037 15.1832 30.8982 15.1821 30.8926 15.1821C30.8871 15.1821 30.8816 15.1832 30.8764 15.1853C30.8713 15.1875 30.8667 15.1906 30.8628 15.1946L23.384 22.6698C23.3787 22.6751 23.375 22.6817 23.3732 22.6889L22.7518 25.1663Z" fill="#4F4D3F"/>
<path d="M14.6588 14.4612C13.8584 14.7581 13.3479 15.5115 13.3491 16.3759C13.3554 21.8076 13.3558 27.1706 13.3503 32.4649C13.3491 33.7632 14.2496 34.6502 15.5426 34.6478C20.6876 34.6375 26.0257 34.6371 31.5571 34.6467C32.7404 34.6478 33.6684 33.7465 33.6743 32.577C33.6894 29.4367 33.6887 26.3138 33.672 23.2085C33.672 23.1592 33.6966 23.1346 33.7459 23.1346L34.9661 23.1358C34.9749 23.1358 34.9835 23.1375 34.9915 23.1409C34.9996 23.1443 35.0068 23.1492 35.013 23.1554C35.0191 23.1616 35.0239 23.169 35.0271 23.1771C35.0303 23.1852 35.0319 23.1938 35.0317 23.2025C35.0294 26.0782 35.0298 29.1775 35.0329 32.5007C35.0337 33.1246 34.8759 33.7127 34.5594 34.2651C33.8978 35.4216 32.8668 35.9994 31.4665 35.9986C26.1816 35.997 20.8748 35.9974 15.5462 35.9998C14.2532 36.0006 13.2572 35.4808 12.5582 34.4404C12.1241 33.7954 11.9988 33.1099 12 32.3182C12.0048 27.1838 12.0068 21.8247 12.006 16.2412C12.006 14.8177 12.9996 13.598 14.3188 13.1474C14.6981 13.017 15.3625 12.955 16.312 12.9614C18.9632 12.9789 21.7869 12.9813 24.7832 12.9685C24.7942 12.9685 24.805 12.9707 24.8152 12.9749C24.8253 12.9791 24.8345 12.9852 24.8423 12.993C24.85 13.0007 24.8562 13.0099 24.8604 13.0201C24.8646 13.0302 24.8667 13.041 24.8667 13.052V14.2549C24.8667 14.305 24.8417 14.33 24.7916 14.33C21.6601 14.334 18.632 14.3324 15.7072 14.3253C15.2556 14.3237 14.9061 14.369 14.6588 14.4612Z" fill="#4F4D3F"/>
</svg>
