<svg width="314" height="282" viewBox="0 0 314 282" fill="none" xmlns="http://www.w3.org/2000/svg">
<path d="M257.934 63.9342C254.55 63.9342 252.15 62.7102 250.734 60.2622C249.342 57.8142 248.646 54.6102 248.646 50.6502C248.646 46.6422 249.342 43.4262 250.734 41.0022C252.15 38.5782 254.55 37.3662 257.934 37.3662C261.318 37.3662 263.718 38.5902 265.134 41.0382C266.55 43.4862 267.258 46.6902 267.258 50.6502C267.258 54.6342 266.55 57.8502 265.134 60.2982C263.718 62.7222 261.318 63.9342 257.934 63.9342ZM257.934 60.9822C259.542 60.9822 260.766 60.5142 261.606 59.5782C262.47 58.6422 263.046 57.4422 263.334 55.9782C263.622 54.4902 263.766 52.7142 263.766 50.6502C263.766 48.5622 263.61 46.7742 263.298 45.2862C263.01 43.7982 262.434 42.5982 261.57 41.6862C260.73 40.7742 259.518 40.3182 257.934 40.3182C256.35 40.3182 255.126 40.7862 254.262 41.7222C253.422 42.6342 252.858 43.8342 252.57 45.3222C252.282 46.8102 252.138 48.5862 252.138 50.6502C252.138 52.7382 252.282 54.5262 252.57 56.0142C252.882 57.5022 253.458 58.7022 254.298 59.6142C255.138 60.5262 256.35 60.9822 257.934 60.9822Z" fill="#B2937E"/>
<path d="M61.6296 24.6754C63.8902 17.0153 66.0907 9.52782 68.2312 2.21278C68.4113 1.59346 67.9101 0.847831 67.2328 1.02711C67.0135 1.08415 66.7968 1.14934 66.5828 1.22268C62.6881 2.53195 58.4776 3.94443 53.9512 5.46014C53.4579 5.62583 53.253 5.97488 53.3365 6.50727C53.3469 6.58061 53.3704 6.64717 53.407 6.70693C53.6471 7.11166 53.9839 7.24068 54.4172 7.094L65.9132 3.24362C65.9352 3.23564 65.9589 3.2342 65.9817 3.23946C66.0044 3.24473 66.9947 2.54481 67.0114 2.56174C67.028 2.57866 66.0704 3.31177 66.0761 3.3353C66.0817 3.35883 66.0809 3.38352 66.0738 3.4066C63.9724 10.651 61.7836 18.1372 59.5074 25.8651C59.4108 26.1911 59.4317 26.4858 59.57 26.7493C59.6527 26.9056 59.7849 27.0273 59.9442 27.0934C60.1034 27.1595 60.2798 27.1661 60.4432 27.1119L74.081 22.5403C74.5953 22.3692 74.7858 22.0106 74.6527 21.4647C74.637 21.3968 74.6122 21.3343 74.5783 21.2772C74.3512 20.8942 74.0327 20.7706 73.6229 20.9065L61.8058 24.8587C61.7813 24.8666 61.7552 24.8673 61.7304 24.8609C61.7055 24.8545 61.0262 25.486 61.0081 25.4672C60.99 25.4483 61.6337 24.7797 61.6275 24.7539C61.6214 24.728 61.6221 24.7008 61.6296 24.6754Z" stroke="#B2937E" stroke-width="2"/>
<path d="M254.92 80.1413C262.851 80.9236 269.771 78.7927 275.681 73.7485C287.744 63.4604 289.346 44.726 279.087 32.3926C266.025 16.6936 241.956 19.9247 233.025 38.5206C232.973 38.6292 232.889 38.6835 232.774 38.6835H208.22C208.074 38.6835 207.987 38.6088 207.961 38.4595C206.595 30.995 204.433 23.881 200.498 17.7326C195.53 9.97481 187.499 4.55576 178.454 7.08601C174.245 8.25946 171.061 10.969 168.152 14.2082C168.042 14.3304 167.935 14.3291 167.831 14.2041C164.534 10.2315 160.063 7.24492 155.059 6.58485C146.104 5.40733 138.919 11.6942 134.686 19.338C131.736 24.6674 129.679 31.048 128.515 38.4798C128.497 38.6075 128.425 38.6727 128.3 38.6754C123.484 38.6917 118.558 38.6903 113.522 38.6713C112.841 38.6686 112.195 38.7868 111.584 39.0258C106.189 41.1337 100.623 43.3081 94.8884 45.549C94.7721 45.5937 94.6448 45.5952 94.5282 45.5531L78.0947 39.7511C77.9694 39.7076 77.8571 39.7293 77.7579 39.8162C76.9017 40.5578 76.4736 41.5221 76.4736 42.7091C76.4919 99.3633 76.4906 157.162 76.4697 216.106C76.4697 217.777 77.0962 219.285 78.5489 220.112C79.1362 220.446 80.2574 220.611 81.9123 220.609C83.7944 220.606 85.6608 220.609 87.5115 220.617" stroke="#4F4D3F" stroke-width="2"/>
<path d="M254.92 80.1412C251.294 79.6985 247.899 78.578 244.735 76.7798C244.72 76.7714 244.703 76.7673 244.685 76.7679C244.668 76.7685 244.651 76.7737 244.636 76.7831C244.621 76.7925 244.608 76.8058 244.6 76.8216C244.591 76.8374 244.587 76.8553 244.587 76.8735C244.587 123.217 244.585 169.704 244.583 216.335C244.583 218.154 243.937 219.4 242.644 220.071C241.963 220.427 240.786 220.603 239.113 220.601C188.6 220.527 138.066 220.533 87.5107 220.617" stroke="#4F4D3F" stroke-width="2"/>
<path d="M87.3269 21.3182L82.7301 37.0334C82.7115 37.0963 82.7058 37.1627 82.7132 37.2286C82.7206 37.2945 82.741 37.3584 82.7731 37.4164C82.9219 37.6853 83.1099 37.7845 83.337 37.7139C86.7722 36.6246 90.0247 35.5422 93.0945 34.4665C93.4391 34.347 93.5161 34.1256 93.3255 33.8024L93.2159 33.6149C93.0801 33.3868 92.8896 33.3134 92.6442 33.3949L84.4216 36.1411C84.2754 36.19 84.2245 36.1384 84.2689 35.9863L88.854 20.3933C88.8864 20.2838 88.8893 20.1671 88.8625 20.0559C88.8356 19.9448 88.7801 19.8434 88.7018 19.7628C88.6235 19.6822 88.5255 19.6254 88.4185 19.5986C88.3114 19.5719 88.1993 19.5762 88.0944 19.611L78.8458 22.6994C78.7324 22.7369 78.6356 22.8155 78.5731 22.9209C78.5106 23.0263 78.4865 23.1516 78.5052 23.2739L78.5326 23.4451C78.5439 23.5166 78.5699 23.5848 78.6088 23.645C78.6478 23.7052 78.6987 23.7559 78.7581 23.7938C78.8175 23.8317 78.8841 23.8558 78.9533 23.8645C79.0225 23.8733 79.0927 23.8664 79.1591 23.8444L87.1742 21.1634C87.3204 21.1145 87.3713 21.1661 87.3269 21.3182Z" stroke="#B2937E" stroke-width="2"/>
<path d="M17.2318 76.632C17.2496 76.5639 17.2543 76.4927 17.2457 76.4227C17.2371 76.3526 17.2153 76.285 17.1815 76.2237C17.1478 76.1624 17.1028 76.1086 17.0491 76.0655C16.9954 76.0223 16.934 75.9905 16.8685 75.972L16.7249 75.9314C16.5927 75.894 16.4515 75.9128 16.3326 75.9837C16.2136 76.0546 16.1266 76.1718 16.0907 76.3094L14.4419 82.6241C14.4241 82.6923 14.4194 82.7634 14.428 82.8335C14.4366 82.9035 14.4584 82.9711 14.4922 83.0324C14.5259 83.0937 14.5709 83.1475 14.6246 83.1907C14.6783 83.2339 14.7397 83.2656 14.8052 83.2841L14.9488 83.3247C15.0811 83.3621 15.2222 83.3433 15.3411 83.2724C15.4601 83.2015 15.5471 83.0844 15.583 82.9467L17.2318 76.632Z" stroke="#B2937E" stroke-width="2"/>
<path d="M51.546 87.1858C51.546 85.861 51.2952 84.5491 50.808 83.3251C50.3208 82.1012 49.6067 80.989 48.7064 80.0522C47.8062 79.1154 46.7374 78.3723 45.5612 77.8653C44.385 77.3584 43.1243 77.0974 41.8511 77.0974C40.578 77.0974 39.3173 77.3584 38.1411 77.8653C36.9648 78.3723 35.8961 79.1154 34.9958 80.0522C34.0956 80.989 33.3814 82.1012 32.8942 83.3251C32.407 84.5491 32.1562 85.861 32.1562 87.1858C32.1562 89.8614 33.1777 92.4274 34.9958 94.3194C36.814 96.2113 39.2799 97.2742 41.8511 97.2742C44.4224 97.2742 46.8883 96.2113 48.7064 94.3194C50.5246 92.4274 51.546 89.8614 51.546 87.1858Z" stroke="#CAB9A5" stroke-width="2"/>
<path d="M10.5212 85.2736C10.5702 85.2137 10.6073 85.1444 10.6306 85.0695C10.6538 84.9947 10.6627 84.9158 10.6566 84.8374C10.6505 84.759 10.6297 84.6826 10.5953 84.6126C10.5608 84.5426 10.5135 84.4803 10.4559 84.4293L5.21387 79.7869C5.15631 79.7359 5.08966 79.6972 5.01773 79.673C4.9458 79.6489 4.87 79.6397 4.79466 79.646C4.71932 79.6523 4.64591 79.674 4.57862 79.7098C4.51133 79.7456 4.45148 79.7949 4.40249 79.8548L4.38726 79.8734C4.33827 79.9333 4.3011 80.0027 4.27787 80.0775C4.25463 80.1524 4.24579 80.2312 4.25185 80.3096C4.25791 80.388 4.27876 80.4644 4.31319 80.5345C4.34762 80.6045 4.39497 80.6668 4.45253 80.7177L9.69458 85.3602C9.75214 85.4112 9.81879 85.4498 9.89072 85.474C9.96265 85.4982 10.0384 85.5074 10.1138 85.5011C10.1891 85.4948 10.2625 85.4731 10.3298 85.4373C10.3971 85.4014 10.457 85.3522 10.506 85.2923L10.5212 85.2736Z" stroke="#B2937E" stroke-width="2"/>
<path d="M22.3805 90.8529C22.3805 89.8533 21.9989 88.8947 21.3196 88.1879C20.6404 87.4811 19.7192 87.084 18.7586 87.084C17.798 87.084 16.8768 87.4811 16.1975 88.1879C15.5183 88.8947 15.1367 89.8533 15.1367 90.8529C15.1367 91.8524 15.5183 92.8111 16.1975 93.5179C16.8768 94.2247 17.798 94.6218 18.7586 94.6218C19.7192 94.6218 20.6404 94.2247 21.3196 93.5179C21.9989 92.8111 22.3805 91.8524 22.3805 90.8529Z" stroke="#CAB9A5" stroke-width="2"/>
<path d="M8.67555 92.4102C8.67225 92.3316 8.65411 92.2545 8.62217 92.1832C8.59022 92.1119 8.5451 92.0479 8.48936 91.9947C8.43363 91.9416 8.36839 91.9004 8.29736 91.8735C8.22632 91.8466 8.15089 91.8345 8.07537 91.838L1.55048 92.1344C1.39797 92.1414 1.25436 92.211 1.15122 92.3282C1.04809 92.4453 0.993892 92.6002 1.00055 92.7589L1.00156 92.7834C1.00486 92.862 1.023 92.9391 1.05495 93.0104C1.08689 93.0817 1.13202 93.1457 1.18775 93.1988C1.24348 93.252 1.30873 93.2932 1.37976 93.3201C1.45079 93.347 1.52622 93.3591 1.60174 93.3556L8.12663 93.0592C8.27914 93.0522 8.42276 92.9826 8.52589 92.8654C8.62903 92.7483 8.68322 92.5934 8.67657 92.4347L8.67555 92.4102Z" stroke="#B2937E" stroke-width="2"/>
<path d="M27.7277 107.069C27.7277 106.208 27.3989 105.382 26.8137 104.773C26.2284 104.164 25.4347 103.822 24.607 103.822C23.7794 103.822 22.9856 104.164 22.4004 104.773C21.8151 105.382 21.4863 106.208 21.4863 107.069C21.4863 107.93 21.8151 108.756 22.4004 109.365C22.9856 109.974 23.7794 110.316 24.607 110.316C25.4347 110.316 26.2284 109.974 26.8137 109.365C27.3989 108.756 27.7277 107.93 27.7277 107.069Z" stroke="#CAB9A5" stroke-width="2"/>
<path d="M292.325 235.521C292.325 232.481 291.164 229.566 289.099 227.417C287.033 225.267 284.231 224.06 281.31 224.06C278.389 224.06 275.588 225.267 273.522 227.417C271.456 229.566 270.296 232.481 270.296 235.521C270.296 238.561 271.456 241.476 273.522 243.626C275.588 245.775 278.389 246.983 281.31 246.983C284.231 246.983 287.033 245.775 289.099 243.626C291.164 241.476 292.325 238.561 292.325 235.521Z" stroke="#CAB9A5" stroke-width="2"/>
<path d="M312.972 263.436C313.018 263.292 313.007 263.134 312.942 262.998C312.876 262.862 312.761 262.758 312.622 262.71L296.23 257.036C296.091 256.988 295.939 256.999 295.809 257.067C295.678 257.135 295.578 257.255 295.532 257.399L295.51 257.469C295.463 257.614 295.474 257.771 295.54 257.908C295.605 258.044 295.72 258.147 295.859 258.196L312.251 263.87C312.39 263.918 312.542 263.907 312.673 263.838C312.804 263.77 312.903 263.651 312.95 263.506L312.972 263.436Z" stroke="#B2937E" stroke-width="2"/>
<path d="M270.433 263.158C270.433 261.692 269.874 260.285 268.877 259.249C267.881 258.212 266.529 257.629 265.12 257.629C263.711 257.629 262.359 258.212 261.363 259.249C260.366 260.285 259.807 261.692 259.807 263.158C259.807 264.625 260.366 266.031 261.363 267.068C262.359 268.105 263.711 268.687 265.12 268.687C266.529 268.687 267.881 268.105 268.877 267.068C269.874 266.031 270.433 264.625 270.433 263.158Z" stroke="#CAB9A5" stroke-width="2"/>
<path d="M296.64 267.333C296.691 267.276 296.731 267.21 296.757 267.137C296.784 267.065 296.796 266.987 296.794 266.91C296.791 266.832 296.774 266.756 296.744 266.685C296.713 266.615 296.669 266.551 296.615 266.498L292.71 262.682C292.656 262.629 292.592 262.588 292.522 262.56C292.453 262.533 292.378 262.52 292.304 262.522C292.229 262.525 292.156 262.542 292.088 262.574C292.02 262.606 291.959 262.652 291.908 262.708L291.886 262.732C291.835 262.789 291.795 262.855 291.769 262.928C291.743 263 291.73 263.078 291.733 263.155C291.735 263.233 291.752 263.309 291.783 263.38C291.813 263.45 291.857 263.514 291.912 263.567L295.816 267.383C295.871 267.436 295.934 267.477 296.004 267.505C296.074 267.532 296.148 267.545 296.223 267.543C296.297 267.54 296.371 267.523 296.438 267.491C296.506 267.459 296.568 267.413 296.619 267.357L296.64 267.333Z" stroke="#B2937E" stroke-width="2"/>
<path d="M287.976 266.237C287.96 266.164 287.93 266.095 287.888 266.034C287.846 265.973 287.793 265.921 287.732 265.882C287.671 265.842 287.603 265.815 287.532 265.803C287.461 265.79 287.389 265.793 287.319 265.81L287.242 265.828C287.101 265.862 286.978 265.953 286.901 266.081C286.824 266.21 286.799 266.365 286.831 266.512L289.948 280.558C289.964 280.631 289.994 280.7 290.036 280.761C290.077 280.822 290.13 280.874 290.191 280.913C290.252 280.953 290.32 280.98 290.391 280.992C290.462 281.005 290.535 281.002 290.605 280.985L290.681 280.967C290.823 280.933 290.946 280.842 291.023 280.714C291.1 280.585 291.125 280.43 291.092 280.283L287.976 266.237Z" stroke="#B2937E" stroke-width="2"/>
<path d="M158.523 38.5044C159.729 30.494 162.192 22.5772 166.703 16.164C166.728 16.1277 166.74 16.0843 166.739 16.0407C166.737 15.9972 166.722 15.956 166.695 15.9236C164.209 12.9004 161.073 10.3783 157.4 9.20076C149.349 6.62569 142.243 11.3154 137.795 18.0424C133.863 23.9829 131.569 31.3537 130.52 38.4555C130.499 38.6076 130.561 38.6836 130.708 38.6836H158.32C158.369 38.6834 158.417 38.6653 158.454 38.6324C158.491 38.5995 158.516 38.5542 158.523 38.5044Z" stroke="#4F4D3F" stroke-width="2"/>
<path d="M190.256 10.4348C182.616 6.37665 174.766 9.04543 169.488 15.7683C169.365 15.9259 169.361 16.0861 169.476 16.2491C174.006 22.6216 176.704 30.6809 177.93 38.4876C177.95 38.618 178.024 38.6831 178.149 38.6831H205.855C205.872 38.6828 205.889 38.6787 205.904 38.671C205.919 38.6634 205.933 38.6525 205.943 38.6389C205.954 38.6254 205.962 38.6096 205.966 38.5926C205.971 38.5756 205.972 38.5579 205.969 38.5405C205.12 33.5452 203.786 28.9261 201.967 24.6833C199.5 18.9423 195.495 13.2218 190.256 10.4348Z" stroke="#4F4D3F" stroke-width="2"/>
<path d="M165.02 23.0334C162.848 27.825 161.346 32.9887 160.513 38.5245C160.51 38.5444 160.512 38.5647 160.517 38.584C160.522 38.6033 160.531 38.6211 160.543 38.6362C160.556 38.6513 160.571 38.6634 160.588 38.6715C160.605 38.6797 160.624 38.6838 160.642 38.6834H175.831C175.847 38.6837 175.863 38.6802 175.878 38.6733C175.893 38.6663 175.906 38.656 175.916 38.6432C175.927 38.6303 175.934 38.6152 175.938 38.5989C175.943 38.5826 175.943 38.5656 175.94 38.549C174.805 31.3494 172.358 23.726 168.184 17.8751C168.169 17.8541 168.15 17.8369 168.128 17.8251C168.106 17.8133 168.081 17.8071 168.056 17.8071C168.032 17.8071 168.007 17.8133 167.985 17.8251C167.963 17.8369 167.944 17.8541 167.929 17.8751C166.828 19.4641 165.858 21.1836 165.02 23.0334Z" stroke="#4F4D3F" stroke-width="2"/>
<path d="M283.919 51.3266C283.919 44.1804 281.191 37.327 276.335 32.2739C271.479 27.2209 264.893 24.3821 258.025 24.3821C254.625 24.3821 251.258 25.079 248.116 26.4331C244.975 27.7872 242.12 29.7719 239.716 32.2739C237.311 34.776 235.404 37.7463 234.103 41.0154C232.802 44.2844 232.132 47.7882 232.132 51.3266C232.132 54.865 232.802 58.3687 234.103 61.6378C235.404 64.9068 237.311 67.8772 239.716 70.3792C242.12 72.8812 244.975 74.866 248.116 76.22C251.258 77.5741 254.625 78.2711 258.025 78.2711C261.426 78.2711 264.793 77.5741 267.934 76.22C271.076 74.866 273.93 72.8812 276.335 70.3792C278.739 67.8772 280.646 64.9068 281.948 61.6378C283.249 58.3687 283.919 54.865 283.919 51.3266Z" stroke="#4F4D3F" stroke-width="2"/>
<path d="M113.205 51.1963L113.209 219.199C113.209 219.253 113.23 219.305 113.266 219.343C113.303 219.381 113.353 219.403 113.405 219.403C155.638 219.424 198.059 219.419 240.668 219.386C242.179 219.382 243.424 218.03 243.42 216.465C243.415 169.639 243.414 122.903 243.416 76.2584C243.416 76.1762 243.397 76.0953 243.359 76.0234C243.321 75.9515 243.267 75.8907 243.201 75.8468C234.058 69.8899 229.211 59.1415 230.358 47.9978" stroke="#7A7A7A" stroke-width="2"/>
<path d="M230.358 47.9974C230.676 45.273 231.326 42.6381 232.308 40.0929C232.357 39.968 232.317 39.9055 232.186 39.9055H208.423C208.287 39.9055 208.226 39.9761 208.239 40.1174L209.018 48.0219" stroke="#B2937E" stroke-width="2"/>
<path d="M209.019 48.0222L209.101 49.5256C209.111 49.6777 209.187 49.7742 209.328 49.8149C210.693 50.2197 211.663 51.1188 212.237 52.5122C213.776 56.2444 209.974 59.9563 206.544 58.4161C205.098 57.7669 204.246 56.7442 203.987 55.3481C203.491 52.6834 204.46 50.8471 206.893 49.8394C207.018 49.7878 207.078 49.6913 207.073 49.5501L207.018 48.0059" stroke="#7A7A7A" stroke-width="2"/>
<path d="M207.017 48.0057L206.191 40.1175C206.178 39.9763 206.102 39.9057 205.964 39.9057C196.747 39.9029 187.589 39.9043 178.492 39.9097C177.811 39.9097 177.369 40.4027 176.676 40.1298C176.305 39.9831 175.917 39.9097 175.513 39.9097C170.493 39.9043 165.493 39.9029 160.512 39.9057C160.363 39.9057 160.281 39.9817 160.266 40.1338L159.498 48.0057" stroke="#B2937E" stroke-width="2"/>
<path d="M159.498 48.0056L159.439 49.5946C159.434 49.7331 159.494 49.8241 159.619 49.8676C162.505 50.8781 163.64 54.2762 161.875 56.8798C159.901 59.7808 155.488 59.2389 154.259 55.8774C153.311 53.2779 154.674 50.5562 157.246 49.8105C157.387 49.7698 157.459 49.6747 157.462 49.5253L157.513 47.9893" stroke="#7A7A7A" stroke-width="2"/>
<path d="M157.513 47.9896L158.249 40.0933C158.263 39.9683 158.208 39.9058 158.085 39.9058H130.57C130.375 39.9058 130.189 39.952 130.014 40.0444C129.274 40.4437 128.613 39.914 127.818 39.9099C123.01 39.9018 118.22 39.9004 113.448 39.9058C113.299 39.9058 113.223 39.9846 113.221 40.1422L113.205 51.1962" stroke="#B2937E" stroke-width="2"/>
<path d="M157.513 47.9893L123.683 48.0015C123.341 48.0015 123.008 48.0544 122.685 48.1604L113.205 51.1959" stroke="#F2F2F2" stroke-width="2"/>
<path d="M207.017 48.0059H159.498" stroke="#F2F2F2" stroke-width="2"/>
<path d="M230.358 47.9978L209.019 48.0213" stroke="#F2F2F2" stroke-width="2"/>
<path d="M95.3038 51.3672C95.2908 99.4487 95.2725 147.476 95.249 195.449C95.249 196.283 95.4996 197.019 96.0008 197.657C101.154 204.255 106.424 211.019 111.812 217.948C111.976 218.16 112.058 218.13 112.058 217.858L112.066 51.6239" stroke="#7A7A7A" stroke-width="2"/>
<path d="M112.066 51.624L112.054 40.3499C112.054 40.2222 111.997 40.1801 111.882 40.2236L95.5661 46.5838C95.4381 46.6327 95.3729 46.7278 95.3703 46.8691L95.3037 51.3673" stroke="#B2937E" stroke-width="2"/>
<path d="M112.066 51.6239L104.45 54.1338C104.328 54.1745 104.205 54.1745 104.082 54.1338L95.3037 51.3672" stroke="#F2F2F2" stroke-width="2"/>
<path d="M87.6162 205.276C89.48 202.913 91.1793 200.694 92.7142 198.619C93.8106 197.136 94.1552 196.887 94.1552 195.143C94.1708 146.948 94.1669 98.8241 94.1434 50.7725" stroke="#7A7A7A" stroke-width="2"/>
<path d="M94.1447 50.7724L94.1291 46.8853C94.1291 46.7658 94.0756 46.687 93.9685 46.649L78.4004 41.1485C78.3345 41.1247 78.2626 41.1265 78.1979 41.1534C78.1331 41.1803 78.0799 41.2307 78.048 41.2951C77.7765 41.852 77.6394 42.4115 77.6368 42.9738C77.5977 100.761 77.599 158.611 77.6407 216.526C77.6407 216.938 77.8169 217.357 77.9187 217.752C77.9265 217.781 77.9418 217.808 77.963 217.828C77.9843 217.849 78.0105 217.863 78.0389 217.869C78.0673 217.875 78.0967 217.872 78.1239 217.862C78.1511 217.851 78.1749 217.833 78.1928 217.809L87.6175 205.276" stroke="#B2937E" stroke-width="2"/>
<path d="M94.1442 50.7723L88.7838 49.1833C88.6102 49.1316 88.4244 49.1489 88.2628 49.2318C88.1013 49.3147 87.9757 49.4573 87.9106 49.6315C87.5661 50.5414 87.3938 51.4419 87.3938 52.3329C87.3859 96.7636 87.3846 141.193 87.3898 185.621C87.3898 194.677 87.4656 201.229 87.617 205.276" stroke="#F2F2F2" stroke-width="2"/>
<path d="M87.3934 207.656L79.0338 218.698C79.0153 218.723 79.0024 218.752 78.996 218.783C78.9895 218.814 78.9896 218.846 78.9964 218.877C79.0031 218.908 79.0163 218.937 79.0349 218.961C79.0536 218.986 79.0772 219.006 79.1042 219.019C79.5297 219.245 79.9878 219.36 80.4786 219.366C82.8227 219.39 85.1276 219.393 87.3934 219.374" stroke="#B2937E" stroke-width="2"/>
<path d="M87.3936 219.374L111.165 219.349C111.319 219.349 111.348 219.288 111.251 219.166L94.8527 198.097C94.838 198.077 94.8192 198.061 94.7975 198.051C94.7759 198.04 94.7521 198.035 94.7279 198.035C94.7037 198.035 94.6798 198.041 94.658 198.053C94.6362 198.064 94.6171 198.081 94.6021 198.101L87.3936 207.656" stroke="#7A7A7A" stroke-width="2"/>
<path d="M87.3936 219.374V207.656" stroke="#F2F2F2" stroke-width="2"/>
<path d="M147.643 128.285C144.755 127.041 142.05 125.153 139.526 122.621C138.891 121.986 138.214 121.932 137.493 122.458C137.35 122.562 137.245 122.695 137.18 122.858C136.917 123.502 137.025 124.068 137.505 124.557C139.956 127.048 142.58 128.983 145.375 130.363C155.106 135.159 164.491 131.296 172.447 124.524C172.588 124.405 172.699 124.252 172.771 124.078C172.843 123.904 172.875 123.715 172.862 123.526C172.836 123.102 172.716 122.778 172.502 122.552C171.891 121.908 171.248 121.87 170.572 122.438C163.923 128.036 155.9 131.838 147.643 128.285Z" stroke="#7A7A7A" stroke-width="2"/>
<path d="M202.033 130.661C211.379 135.053 221.07 131.007 228.337 124.598C228.875 124.122 229.004 123.549 228.725 122.878C228.673 122.756 228.602 122.649 228.513 122.556C227.887 121.907 227.232 121.873 226.548 122.455C222.807 125.641 219.115 127.784 215.471 128.884C207.749 131.219 201.297 128.13 195.568 122.675C194.921 122.061 194.226 121.994 193.485 122.475C193.378 122.548 193.297 122.642 193.242 122.756C192.932 123.433 193.005 124.008 193.462 124.484C195.965 127.091 198.822 129.15 202.033 130.661Z" stroke="#7A7A7A" stroke-width="2"/>
<path d="M190.267 174.95C190.267 173.365 189.661 171.844 188.584 170.723C187.507 169.602 186.046 168.973 184.522 168.973C183.768 168.973 183.021 169.127 182.324 169.428C181.627 169.728 180.994 170.168 180.461 170.723C179.927 171.278 179.504 171.937 179.216 172.663C178.927 173.388 178.778 174.165 178.778 174.95C178.778 175.735 178.927 176.512 179.216 177.237C179.504 177.962 179.927 178.621 180.461 179.176C180.994 179.731 181.627 180.172 182.324 180.472C183.021 180.773 183.768 180.927 184.522 180.927C186.046 180.927 187.507 180.297 188.584 179.176C189.661 178.055 190.267 176.535 190.267 174.95Z" stroke="#7A7A7A" stroke-width="2"/>
<mask id="path-42-inside-1_750_3020" fill="white">
<path d="M254.92 80.1411C251.295 79.6983 247.9 78.5778 244.736 76.7796C244.721 76.7712 244.703 76.7671 244.686 76.7677C244.668 76.7683 244.651 76.7736 244.636 76.783C244.621 76.7924 244.609 76.8056 244.601 76.8215C244.592 76.8373 244.587 76.8552 244.587 76.8733C244.587 123.216 244.586 169.703 244.583 216.334C244.583 218.154 243.937 219.4 242.645 220.071C241.964 220.427 240.787 220.603 239.113 220.6C188.6 220.527 138.066 220.532 87.5115 220.617C85.6608 220.609 83.7944 220.606 81.9123 220.609C80.2574 220.611 79.1362 220.446 78.5489 220.111C77.0962 219.284 76.4697 217.777 76.4697 216.106C76.4906 157.162 76.4919 99.3631 76.4736 42.7089C76.4736 41.5219 76.9017 40.5576 77.7579 39.816C77.8571 39.7291 77.9694 39.7074 78.0947 39.7508L94.5282 45.5529C94.6448 45.5949 94.7721 45.5935 94.8884 45.5488C100.623 43.3078 106.189 41.1334 111.584 39.0256C112.195 38.7865 112.841 38.6684 113.522 38.6711C118.558 38.6901 123.484 38.6915 128.3 38.6752C128.425 38.6724 128.497 38.6072 128.515 38.4796C129.679 31.0477 131.736 24.6671 134.686 19.3377C138.919 11.694 146.104 5.40708 155.059 6.58461C160.063 7.24467 164.534 10.2313 167.831 14.2039C167.935 14.3288 168.042 14.3302 168.152 14.2079C171.061 10.9687 174.245 8.25921 178.454 7.08577C187.499 4.55552 195.53 9.97457 200.498 17.7324C204.433 23.8807 206.595 30.9948 207.961 38.4592C207.987 38.6086 208.074 38.6833 208.22 38.6833H232.774C232.889 38.6833 232.973 38.629 233.025 38.5203C241.956 19.9244 266.025 16.6934 279.087 32.3923C289.346 44.7257 287.744 63.4602 275.681 73.7482C269.771 78.7924 262.851 80.9234 254.92 80.1411ZM158.524 38.504C159.73 30.4936 162.193 22.5769 166.703 16.1637C166.728 16.1273 166.74 16.0839 166.739 16.0404C166.738 15.9968 166.722 15.9556 166.695 15.9233C164.209 12.9 161.073 10.3779 157.4 9.20042C149.35 6.62535 142.243 11.3151 137.795 18.042C133.864 23.9826 131.569 31.3533 130.52 38.4551C130.499 38.6073 130.562 38.6833 130.708 38.6833H158.32C158.369 38.6831 158.417 38.6649 158.454 38.6321C158.492 38.5992 158.516 38.5538 158.524 38.504ZM190.255 10.435C182.616 6.37681 174.765 9.04559 169.487 15.7685C169.365 15.926 169.361 16.0863 169.476 16.2493C174.006 22.6217 176.704 30.681 177.929 38.4877C177.95 38.6181 178.023 38.6833 178.148 38.6833H205.855C205.872 38.683 205.888 38.6788 205.904 38.6712C205.919 38.6636 205.932 38.6526 205.943 38.6391C205.954 38.6255 205.962 38.6097 205.966 38.5928C205.97 38.5758 205.971 38.558 205.968 38.5407C205.12 33.5454 203.786 28.9263 201.967 24.6834C199.5 18.9425 195.494 13.2219 190.255 10.435ZM165.02 23.0333C162.848 27.8248 161.346 32.9886 160.513 38.5244C160.51 38.5443 160.511 38.5646 160.516 38.5839C160.522 38.6031 160.531 38.621 160.543 38.6361C160.555 38.6512 160.571 38.6633 160.588 38.6714C160.605 38.6796 160.623 38.6836 160.642 38.6833H175.83C175.847 38.6836 175.863 38.6801 175.877 38.6731C175.892 38.6662 175.905 38.6559 175.916 38.643C175.926 38.6302 175.934 38.6151 175.938 38.5988C175.942 38.5825 175.943 38.5654 175.94 38.5488C174.805 31.3493 172.357 23.7259 168.183 17.875C168.169 17.8539 168.15 17.8368 168.128 17.825C168.106 17.8132 168.081 17.807 168.056 17.807C168.031 17.807 168.007 17.8132 167.985 17.825C167.963 17.8368 167.943 17.8539 167.929 17.875C166.827 19.464 165.858 21.1834 165.02 23.0333ZM283.919 51.3264C283.919 44.1803 281.191 37.3268 276.335 32.2738C271.479 27.2207 264.893 24.3819 258.025 24.3819C254.625 24.3819 251.258 25.0788 248.116 26.4329C244.975 27.787 242.12 29.7717 239.716 32.2738C237.312 34.7758 235.404 37.7461 234.103 41.0152C232.802 44.2842 232.132 47.788 232.132 51.3264C232.132 54.8648 232.802 58.3685 234.103 61.6376C235.404 64.9067 237.312 67.877 239.716 70.379C242.12 72.8811 244.975 74.8658 248.116 76.2199C251.258 77.5739 254.625 78.2709 258.025 78.2709C261.426 78.2709 264.793 77.5739 267.934 76.2199C271.076 74.8658 273.93 72.8811 276.335 70.379C278.739 67.877 280.647 64.9067 281.948 61.6376C283.249 58.3685 283.919 54.8648 283.919 51.3264ZM113.205 51.196L113.209 219.199C113.209 219.253 113.23 219.305 113.267 219.343C113.303 219.381 113.353 219.402 113.405 219.402C155.638 219.424 198.059 219.419 240.668 219.386C242.179 219.382 243.424 218.029 243.421 216.465C243.415 169.638 243.414 122.903 243.417 76.2581C243.417 76.1759 243.397 76.0951 243.359 76.0232C243.322 75.9512 243.267 75.8905 243.201 75.8466C234.058 69.8897 229.211 59.1412 230.358 47.9976C230.677 45.2731 231.327 42.6383 232.308 40.0931C232.358 39.9681 232.317 39.9056 232.187 39.9056H208.423C208.288 39.9056 208.226 39.9763 208.239 40.1175L209.019 48.022L209.101 49.5255C209.111 49.6776 209.187 49.774 209.328 49.8148C210.693 50.2195 211.663 51.1186 212.237 52.5121C213.776 56.2443 209.974 59.9561 206.544 58.416C205.098 57.7668 204.246 56.7441 203.987 55.3479C203.491 52.6832 204.46 50.847 206.892 49.8392C207.018 49.7876 207.078 49.6912 207.073 49.5499L207.018 48.0057L206.192 40.1175C206.178 39.9763 206.103 39.9056 205.964 39.9056C196.747 39.9029 187.59 39.9043 178.493 39.9097C178.493 39.9097 175.918 39.9097 175.513 39.9097C170.494 39.9043 165.493 39.9029 160.513 39.9056C160.364 39.9056 160.282 39.9817 160.266 40.1338L159.499 48.0057L159.44 49.5947C159.435 49.7333 159.495 49.8243 159.62 49.8677C162.506 50.8782 163.641 54.2763 161.875 56.8799C159.902 59.7809 155.489 59.239 154.26 55.8776C153.312 53.2781 154.675 50.5563 157.247 49.8107C157.388 49.7699 157.46 49.6749 157.463 49.5255L157.514 47.9894L158.25 40.0931C158.263 39.9681 158.208 39.9056 158.085 39.9056H130.571C130.571 39.9056 128.613 39.9138 127.818 39.9097C123.01 39.9016 118.22 39.9002 113.448 39.9056C113.299 39.9056 113.224 39.9844 113.221 40.142L113.205 51.196ZM95.3035 51.3671C95.2904 99.4486 95.2721 147.476 95.2486 195.449C95.2486 196.283 95.4993 197.019 96.0004 197.657C101.153 204.255 106.424 211.019 111.811 217.948C111.976 218.16 112.058 218.13 112.058 217.858L112.066 51.6238L112.054 40.3498C112.054 40.2221 111.997 40.18 111.882 40.2235L95.5658 46.5837C95.4379 46.6326 95.3726 46.7277 95.37 46.8689L95.3035 51.3671ZM87.6173 205.276C89.4811 202.913 91.1804 200.694 92.7153 198.619C93.8116 197.135 94.1562 196.887 94.1562 195.143C94.1719 146.947 94.168 98.8239 94.1445 50.7723L94.1288 46.8852C94.1288 46.7657 94.0753 46.6869 93.9683 46.6489L78.4001 41.1484C78.3342 41.1246 78.2623 41.1264 78.1976 41.1533C78.1329 41.1802 78.0796 41.2306 78.0477 41.295C77.7762 41.8519 77.6392 42.4114 77.6365 42.9737C77.5974 100.761 77.5987 158.611 77.6405 216.526C77.6405 216.937 77.8167 217.357 77.9185 217.752C77.9262 217.781 77.9416 217.808 77.9628 217.828C77.984 217.849 78.0103 217.863 78.0387 217.869C78.0671 217.874 78.0965 217.872 78.1237 217.862C78.1508 217.851 78.1747 217.833 78.1926 217.809L87.6173 205.276ZM87.3941 207.656L79.0344 218.698C79.016 218.723 79.0031 218.752 78.9966 218.783C78.9901 218.814 78.9903 218.846 78.997 218.877C79.0037 218.908 79.0169 218.937 79.0356 218.961C79.0542 218.986 79.0779 219.006 79.1049 219.019C79.5304 219.245 79.9885 219.36 80.4792 219.366C82.8233 219.39 85.1283 219.393 87.3941 219.374L111.165 219.349C111.319 219.349 111.348 219.288 111.251 219.166L94.8532 198.097C94.8385 198.077 94.8197 198.062 94.7981 198.051C94.7764 198.04 94.7526 198.035 94.7284 198.035C94.7043 198.036 94.6803 198.042 94.6585 198.053C94.6367 198.065 94.6176 198.081 94.6026 198.101L87.3941 207.656Z"/>
</mask>
<path d="M254.92 80.1411C251.295 79.6983 247.9 78.5778 244.736 76.7796C244.721 76.7712 244.703 76.7671 244.686 76.7677C244.668 76.7683 244.651 76.7736 244.636 76.783C244.621 76.7924 244.609 76.8056 244.601 76.8215C244.592 76.8373 244.587 76.8552 244.587 76.8733C244.587 123.216 244.586 169.703 244.583 216.334C244.583 218.154 243.937 219.4 242.645 220.071C241.964 220.427 240.787 220.603 239.113 220.6C188.6 220.527 138.066 220.532 87.5115 220.617C85.6608 220.609 83.7944 220.606 81.9123 220.609C80.2574 220.611 79.1362 220.446 78.5489 220.111C77.0962 219.284 76.4697 217.777 76.4697 216.106C76.4906 157.162 76.4919 99.3631 76.4736 42.7089C76.4736 41.5219 76.9017 40.5576 77.7579 39.816C77.8571 39.7291 77.9694 39.7074 78.0947 39.7508L94.5282 45.5529C94.6448 45.5949 94.7721 45.5935 94.8884 45.5488C100.623 43.3078 106.189 41.1334 111.584 39.0256C112.195 38.7865 112.841 38.6684 113.522 38.6711C118.558 38.6901 123.484 38.6915 128.3 38.6752C128.425 38.6724 128.497 38.6072 128.515 38.4796C129.679 31.0477 131.736 24.6671 134.686 19.3377C138.919 11.694 146.104 5.40708 155.059 6.58461C160.063 7.24467 164.534 10.2313 167.831 14.2039C167.935 14.3288 168.042 14.3302 168.152 14.2079C171.061 10.9687 174.245 8.25921 178.454 7.08577C187.499 4.55552 195.53 9.97457 200.498 17.7324C204.433 23.8807 206.595 30.9948 207.961 38.4592C207.987 38.6086 208.074 38.6833 208.22 38.6833H232.774C232.889 38.6833 232.973 38.629 233.025 38.5203C241.956 19.9244 266.025 16.6934 279.087 32.3923C289.346 44.7257 287.744 63.4602 275.681 73.7482C269.771 78.7924 262.851 80.9234 254.92 80.1411ZM158.524 38.504C159.73 30.4936 162.193 22.5769 166.703 16.1637C166.728 16.1273 166.74 16.0839 166.739 16.0404C166.738 15.9968 166.722 15.9556 166.695 15.9233C164.209 12.9 161.073 10.3779 157.4 9.20042C149.35 6.62535 142.243 11.3151 137.795 18.042C133.864 23.9826 131.569 31.3533 130.52 38.4551C130.499 38.6073 130.562 38.6833 130.708 38.6833H158.32C158.369 38.6831 158.417 38.6649 158.454 38.6321C158.492 38.5992 158.516 38.5538 158.524 38.504ZM190.255 10.435C182.616 6.37681 174.765 9.04559 169.487 15.7685C169.365 15.926 169.361 16.0863 169.476 16.2493C174.006 22.6217 176.704 30.681 177.929 38.4877C177.95 38.6181 178.023 38.6833 178.148 38.6833H205.855C205.872 38.683 205.888 38.6788 205.904 38.6712C205.919 38.6636 205.932 38.6526 205.943 38.6391C205.954 38.6255 205.962 38.6097 205.966 38.5928C205.97 38.5758 205.971 38.558 205.968 38.5407C205.12 33.5454 203.786 28.9263 201.967 24.6834C199.5 18.9425 195.494 13.2219 190.255 10.435ZM165.02 23.0333C162.848 27.8248 161.346 32.9886 160.513 38.5244C160.51 38.5443 160.511 38.5646 160.516 38.5839C160.522 38.6031 160.531 38.621 160.543 38.6361C160.555 38.6512 160.571 38.6633 160.588 38.6714C160.605 38.6796 160.623 38.6836 160.642 38.6833H175.83C175.847 38.6836 175.863 38.6801 175.877 38.6731C175.892 38.6662 175.905 38.6559 175.916 38.643C175.926 38.6302 175.934 38.6151 175.938 38.5988C175.942 38.5825 175.943 38.5654 175.94 38.5488C174.805 31.3493 172.357 23.7259 168.183 17.875C168.169 17.8539 168.15 17.8368 168.128 17.825C168.106 17.8132 168.081 17.807 168.056 17.807C168.031 17.807 168.007 17.8132 167.985 17.825C167.963 17.8368 167.943 17.8539 167.929 17.875C166.827 19.464 165.858 21.1834 165.02 23.0333ZM283.919 51.3264C283.919 44.1803 281.191 37.3268 276.335 32.2738C271.479 27.2207 264.893 24.3819 258.025 24.3819C254.625 24.3819 251.258 25.0788 248.116 26.4329C244.975 27.787 242.12 29.7717 239.716 32.2738C237.312 34.7758 235.404 37.7461 234.103 41.0152C232.802 44.2842 232.132 47.788 232.132 51.3264C232.132 54.8648 232.802 58.3685 234.103 61.6376C235.404 64.9067 237.312 67.877 239.716 70.379C242.12 72.8811 244.975 74.8658 248.116 76.2199C251.258 77.5739 254.625 78.2709 258.025 78.2709C261.426 78.2709 264.793 77.5739 267.934 76.2199C271.076 74.8658 273.93 72.8811 276.335 70.379C278.739 67.877 280.647 64.9067 281.948 61.6376C283.249 58.3685 283.919 54.8648 283.919 51.3264ZM113.205 51.196L113.209 219.199C113.209 219.253 113.23 219.305 113.267 219.343C113.303 219.381 113.353 219.402 113.405 219.402C155.638 219.424 198.059 219.419 240.668 219.386C242.179 219.382 243.424 218.029 243.421 216.465C243.415 169.638 243.414 122.903 243.417 76.2581C243.417 76.1759 243.397 76.0951 243.359 76.0232C243.322 75.9512 243.267 75.8905 243.201 75.8466C234.058 69.8897 229.211 59.1412 230.358 47.9976C230.677 45.2731 231.327 42.6383 232.308 40.0931C232.358 39.9681 232.317 39.9056 232.187 39.9056H208.423C208.288 39.9056 208.226 39.9763 208.239 40.1175L209.019 48.022L209.101 49.5255C209.111 49.6776 209.187 49.774 209.328 49.8148C210.693 50.2195 211.663 51.1186 212.237 52.5121C213.776 56.2443 209.974 59.9561 206.544 58.416C205.098 57.7668 204.246 56.7441 203.987 55.3479C203.491 52.6832 204.46 50.847 206.892 49.8392C207.018 49.7876 207.078 49.6912 207.073 49.5499L207.018 48.0057L206.192 40.1175C206.178 39.9763 206.103 39.9056 205.964 39.9056C196.747 39.9029 187.59 39.9043 178.493 39.9097C178.493 39.9097 175.918 39.9097 175.513 39.9097C170.494 39.9043 165.493 39.9029 160.513 39.9056C160.364 39.9056 160.282 39.9817 160.266 40.1338L159.499 48.0057L159.44 49.5947C159.435 49.7333 159.495 49.8243 159.62 49.8677C162.506 50.8782 163.641 54.2763 161.875 56.8799C159.902 59.7809 155.489 59.239 154.26 55.8776C153.312 53.2781 154.675 50.5563 157.247 49.8107C157.388 49.7699 157.46 49.6749 157.463 49.5255L157.514 47.9894L158.25 40.0931C158.263 39.9681 158.208 39.9056 158.085 39.9056H130.571C130.571 39.9056 128.613 39.9138 127.818 39.9097C123.01 39.9016 118.22 39.9002 113.448 39.9056C113.299 39.9056 113.224 39.9844 113.221 40.142L113.205 51.196ZM95.3035 51.3671C95.2904 99.4486 95.2721 147.476 95.2486 195.449C95.2486 196.283 95.4993 197.019 96.0004 197.657C101.153 204.255 106.424 211.019 111.811 217.948C111.976 218.16 112.058 218.13 112.058 217.858L112.066 51.6238L112.054 40.3498C112.054 40.2221 111.997 40.18 111.882 40.2235L95.5658 46.5837C95.4379 46.6326 95.3726 46.7277 95.37 46.8689L95.3035 51.3671ZM87.6173 205.276C89.4811 202.913 91.1804 200.694 92.7153 198.619C93.8116 197.135 94.1562 196.887 94.1562 195.143C94.1719 146.947 94.168 98.8239 94.1445 50.7723L94.1288 46.8852C94.1288 46.7657 94.0753 46.6869 93.9683 46.6489L78.4001 41.1484C78.3342 41.1246 78.2623 41.1264 78.1976 41.1533C78.1329 41.1802 78.0796 41.2306 78.0477 41.295C77.7762 41.8519 77.6392 42.4114 77.6365 42.9737C77.5974 100.761 77.5987 158.611 77.6405 216.526C77.6405 216.937 77.8167 217.357 77.9185 217.752C77.9262 217.781 77.9416 217.808 77.9628 217.828C77.984 217.849 78.0103 217.863 78.0387 217.869C78.0671 217.874 78.0965 217.872 78.1237 217.862C78.1508 217.851 78.1747 217.833 78.1926 217.809L87.6173 205.276ZM87.3941 207.656L79.0344 218.698C79.016 218.723 79.0031 218.752 78.9966 218.783C78.9901 218.814 78.9903 218.846 78.997 218.877C79.0037 218.908 79.0169 218.937 79.0356 218.961C79.0542 218.986 79.0779 219.006 79.1049 219.019C79.5304 219.245 79.9885 219.36 80.4792 219.366C82.8233 219.39 85.1283 219.393 87.3941 219.374L111.165 219.349C111.319 219.349 111.348 219.288 111.251 219.166L94.8532 198.097C94.8385 198.077 94.8197 198.062 94.7981 198.051C94.7764 198.04 94.7526 198.035 94.7284 198.035C94.7043 198.036 94.6803 198.042 94.6585 198.053C94.6367 198.065 94.6176 198.081 94.6026 198.101L87.3941 207.656Z" fill="#4F4D3F" stroke="#4F4D3F" stroke-width="2" mask="url(#path-42-inside-1_750_3020)"/>
<path d="M157.513 47.9896L123.683 48.0018C123.341 48.0018 123.008 48.0548 122.685 48.1607L113.205 51.1962L113.221 40.1422C113.223 39.9846 113.299 39.9058 113.448 39.9058C118.22 39.9004 123.01 39.9018 127.818 39.9099C128.613 39.914 130.57 39.906 130.57 39.906L158.085 39.9058C158.208 39.9058 158.263 39.9683 158.249 40.0933L157.513 47.9896Z" fill="white"/>
<path d="M207.017 48.0057H159.498L160.266 40.1338C160.281 39.9817 160.363 39.9057 160.512 39.9057C165.493 39.9029 170.493 39.9043 175.513 39.9097C175.917 39.9097 178.492 39.9098 178.492 39.9098C187.589 39.9044 196.747 39.9029 205.964 39.9057C206.102 39.9057 206.178 39.9763 206.191 40.1175L207.017 48.0057Z" fill="white"/>
<path d="M230.358 47.9977L209.018 48.0221L208.239 40.1176C208.226 39.9764 208.287 39.9058 208.423 39.9058H232.186C232.317 39.9058 232.357 39.9682 232.308 40.0932C231.326 42.6384 230.676 45.2732 230.358 47.9977Z" fill="white"/>
<path d="M112.066 51.624L104.45 54.1338C104.328 54.1746 104.205 54.1746 104.082 54.1338L95.3037 51.3673L95.3703 46.8691C95.3729 46.7278 95.4381 46.6327 95.5661 46.5838L111.882 40.2236C111.997 40.1801 112.054 40.2222 112.054 40.3499L112.066 51.624Z" fill="white"/>
<path d="M94.1447 50.7724L88.7844 49.1833C88.6107 49.1316 88.4249 49.1489 88.2634 49.2318C88.1019 49.3147 87.9763 49.4573 87.9112 49.6315C87.5666 50.5415 87.3943 51.4419 87.3943 52.3329C87.3865 96.7637 87.3852 141.193 87.3904 185.621C87.3904 194.677 87.4661 201.229 87.6175 205.276L78.1928 217.809C78.1749 217.833 78.1511 217.851 78.1239 217.862C78.0967 217.872 78.0673 217.875 78.0389 217.869C78.0105 217.863 77.9843 217.849 77.963 217.828C77.9418 217.808 77.9265 217.781 77.9187 217.752C77.8169 217.357 77.6407 216.938 77.6407 216.526C77.599 158.611 77.5977 100.761 77.6368 42.9738C77.6394 42.4115 77.7765 41.852 78.048 41.2951C78.0799 41.2307 78.1331 41.1803 78.1979 41.1534C78.2626 41.1265 78.3345 41.1247 78.4004 41.1485L93.9685 46.649C94.0756 46.687 94.1291 46.7658 94.1291 46.8853L94.1447 50.7724Z" fill="white"/>
<path d="M157.513 47.9895L157.462 49.5256C157.46 49.675 157.388 49.77 157.247 49.8108C154.675 50.5564 153.312 53.2782 154.26 55.8777C155.489 59.2391 159.902 59.781 161.875 56.88C163.641 54.2764 162.506 50.8783 159.62 49.8678C159.495 49.8244 159.435 49.7334 159.44 49.5948L159.499 48.0058H207.017L207.072 49.55C207.078 49.6913 207.017 49.7877 206.892 49.8393C204.459 50.8471 203.491 52.6833 203.987 55.348C204.245 56.7442 205.098 57.7669 206.544 58.4161C209.974 59.9562 213.776 56.2444 212.237 52.5122C211.663 51.1187 210.693 50.2196 209.328 49.8149C209.187 49.7741 209.111 49.6777 209.101 49.5256L209.018 48.0221L230.358 47.9977C229.211 59.1413 234.058 69.8898 243.201 75.8467C243.267 75.8906 243.321 75.9513 243.359 76.0233C243.397 76.0952 243.416 76.176 243.416 76.2582C243.414 122.903 243.415 169.638 243.42 216.465C243.424 218.029 242.179 219.382 240.668 219.386C198.059 219.419 155.638 219.424 113.405 219.403C113.353 219.403 113.303 219.381 113.266 219.343C113.23 219.305 113.209 219.253 113.209 219.199L113.205 51.1961L122.685 48.1606C123.008 48.0547 123.341 48.0017 123.683 48.0017L157.513 47.9895ZM147.642 128.285C144.755 127.041 142.05 125.153 139.525 122.622C138.891 121.986 138.214 121.932 137.493 122.459C137.35 122.562 137.245 122.695 137.18 122.858C136.916 123.502 137.025 124.068 137.505 124.557C139.956 127.048 142.579 128.983 145.375 130.363C155.105 135.159 164.491 131.296 172.447 124.524C172.588 124.405 172.699 124.252 172.771 124.078C172.843 123.904 172.874 123.715 172.862 123.526C172.836 123.102 172.716 122.778 172.502 122.552C171.891 121.909 171.248 121.871 170.572 122.438C163.923 128.037 155.9 131.838 147.642 128.285ZM202.033 130.661C211.379 135.053 221.07 131.007 228.338 124.598C228.875 124.122 229.005 123.549 228.725 122.878C228.673 122.756 228.603 122.649 228.514 122.556C227.887 121.907 227.232 121.873 226.548 122.455C222.808 125.641 219.115 127.784 215.471 128.884C207.75 131.219 201.297 128.13 195.568 122.675C194.921 122.061 194.227 121.994 193.485 122.475C193.378 122.548 193.297 122.642 193.243 122.756C192.932 123.432 193.005 124.008 193.462 124.484C195.965 127.091 198.822 129.15 202.033 130.661ZM190.267 174.95C190.267 173.365 189.662 171.844 188.584 170.724C187.507 169.603 186.046 168.973 184.523 168.973C183.768 168.973 183.021 169.127 182.325 169.428C181.628 169.728 180.994 170.169 180.461 170.724C179.928 171.279 179.505 171.938 179.216 172.663C178.927 173.388 178.779 174.165 178.779 174.95C178.779 175.735 178.927 176.512 179.216 177.237C179.505 177.963 179.928 178.622 180.461 179.177C180.994 179.732 181.628 180.172 182.325 180.472C183.021 180.773 183.768 180.927 184.523 180.927C186.046 180.927 187.507 180.298 188.584 179.177C189.662 178.056 190.267 176.535 190.267 174.95Z" fill="#F4F4F4"/>
<path d="M94.1442 50.7723C94.1676 98.8239 94.1716 146.948 94.1559 195.143C94.1559 196.887 93.8113 197.136 92.715 198.619C91.1801 200.694 89.4808 202.913 87.617 205.276C87.4656 201.229 87.3898 194.677 87.3898 185.621C87.3846 141.193 87.3859 96.7636 87.3938 52.3329C87.3938 51.4419 87.5661 50.5414 87.9106 49.6315C87.9757 49.4573 88.1013 49.3147 88.2628 49.2318C88.4244 49.1489 88.6102 49.1316 88.7838 49.1833L94.1442 50.7723Z" fill="#F4F4F4"/>
<path d="M95.3038 51.3672L104.082 54.1338C104.205 54.1745 104.328 54.1745 104.451 54.1338L112.066 51.6239L112.058 217.858C112.058 218.13 111.976 218.16 111.812 217.948C106.424 211.019 101.154 204.255 96.0008 197.657C95.4996 197.019 95.249 196.283 95.249 195.449C95.2725 147.476 95.2908 99.4487 95.3038 51.3672Z" fill="#F4F4F4"/>
<path d="M147.643 128.285C155.9 131.838 163.923 128.037 170.572 122.438C171.248 121.871 171.891 121.909 172.502 122.552C172.716 122.778 172.836 123.103 172.862 123.526C172.875 123.715 172.843 123.904 172.771 124.078C172.699 124.252 172.588 124.405 172.447 124.524C164.491 131.296 155.106 135.159 145.375 130.363C142.58 128.983 139.956 127.048 137.505 124.557C137.025 124.068 136.917 123.502 137.18 122.858C137.245 122.695 137.35 122.562 137.493 122.459C138.214 121.932 138.891 121.986 139.526 122.622C142.05 125.153 144.755 127.041 147.643 128.285Z" fill="#4F4D3F"/>
<path d="M202.033 130.661C198.822 129.15 195.965 127.091 193.462 124.484C193.005 124.008 192.932 123.433 193.242 122.756C193.297 122.642 193.378 122.548 193.485 122.475C194.226 121.994 194.921 122.061 195.568 122.675C201.297 128.13 207.749 131.219 215.471 128.884C219.115 127.784 222.807 125.641 226.548 122.455C227.232 121.873 227.887 121.907 228.513 122.556C228.602 122.649 228.673 122.756 228.725 122.878C229.004 123.549 228.875 124.122 228.337 124.598C221.07 131.007 211.379 135.053 202.033 130.661Z" fill="#4F4D3F"/>
<path d="M184.522 180.927C187.695 180.927 190.267 178.251 190.267 174.95C190.267 171.649 187.695 168.973 184.522 168.973C181.35 168.973 178.778 171.649 178.778 174.95C178.778 178.251 181.35 180.927 184.522 180.927Z" fill="#4F4D3F"/>
<path d="M87.3936 219.374V207.656L94.6021 198.101C94.6171 198.081 94.6362 198.065 94.658 198.053C94.6798 198.042 94.7037 198.036 94.7279 198.035C94.7521 198.035 94.7759 198.04 94.7975 198.051C94.8192 198.062 94.838 198.077 94.8527 198.097L111.251 219.166C111.348 219.288 111.319 219.349 111.165 219.349L87.3936 219.374Z" fill="#E5E5E5"/>
<path d="M87.3934 207.656V219.374C85.1276 219.393 82.8227 219.39 80.4786 219.366C79.9878 219.361 79.5297 219.245 79.1042 219.02C79.0772 219.006 79.0536 218.986 79.0349 218.962C79.0163 218.937 79.0031 218.908 78.9964 218.877C78.9896 218.847 78.9895 218.815 78.996 218.784C79.0024 218.753 79.0153 218.723 79.0338 218.698L87.3934 207.656Z" fill="white"/>
</svg>
