<svg width="1458" height="543" viewBox="0 0 1458 543" fill="none" xmlns="http://www.w3.org/2000/svg">
<path d="M724.842 171.719C717.513 171.719 710.274 172.199 703.105 172.93C706.108 170.768 709.343 166.352 709.343 166.352C709.343 166.352 711.125 131.167 712.907 125.8C714.699 120.433 729.008 84.6579 729.008 78.6903C729.008 72.7327 726.625 52.4568 719.175 52.4568C711.716 52.4568 703.375 57.8237 699.79 70.3496C696.216 82.8656 682.488 101.359 671.174 115.667C659.839 129.976 548.327 217.047 535.211 222.403C522.094 227.77 506.594 228.371 498.834 235.53C486.919 240.897 476.776 238.514 476.776 238.514L447.549 256.997C447.549 256.997 339.621 335.117 326.505 351.808C307.42 354.191 300.862 351.808 300.862 351.808C300.862 351.808 274.629 324.974 272.246 311.257C269.863 297.549 267.47 263.556 267.47 249.838C267.47 236.121 247.194 218.238 237.061 210.478C226.918 202.728 193.465 163.368 193.465 163.368L185.645 162.777V146.677C185.645 146.677 205.39 147.868 209.566 144.294C213.741 140.719 220.029 125.81 220.329 120.143C220.63 114.476 232.124 113.885 232.124 113.885C232.124 113.885 224.615 96.8935 223.714 89.444C222.823 81.9845 224.274 76.6176 224.274 76.6176C224.274 76.6176 230.212 66.7851 233.196 58.7248C236.18 50.6746 238.262 42.0336 235.579 36.9671C232.895 31.9007 208.144 0 165.51 0C122.875 0 120.783 27.4249 120.783 27.4249C120.783 27.4249 102.299 25.933 100.507 28.9168C98.7145 31.9007 97.8233 34.5841 97.8233 34.5841C97.8233 34.5841 81.1321 32.5014 75.7652 38.7594C70.3984 45.0174 60.5559 53.0777 60.5559 93.6193C60.5559 134.171 69.5073 136.854 71.5899 146.697C73.6726 156.529 70.3984 179.789 62.9389 180.39C77.8479 178.898 100.507 165.18 102.589 149.681C104.672 134.181 103.781 84.3875 99.6056 73.0631C95.4303 61.7287 96.0311 52.4869 99.0048 50.7046C100.196 55.4807 100.196 55.4807 100.196 55.4807L112.422 55.1803C112.422 55.1803 111.531 61.4383 113.313 69.7889C115.095 78.1296 118.68 99.0061 127.922 107.357C128.222 117.189 129.714 160.424 129.714 160.424C129.714 160.424 110.63 175.333 102.88 190.833C95.1299 206.333 91.255 210.218 89.7631 230.193C88.2712 250.169 93.638 280.277 96.021 295.487C98.4041 310.696 100.487 339.613 99.2952 348.854C98.1037 358.106 98.6944 360.189 98.6944 360.189C98.6944 360.189 87.6604 368.83 85.2774 386.132C82.8943 403.424 70.068 441.883 70.068 441.883L57.8424 448.441C57.8424 448.441 38.1673 449.923 33.992 451.716C29.8167 453.508 24.4499 462.449 33.992 462.149C43.5342 461.858 61.7173 462.149 61.7173 462.149L61.417 477.058L42.9634 489.253L37.5966 495.812L14.9377 505.354C14.9377 505.354 -8.3219 521.755 4.20406 522.346C16.72 522.946 42.9634 522.346 42.9634 522.346C42.9634 522.346 45.3465 516.678 51.6145 511.301C57.8825 505.925 58.1728 504.152 59.3643 504.753C60.5559 505.354 63.83 514.586 63.83 514.586C63.83 514.586 67.705 519.652 70.9892 519.051C74.2733 518.451 82.0232 516.368 82.0232 515.176C82.0232 513.985 82.9143 499.967 82.9143 497.874C82.9143 495.792 83.2147 481.784 83.2147 481.784L95.4403 461.208C95.4403 461.208 120.182 417.672 122.865 400.971C125.549 384.28 126.74 377.721 126.74 377.721C126.74 377.721 145.824 341.635 144.633 336.879C152.082 351.488 192.033 417.973 202.176 427.214C208.134 442.113 217.676 477.008 234.678 488.633C251.679 500.257 266.278 503.542 281.788 503.542C297.298 503.542 338.44 499.366 351.857 490.114C365.274 480.873 518.529 301.694 518.529 301.694C518.529 301.694 535.311 294.435 545.213 289.959C540.788 303.877 538.204 318.566 538.204 334.026C538.204 427.465 621.771 503.231 724.852 503.231C827.934 503.231 911.5 427.465 911.5 334.026C911.48 240.607 826.842 171.719 724.842 171.719ZM671.795 178.437C671.975 178.297 672.225 178.077 672.375 177.987C678.143 173.761 689.027 173.681 695.575 173.902C687.505 175.013 679.535 176.445 671.795 178.437Z" fill="white"/>
<path d="M733.158 171.719C740.487 171.719 747.726 172.199 754.896 172.93C751.892 170.768 748.658 166.352 748.658 166.352C748.658 166.352 746.875 131.167 745.093 125.8C743.301 120.433 728.992 84.6579 728.992 78.6903C728.992 72.7327 731.376 52.4568 738.825 52.4568C746.285 52.4568 754.625 57.8237 758.21 70.3496C761.784 82.8656 775.512 101.359 786.826 115.667C798.161 129.976 909.673 217.047 922.789 222.403C935.906 227.77 951.406 228.371 959.166 235.53C971.081 240.897 981.224 238.514 981.224 238.514L1010.45 256.997C1010.45 256.997 1118.38 335.117 1131.5 351.808C1150.58 354.191 1157.14 351.808 1157.14 351.808C1157.14 351.808 1183.37 324.974 1185.75 311.257C1188.14 297.549 1190.53 263.556 1190.53 249.838C1190.53 236.121 1210.81 218.238 1220.94 210.478C1231.08 202.728 1264.53 163.368 1264.53 163.368L1272.35 162.777V146.677C1272.35 146.677 1252.61 147.868 1248.43 144.294C1244.26 140.719 1237.97 125.81 1237.67 120.143C1237.37 114.476 1225.88 113.885 1225.88 113.885C1225.88 113.885 1233.39 96.8935 1234.29 89.444C1235.18 81.9845 1233.73 76.6176 1233.73 76.6176C1233.73 76.6176 1227.79 66.7851 1224.8 58.7248C1221.82 50.6746 1219.74 42.0336 1222.42 36.9671C1225.1 31.9007 1249.86 0 1292.49 0C1335.12 0 1337.22 27.4249 1337.22 27.4249C1337.22 27.4249 1355.7 25.933 1357.49 28.9168C1359.29 31.9007 1360.18 34.5841 1360.18 34.5841C1360.18 34.5841 1376.87 32.5014 1382.23 38.7594C1387.6 45.0174 1397.44 53.0776 1397.44 93.6193C1397.44 134.171 1388.49 136.854 1386.41 146.697C1384.33 156.529 1387.6 179.789 1395.06 180.39C1380.15 178.898 1357.49 165.18 1355.41 149.681C1353.33 134.181 1354.22 84.3875 1358.39 73.0631C1362.57 61.7287 1361.97 52.4869 1359 50.7046C1357.8 55.4807 1357.8 55.4807 1357.8 55.4807L1345.58 55.1803C1345.58 55.1803 1346.47 61.4383 1344.69 69.7889C1342.9 78.1296 1339.32 99.0061 1330.08 107.357C1329.78 117.189 1328.29 160.424 1328.29 160.424C1328.29 160.424 1347.37 175.333 1355.12 190.833C1362.87 206.333 1366.75 210.218 1368.24 230.193C1369.73 250.169 1364.36 280.277 1361.98 295.487C1359.6 310.696 1357.51 339.613 1358.7 348.854C1359.9 358.106 1359.31 360.189 1359.31 360.189C1359.31 360.189 1370.34 368.83 1372.72 386.132C1375.11 403.424 1387.93 441.883 1387.93 441.883L1400.16 448.441C1400.16 448.441 1419.83 449.923 1424.01 451.716C1428.18 453.508 1433.55 462.449 1424.01 462.149C1414.47 461.858 1396.28 462.149 1396.28 462.149L1396.58 477.058L1415.04 489.253L1420.4 495.812L1443.06 505.354C1443.06 505.354 1466.32 521.755 1453.8 522.346C1441.28 522.946 1415.04 522.346 1415.04 522.346C1415.04 522.346 1412.65 516.678 1406.39 511.301C1400.12 505.925 1399.83 504.152 1398.64 504.753C1397.44 505.354 1394.17 514.586 1394.17 514.586C1394.17 514.586 1390.3 519.652 1387.01 519.051C1383.73 518.451 1375.98 516.368 1375.98 515.176C1375.98 513.985 1375.09 499.967 1375.09 497.874C1375.09 495.792 1374.79 481.784 1374.79 481.784L1362.56 461.208C1362.56 461.208 1337.82 417.672 1335.13 400.971C1332.45 384.28 1331.26 377.721 1331.26 377.721C1331.26 377.721 1312.18 341.635 1313.37 336.879C1305.92 351.488 1265.97 417.973 1255.82 427.214C1249.87 442.113 1240.32 477.008 1223.32 488.633C1206.32 500.257 1191.72 503.542 1176.21 503.542C1160.7 503.542 1119.56 499.366 1106.14 490.114C1092.73 480.873 939.471 301.694 939.471 301.694C939.471 301.694 922.689 294.435 912.787 289.959C917.212 303.877 919.796 318.566 919.796 334.026C919.796 427.465 831.581 536 728.5 536C625.419 536 546.5 427.465 546.5 334.026C546.52 240.607 631.158 171.719 733.158 171.719ZM786.205 178.437C786.025 178.297 785.775 178.077 785.625 177.987C779.857 173.761 768.973 173.681 762.425 173.902C770.495 175.013 778.466 176.445 786.205 178.437Z" fill="white"/>
<path d="M231.5 413.306C237.473 403.227 291.231 310.084 392.773 133.879C403.972 132.386 419.091 129.399 438.131 124.919C457.17 120.439 472.102 114.466 482.929 107V406.026H494.688C505.141 406.026 510.367 402.293 510.367 394.827V380.828H515.967V441.305H510.367V426.745C510.367 419.279 505.141 415.546 494.688 415.546H482.929V477.703C482.929 488.156 486.662 493.382 494.128 493.382H508.687V498.982L347.975 501.782V496.182H362.534C366.267 496.182 369.067 494.689 370.934 491.702C372.8 488.716 373.734 484.609 373.734 479.383V418.346H239.9L231.5 413.306ZM373.734 408.826V221.795L373.174 189.316L245.499 408.826H373.734Z" fill="#B2937E"/>
<path d="M941.5 413.306C947.473 403.227 1001.23 310.084 1102.77 133.879C1113.97 132.386 1129.09 129.399 1148.13 124.919C1167.17 120.439 1182.1 114.466 1192.93 107V406.026H1204.69C1215.14 406.026 1220.37 402.293 1220.37 394.827V380.828H1225.97V441.305H1220.37V426.745C1220.37 419.279 1215.14 415.546 1204.69 415.546H1192.93V477.703C1192.93 488.156 1196.66 493.382 1204.13 493.382H1218.69V498.982L1057.97 501.782V496.182H1072.53C1076.27 496.182 1079.07 494.689 1080.93 491.702C1082.8 488.716 1083.73 484.609 1083.73 479.383V418.346H949.9L941.5 413.306ZM1083.73 408.826V221.795L1083.17 189.316L955.499 408.826H1083.73Z" fill="#B2937E"/>
<path d="M533.283 351.8C533.283 315.783 541.325 283.222 557.41 254.117C574.03 225.013 596.816 202.275 625.767 185.903C655.255 169.168 688.228 160.8 724.685 160.8C761.143 160.8 793.847 169.168 822.799 185.903C851.751 202.275 874.268 225.013 890.353 254.117C906.973 283.222 915.283 315.783 915.283 351.8C915.283 387.817 906.973 420.378 890.353 449.483C874.268 478.588 851.751 501.508 822.799 518.243C793.847 534.615 761.143 542.8 724.685 542.8C688.228 542.8 655.255 534.615 625.767 518.243C596.816 501.508 574.03 478.588 557.41 449.483C541.325 420.378 533.283 387.817 533.283 351.8ZM687.692 351.8C687.692 403.461 690.908 446.755 697.342 481.68C704.312 516.606 713.426 534.069 724.685 534.069C731.119 534.069 737.553 525.883 743.986 509.512C750.42 493.14 755.513 470.948 759.266 442.935C763.019 414.921 764.896 384.543 764.896 351.8C764.896 318.694 763.019 288.134 759.266 260.12C755.513 232.107 750.42 210.096 743.986 194.089C738.089 177.717 731.655 169.532 724.685 169.532C712.89 169.532 703.776 187.177 697.342 222.466C690.908 257.756 687.692 300.867 687.692 351.8Z" fill="#B2937E"/>
</svg>
