<svg width="610" height="130" viewBox="0 0 610 130" fill="none" xmlns="http://www.w3.org/2000/svg">
<path d="M96.406 71.2959C89.4828 76.3866 81.3721 79.7804 72.0734 81.4772C62.7747 83.1741 53.9509 83.9184 45.6024 83.6802V120.922C45.84 123.87 47.096 125.418 49.3358 125.507H54.1886V127.144H0.5V125.507H5.35359C6.60925 125.507 7.52499 125.06 8.16979 124.197C8.78066 123.334 9.12013 122.113 9.12013 120.595V18.8414C9.12013 17.3231 8.8146 16.1026 8.16979 15.2393C7.55893 14.3759 6.60925 13.9294 5.35359 13.9294H0.5V12.292H51.5753C60.5686 12.292 69.2563 13.6019 77.6727 16.2216C86.0891 18.8414 93.0466 23.0092 98.5444 28.6952C104.042 34.3813 106.791 41.4962 106.791 50.0402C106.791 59.12 103.329 66.2053 96.406 71.2959ZM71.259 48.8792C71.259 37.8346 69.494 29.2311 65.9306 23.1283C62.3672 16.9957 57.8536 13.9294 52.3558 13.9294C49.7427 14.0485 47.9778 14.4354 47.1294 15.1499C46.247 15.8644 45.7382 16.9956 45.6364 18.5139V81.6856C62.7067 80.8222 71.259 69.8669 71.259 48.8494V48.8792Z" fill="white"/>
<path d="M163.128 125.536H167.811V127.174H114.292V125.536H118.976C121.487 125.536 122.708 123.899 122.708 120.624V64.9844C122.708 62.6922 121.894 61.0548 120.265 60.0724C118.636 59.09 116.634 58.6435 114.292 58.7625V57.4527C120.774 57.4527 128.309 56.2023 136.929 53.6718C145.549 51.1712 152.777 48.3133 158.614 45.1279L159.36 45.9614V120.803C159.36 123.869 160.616 125.447 163.094 125.566L163.128 125.536ZM130.752 37.9831C127.494 35.0955 125.899 31.6124 125.899 27.5637C125.899 23.515 127.528 20.0319 130.752 17.1442C134.01 14.2565 137.912 12.7979 142.528 12.7979C147.143 12.7979 151.114 14.2565 154.406 17.1442C157.698 20.0319 159.36 23.515 159.36 27.5637C159.36 31.6124 157.698 35.0955 154.406 37.9831C151.114 40.8708 147.143 42.3295 142.528 42.3295C137.912 42.3295 133.976 40.8708 130.752 37.9831Z" fill="white"/>
<path d="M224.111 125.536H228.794V127.173H175.275V125.536H179.959C182.47 125.536 183.692 123.899 183.692 120.624V19.8531C183.692 15.596 181.588 13.4526 177.346 13.4526L175.275 13.6312V12.3213C196.961 8.39172 211.758 4.28346 219.597 0.0263672L220.344 0.85992V120.832C220.344 123.899 221.6 125.477 224.077 125.596L224.111 125.536Z" fill="white"/>
<path d="M325.887 127.175H315.604C311.125 127.056 307.697 126.282 305.321 124.793C302.946 123.305 301.588 120.447 301.215 116.19C299.213 120.685 295.412 124.108 289.812 126.46C284.212 128.812 277.901 129.973 270.91 129.973C264.801 129.973 258.997 129.05 253.5 127.175C248.002 125.329 243.692 122.62 240.501 119.048C237.311 115.475 235.988 111.188 236.463 106.157C237.074 100.59 239.314 95.946 243.115 92.2844C246.916 88.6227 251.362 85.7945 256.385 83.8297C261.407 81.8649 267.889 79.781 275.762 77.6078C281.735 75.9705 286.317 74.5713 289.507 73.4103C292.697 72.2492 295.378 70.7905 297.55 68.9746C299.722 67.1586 300.808 64.9556 300.808 62.3359C300.808 56.5307 299.824 52.4225 297.821 49.9516C295.819 47.4807 292.154 46.3793 286.792 46.5877C282.923 46.7067 279.733 47.957 277.255 50.3684C274.744 52.7798 273.523 55.5186 273.523 58.5849C273.523 60.7879 274.303 62.7526 275.864 64.4793C277.425 66.2357 279.767 67.5456 282.89 68.4089C281.023 70.9394 277.663 73.053 272.877 74.8095C268.058 76.5659 263.239 77.4292 258.386 77.4292C253.533 77.4292 249.427 76.3873 246.135 74.3034C242.844 72.2195 241.181 69.0639 241.181 64.777C241.181 60.4902 243.421 56.9773 247.9 53.8514C252.38 50.7256 258.115 48.3143 265.106 46.6174C272.097 44.9205 279.326 44.0869 286.826 44.0869C301.147 44.0869 313.263 46.7365 323.104 52.0355C332.946 57.3345 337.901 67.6051 337.901 82.8176V120.715C337.901 123.9 339.156 125.478 341.634 125.478H346.318V127.115H325.921L325.887 127.175ZM283.805 118.958C285.672 119.494 287.539 119.792 289.405 119.792C292.527 119.792 295.208 118.839 297.448 116.934C299.688 115.029 300.876 111.992 301.011 107.824V68.2601C298.398 72.1004 294.021 76.8933 287.912 82.6984C284.552 86.0922 281.939 88.7418 280.14 90.647C278.342 92.5523 276.882 94.5469 275.728 96.6308C274.099 99.3697 273.285 102.257 273.285 105.324C273.285 107.616 273.794 109.789 274.778 111.813C275.762 113.838 277.222 115.505 279.088 116.815C280.344 117.678 281.905 118.393 283.771 118.958H283.805Z" fill="white"/>
<path d="M404.827 46.9446H394.341V120.804C394.341 123.87 395.529 125.448 397.904 125.567H402.757V127.204L372.248 127.026C367.395 126.907 363.73 125.954 361.32 124.168C358.91 122.382 357.688 118.779 357.688 113.421V53.1963C357.688 50.785 356.908 49.1476 355.347 48.2842C353.786 47.4209 352.123 46.9744 350.392 46.9744H346.286V45.1584C357.01 45.1584 366.343 42.4493 374.25 37.0312C382.158 31.6131 388.503 23.3967 393.254 12.3223L394.375 13.1558V45.1584H404.861V46.9744L404.827 46.9446Z" fill="white"/>
<path d="M503.142 106.9C499.578 112.527 494.114 117.439 486.784 121.577C479.419 125.744 470.392 127.828 459.668 127.828C450.2 127.828 441.58 126.191 433.843 122.916C426.105 119.642 419.962 114.819 415.414 108.478C410.867 102.137 408.593 94.5753 408.593 85.823C408.593 77.6065 411.037 70.3723 415.992 64.0909C420.912 57.8095 427.53 52.9273 435.81 49.474C444.091 46.0207 453.118 44.2939 462.824 44.2939C468.05 44.2939 473.311 45.0978 478.537 46.6756C483.764 48.2534 488.379 50.9029 492.384 54.6241C496.388 58.3453 498.866 63.1086 499.884 68.9137L449.182 93.0272C452.304 98.2667 456.241 102.256 461.06 104.935C465.845 107.614 471.071 108.954 476.671 108.954C482.915 108.954 488.82 107.376 494.454 104.191C500.053 101.006 504.499 96.5996 507.723 90.8838L508.3 92.0449C508.436 96.3019 506.705 101.273 503.142 106.9ZM447.858 90.735L465.811 81.5361C465.438 74.6295 464.012 67.4252 461.501 59.8636C458.99 52.3021 455.63 48.551 451.388 48.551C450.879 48.551 450.268 48.6701 449.521 48.8785C447.417 49.4144 445.72 51.528 444.464 55.1897C443.209 58.8514 442.598 63.1383 442.598 68.0801C442.598 75.1951 443.922 81.8635 446.535 88.1152C447.146 89.5442 447.587 90.4075 447.858 90.735Z" fill="white"/>
<path d="M571.898 74.6591C579.771 78.5887 586.185 82.0122 591.174 84.9296C596.162 87.8173 600.472 91.1814 604.07 95.0217C607.667 98.862 609.5 102.911 609.5 107.168C609.364 111.871 607.022 115.92 602.475 119.314C597.927 122.708 591.92 125.268 584.522 127.024C577.09 128.781 569.013 129.644 560.291 129.644C547.701 129.644 537.486 128.364 529.612 125.804C521.739 123.244 517.259 119.254 516.139 113.896C515.902 112.586 515.766 111.604 515.766 110.949C515.766 106.9 517.293 103.595 520.347 101.035C523.402 98.475 527.304 97.1651 532.056 97.1651C536.807 97.1651 540.676 98.1177 543.289 100.023C545.902 101.928 547.225 104.161 547.225 106.662C547.225 109.162 546.173 111.038 544.035 112.556C542.169 113.866 541.218 115.355 541.218 116.992C541.218 119.403 542.915 121.576 546.275 123.482C549.635 125.387 554.013 126.399 559.375 126.518C563.617 126.637 567.35 125.625 570.608 123.482C573.865 121.338 575.461 118.808 575.461 115.861C575.461 112.913 573.73 110.055 570.235 107.317C567.486 105.143 564.295 103.119 560.698 101.333C557.067 99.5169 552.723 97.5819 547.599 95.498C540.744 92.6401 535.212 90.0799 531.037 87.7876C526.863 85.4953 523.334 82.6374 520.449 79.2437C517.565 75.8499 516.139 71.8012 516.139 67.0975C516.139 62.7213 518.277 58.762 522.587 55.1896C526.897 51.647 532.565 48.8188 539.623 46.7349C546.682 44.651 554.047 43.6091 561.784 43.6091C569.522 43.6091 577.633 44.651 586.117 46.7349C590.868 47.7173 594.093 48.2234 595.857 48.2234C597.86 48.2234 599.658 47.8364 601.287 47.0624L602.78 48.0448L596.604 62.1557L591.75 73.4683H589.884C589.138 66.3533 586.627 60.1611 582.384 54.8323C578.142 49.5333 572.033 46.8837 564.058 46.8837C560.189 46.8837 556.897 47.8662 554.149 49.831C551.4 51.7958 550.042 54.2072 550.042 57.0651C550.042 60.4588 552.112 63.5251 556.218 66.264C559.205 68.2288 564.465 71.0271 571.932 74.6293L571.898 74.6591Z" fill="white"/>
</svg>
