<svg width="9" height="14" viewBox="0 0 9 14" fill="none" xmlns="http://www.w3.org/2000/svg">
<path d="M7.36221 13.8976C7.26067 13.8982 7.16002 13.8796 7.06602 13.843C6.97202 13.8064 6.88652 13.7525 6.81443 13.6843L0.642277 7.80062C0.569963 7.73225 0.512567 7.6509 0.473398 7.56128C0.434229 7.47166 0.414062 7.37553 0.414062 7.27844C0.414062 7.18135 0.434229 7.08522 0.473398 6.9956C0.512567 6.90597 0.569963 6.82463 0.642277 6.75626L6.81443 0.872544C6.95971 0.734053 7.15675 0.65625 7.36221 0.65625C7.56767 0.65625 7.76471 0.734053 7.90999 0.872544C8.05527 1.01103 8.13688 1.19887 8.13688 1.39472C8.13688 1.59058 8.05527 1.77841 7.90999 1.9169L2.2779 7.27844L7.90999 12.64C7.9823 12.7083 8.0397 12.7897 8.07887 12.8793C8.11804 12.9689 8.1382 13.0651 8.1382 13.1622C8.1382 13.2592 8.11804 13.3554 8.07887 13.445C8.0397 13.5346 7.9823 13.616 7.90999 13.6843C7.8379 13.7525 7.7524 13.8064 7.6584 13.843C7.5644 13.8796 7.46375 13.8982 7.36221 13.8976Z" fill="white"/>
</svg>
