<svg width="155" height="56" viewBox="0 0 155 56" fill="none" xmlns="http://www.w3.org/2000/svg">
<path d="M24.323 18.4358C22.5672 19.7526 20.5102 20.6305 18.152 21.0695C15.7937 21.5084 13.5558 21.701 11.4386 21.6393V31.273C11.4988 32.0354 11.8173 32.4358 12.3854 32.4589H13.6161V32.8825H0L0 32.4589H1.23093C1.54939 32.4589 1.78163 32.3434 1.94516 32.1201C2.10008 31.8968 2.18618 31.5811 2.18618 31.1883V4.86703C2.18618 4.47429 2.10869 4.15857 1.94516 3.93525C1.79024 3.71192 1.54939 3.59641 1.23093 3.59641H0L0 3.17285H12.9534C15.2342 3.17285 17.4375 3.51169 19.572 4.18936C21.7065 4.86703 23.471 5.94514 24.8654 7.41599C26.2597 8.88684 26.9568 10.7273 26.9568 12.9374C26.9568 15.2862 26.0788 17.119 24.323 18.4358ZM17.9454 12.6371C17.9454 9.78013 17.4978 7.55461 16.5941 5.97595C15.6903 4.38959 14.5456 3.59641 13.1513 3.59641C12.4886 3.62721 12.041 3.7273 11.8258 3.91212C11.602 4.09694 11.473 4.38957 11.4472 4.78231V21.1234C15.7764 20.9001 17.9454 18.0662 17.9454 12.6294V12.6371Z" fill="#4F4D3F"/>
<path d="M41.2448 32.4666H42.4324V32.8901H28.8594V32.4666H30.0472C30.6841 32.4666 30.9939 32.043 30.9939 31.196V16.8032C30.9939 16.2102 30.7873 15.7867 30.3742 15.5326C29.9611 15.2784 29.4532 15.1629 28.8594 15.1937V14.8549C30.5033 14.8549 32.4142 14.5314 34.6003 13.8769C36.7864 13.23 38.6196 12.4907 40.1 11.6668L40.2893 11.8824V31.2422C40.2893 32.0353 40.6079 32.4435 41.2362 32.4743L41.2448 32.4666ZM33.0338 9.81857C32.2075 9.07159 31.8031 8.1706 31.8031 7.12329C31.8031 6.07599 32.2161 5.175 33.0338 4.42802C33.86 3.68104 34.8498 3.30371 36.0203 3.30371C37.1909 3.30371 38.1979 3.68104 39.0327 4.42802C39.8676 5.175 40.2893 6.07599 40.2893 7.12329C40.2893 8.1706 39.8676 9.07159 39.0327 9.81857C38.1979 10.5655 37.1909 10.9429 36.0203 10.9429C34.8498 10.9429 33.8514 10.5655 33.0338 9.81857Z" fill="#4F4D3F"/>
<path d="M56.7106 32.4665H57.8982V32.89H44.3252V32.4665H45.5131C46.15 32.4665 46.4597 32.043 46.4597 31.1959V5.12873C46.4597 4.02751 45.9262 3.47306 44.8503 3.47306L44.3252 3.51926V3.18043C49.825 2.16392 53.5776 1.10121 55.5658 0L55.7551 0.215621V31.2498C55.7551 32.043 56.0737 32.4511 56.702 32.4819L56.7106 32.4665Z" fill="#4F4D3F"/>
<path d="M82.5223 32.8899H79.9144C78.7783 32.8591 77.909 32.6589 77.3065 32.2738C76.7041 31.8888 76.3598 31.1495 76.2651 30.0483C75.7573 31.2111 74.7933 32.0967 73.3731 32.7051C71.953 33.3134 70.3523 33.6137 68.5793 33.6137C67.03 33.6137 65.5581 33.375 64.1638 32.8899C62.7695 32.4124 61.6764 31.7117 60.8673 30.7876C60.0583 29.8635 59.7227 28.7545 59.8432 27.4531C59.9981 26.0131 60.5661 24.8117 61.5301 23.8645C62.4941 22.9173 63.6217 22.1858 64.8955 21.6775C66.1693 21.1693 67.8132 20.6302 69.81 20.0681C71.3248 19.6445 72.4868 19.2826 73.2958 18.9823C74.1049 18.6819 74.7847 18.3046 75.3355 17.8348C75.8864 17.3651 76.1618 16.7952 76.1618 16.1176C76.1618 14.6159 75.9123 13.5532 75.4044 12.914C74.8966 12.2749 73.9671 11.99 72.6072 12.0439C71.626 12.0747 70.8169 12.3981 70.1886 13.0219C69.5517 13.6456 69.242 14.3541 69.242 15.1473C69.242 15.7171 69.4399 16.2254 69.8358 16.672C70.2317 17.1264 70.8257 17.4652 71.6175 17.6885C71.1441 18.3431 70.2919 18.8898 69.0783 19.3442C67.8561 19.7985 66.634 20.0219 65.4032 20.0219C64.1724 20.0219 63.1311 19.7523 62.2962 19.2133C61.4613 18.6742 61.0396 17.8579 61.0396 16.749C61.0396 15.6401 61.6077 14.7314 62.7438 13.9228C63.8799 13.1142 65.3343 12.4905 67.1073 12.0515C68.8803 11.6126 70.7137 11.397 72.6158 11.397C76.2479 11.397 79.3205 12.0824 81.8165 13.4531C84.3125 14.8238 85.5692 17.4806 85.5692 21.4157V31.2188C85.5692 32.0428 85.8875 32.4509 86.5158 32.4509H87.7037V32.8745H82.531L82.5223 32.8899ZM71.8497 30.7645C72.3231 30.9031 72.7966 30.9801 73.27 30.9801C74.0618 30.9801 74.7416 30.7336 75.3097 30.2408C75.8777 29.7479 76.179 28.9625 76.2134 27.8844V17.65C75.5507 18.6434 74.4405 19.8832 72.8913 21.3849C72.0392 22.2628 71.3765 22.9482 70.9203 23.441C70.4641 23.9339 70.094 24.4498 69.8014 24.9889C69.3882 25.6973 69.1817 26.4443 69.1817 27.2375C69.1817 27.8305 69.3108 28.3926 69.5604 28.9163C69.81 29.4399 70.1801 29.8712 70.6534 30.21C70.9719 30.4333 71.3677 30.6182 71.8411 30.7645H71.8497Z" fill="#4F4D3F"/>
<path d="M102.542 12.1362H99.8826V31.2418C99.8826 32.035 100.184 32.4432 100.786 32.474H102.017V32.8975L94.2795 32.8513C93.0487 32.8205 92.1192 32.5741 91.5081 32.112C90.897 31.65 90.5871 30.7182 90.5871 29.332V13.7534C90.5871 13.1296 90.3892 12.706 89.9933 12.4827C89.5974 12.2594 89.1757 12.1439 88.7367 12.1439H87.6953V11.6741C90.4151 11.6741 92.782 10.9734 94.7874 9.57182C96.7928 8.17028 98.4021 6.04487 99.6071 3.18018L99.8912 3.3958V11.6741H102.551V12.1439L102.542 12.1362Z" fill="#4F4D3F"/>
<path d="M127.476 27.6454C126.572 29.1009 125.186 30.3715 123.327 31.4419C121.46 32.52 119.17 33.0591 116.45 33.0591C114.049 33.0591 111.863 32.6355 109.901 31.7885C107.938 30.9414 106.38 29.6938 105.227 28.0536C104.074 26.4133 103.497 24.4573 103.497 22.1933C103.497 20.0679 104.117 18.1966 105.374 16.5717C106.622 14.9468 108.3 13.6839 110.4 12.7906C112.5 11.8973 114.789 11.4507 117.251 11.4507C118.576 11.4507 119.91 11.6586 121.236 12.0668C122.561 12.4749 123.732 13.1603 124.748 14.1229C125.763 15.0855 126.391 16.3176 126.65 17.8192L113.791 24.0569C114.583 25.4122 115.581 26.4441 116.803 27.1372C118.017 27.8302 119.342 28.1768 120.762 28.1768C122.346 28.1768 123.844 27.7686 125.272 26.9447C126.693 26.1207 127.82 24.981 128.638 23.5024L128.784 23.8027C128.819 24.904 128.38 26.19 127.476 27.6454ZM113.455 23.4639L118.008 21.0844C117.914 19.2978 117.552 17.4342 116.915 15.4782C116.278 13.5222 115.426 12.5519 114.35 12.5519C114.221 12.5519 114.066 12.5827 113.877 12.6366C113.343 12.7752 112.913 13.322 112.595 14.2692C112.276 15.2164 112.121 16.3253 112.121 17.6036C112.121 19.4441 112.457 21.1691 113.12 22.7862C113.275 23.1559 113.386 23.3792 113.455 23.4639Z" fill="#4F4D3F"/>
<path d="M144.914 19.3058C146.91 20.3223 148.537 21.2079 149.802 21.9626C151.067 22.7096 152.16 23.5798 153.073 24.5732C153.985 25.5666 154.45 26.6139 154.45 27.7151C154.416 28.9318 153.822 29.9791 152.668 30.857C151.515 31.7349 149.992 32.3972 148.115 32.8515C146.23 33.3059 144.182 33.5292 141.97 33.5292C138.777 33.5292 136.186 33.1981 134.189 32.5358C132.193 31.8735 131.057 30.8416 130.773 29.4555C130.712 29.1166 130.678 28.8625 130.678 28.6931C130.678 27.6458 131.065 26.791 131.84 26.1287C132.614 25.4665 133.604 25.1276 134.809 25.1276C136.014 25.1276 136.995 25.3741 137.658 25.8669C138.321 26.3597 138.656 26.9373 138.656 27.5842C138.656 28.2311 138.39 28.7162 137.847 29.1089C137.374 29.4478 137.133 29.8328 137.133 30.2564C137.133 30.8801 137.563 31.4423 138.415 31.9351C139.267 32.428 140.378 32.6898 141.738 32.7206C142.813 32.7514 143.76 32.4896 144.586 31.9351C145.413 31.3807 145.817 30.7261 145.817 29.9637C145.817 29.2013 145.378 28.4621 144.492 27.7536C143.795 27.1914 142.986 26.6678 142.073 26.2057C141.152 25.736 140.051 25.2354 138.751 24.6964C137.012 23.9571 135.609 23.2948 134.551 22.7019C133.492 22.1089 132.597 21.3697 131.866 20.4918C131.134 19.6139 130.773 18.5666 130.773 17.3498C130.773 16.2178 131.315 15.1936 132.408 14.2695C133.501 13.3531 134.938 12.6216 136.728 12.0825C138.519 11.5434 140.386 11.2739 142.349 11.2739C144.311 11.2739 146.368 11.5434 148.52 12.0825C149.725 12.3366 150.542 12.4675 150.99 12.4675C151.498 12.4675 151.954 12.3674 152.367 12.1672L152.746 12.4213L151.179 16.0715L149.948 18.9978H149.475C149.286 17.1573 148.649 15.5556 147.573 14.1771C146.497 12.8064 144.948 12.121 142.925 12.121C141.944 12.121 141.109 12.3751 140.412 12.8834C139.715 13.3916 139.371 14.0154 139.371 14.7547C139.371 15.6326 139.896 16.4257 140.937 17.1342C141.694 17.6425 143.029 18.3663 144.922 19.2981L144.914 19.3058Z" fill="#4F4D3F"/>
<path d="M51.7109 50.1783C51.7109 50.8329 51.5818 51.4335 51.3323 51.9341C50.8331 52.9121 49.8432 53.5051 48.4316 53.5051C47.3386 53.5051 46.4263 53.1354 45.884 52.3961V53.3664H44.7393V44.1255H45.9099V47.9374C46.4693 47.2058 47.3472 46.8516 48.423 46.8516C49.8259 46.8516 50.8244 47.4368 51.3236 48.4379C51.5732 48.9385 51.7023 49.5237 51.7023 50.1937L51.7109 50.1783ZM50.4716 50.1783C50.4716 49.6393 50.3682 49.1849 50.1961 48.8461C49.8432 48.1222 49.1288 47.7603 48.1734 47.7603C46.7963 47.7603 45.9099 48.5688 45.9099 50.0243V50.34C45.9099 51.7955 46.8049 52.6041 48.1734 52.6041C49.1201 52.6041 49.8432 52.2267 50.1961 51.5182C50.3682 51.164 50.4716 50.7174 50.4716 50.186V50.1783Z" fill="#4F4D3F"/>
<path d="M54.4649 51.8414C54.2153 51.3563 54.1035 50.7787 54.1035 50.1781C54.1035 49.5774 54.2239 49.0153 54.4649 48.5147C54.9727 47.5059 56.0486 46.8359 57.658 46.8359C59.2675 46.8359 60.335 47.5059 60.8514 48.5147C61.0838 48.9999 61.2128 49.5774 61.2128 50.1781C61.2128 50.7787 61.0838 51.3563 60.8514 51.8414C60.3436 52.8503 59.2675 53.5202 57.658 53.5202C56.0486 53.5202 54.9813 52.8503 54.4649 51.8414ZM59.7066 51.5257C59.8959 51.1484 59.9735 50.6863 59.9735 50.1781C59.9735 49.6698 59.9046 49.2001 59.7066 48.8304C59.3709 48.1759 58.6995 47.76 57.658 47.76C56.6166 47.76 55.9282 48.1759 55.6097 48.8304C55.4204 49.2001 55.3429 49.6698 55.3429 50.1781C55.3429 50.6863 55.4118 51.1484 55.6097 51.5257C55.9454 52.1803 56.608 52.5961 57.658 52.5961C58.7081 52.5961 59.3709 52.1803 59.7066 51.5257Z" fill="#4F4D3F"/>
<path d="M70.1214 46.9976V53.3584H68.951V52.4959C68.4518 53.189 67.6514 53.5201 66.5927 53.5201C64.8369 53.5201 63.873 52.6191 63.873 50.848V46.9976H65.0435V50.6477C65.0435 51.9954 65.6461 52.596 66.8854 52.596C68.2195 52.596 68.951 51.903 68.951 50.6092V46.9976H70.1214Z" fill="#4F4D3F"/>
<path d="M73.7873 51.464V47.8909H72.5996V46.9976H73.7873V45.4497H74.9579V46.9976H77.1699V47.8909H74.9579V51.31C74.9579 52.1648 75.371 52.5575 76.1886 52.5575C76.464 52.5575 76.7998 52.519 77.1096 52.4497V53.343C76.7309 53.42 76.292 53.4739 75.8961 53.4739C74.4502 53.4739 73.7873 52.8579 73.7873 51.4717V51.464Z" fill="#4F4D3F"/>
<path d="M79.5283 45.2034C79.5283 44.8261 79.8383 44.5488 80.3205 44.5488C80.7425 44.5488 81.0785 44.8261 81.0785 45.2034C81.0785 45.5807 80.7425 45.8579 80.3205 45.8579C79.8383 45.8579 79.5283 45.5961 79.5283 45.2034ZM79.7178 46.9977H80.8888V53.3585H79.7178V46.9977Z" fill="#4F4D3F"/>
<path d="M90.5884 46.9976V55.9999H89.418V52.4036C88.8758 53.1352 87.9807 53.5048 86.8877 53.5048C85.4934 53.5048 84.4862 52.9196 83.9871 51.9339C83.7375 51.4333 83.6084 50.8326 83.6084 50.1781C83.6084 49.5235 83.7375 48.9228 83.9871 48.4223C84.4862 47.4289 85.4934 46.8359 86.8877 46.8359C87.9807 46.8359 88.893 47.2056 89.4353 47.9602V46.9899H90.5884V46.9976ZM89.418 50.3321V50.0164C89.418 48.5609 88.5228 47.7523 87.1629 47.7523C86.2076 47.7523 85.4761 48.122 85.1318 48.8381C84.9597 49.177 84.8564 49.639 84.8564 50.1704C84.8564 50.7017 84.9597 51.1561 85.1318 51.5026C85.4847 52.2111 86.2162 52.5884 87.1629 52.5884C88.5228 52.5884 89.418 51.7798 89.418 50.3244V50.3321Z" fill="#4F4D3F"/>
<path d="M99.8746 46.9976V53.3584H98.7042V52.4959C98.205 53.189 97.4045 53.5201 96.3459 53.5201C94.5901 53.5201 93.626 52.6191 93.626 50.848V46.9976H94.7966V50.6477C94.7966 51.9954 95.399 52.596 96.6384 52.596C97.9724 52.596 98.7042 51.903 98.7042 50.6092V46.9976H99.8746Z" fill="#4F4D3F"/>
<path d="M108.499 51.1253H109.669C109.609 51.8029 109.317 52.342 108.817 52.7578C108.206 53.243 107.328 53.5048 106.27 53.5048C104.66 53.5048 103.507 52.8888 102.991 51.8414C102.741 51.3871 102.629 50.8326 102.629 50.1781C102.629 49.5235 102.75 48.9768 102.991 48.4993C103.498 47.4674 104.617 46.8359 106.184 46.8359C107.75 46.8359 108.843 47.4674 109.342 48.4608C109.618 49.0384 109.712 49.6236 109.712 50.4091H103.817C103.843 50.8403 103.92 51.2177 104.084 51.5488C104.437 52.2419 105.185 52.6346 106.261 52.6346C106.95 52.6346 107.552 52.4806 107.939 52.1649C108.258 51.903 108.456 51.5257 108.499 51.1176V51.1253ZM104.084 48.8227C103.963 49.0692 103.894 49.3233 103.851 49.6236H108.516C108.473 49.2848 108.396 49.023 108.284 48.7611C107.948 48.0912 107.242 47.7292 106.209 47.7292C105.177 47.7292 104.437 48.1066 104.092 48.8304L104.084 48.8227Z" fill="#4F4D3F"/>
</svg>
