<svg width="295" height="107" viewBox="0 0 295 107" fill="none" xmlns="http://www.w3.org/2000/svg">
<path d="M46.4572 35.2123C43.1036 37.7275 39.1748 39.4043 34.6705 40.2426C30.1662 41.081 25.8919 41.4487 21.8479 41.3311V59.7314C21.963 61.1876 22.5714 61.9524 23.6564 61.9965H26.007V62.8055H0.000244141V61.9965H2.35133C2.95957 61.9965 3.40316 61.7759 3.7155 61.3493C4.0114 60.9228 4.17584 60.3197 4.17584 59.5696V9.29595C4.17584 8.54581 4.02784 7.94278 3.7155 7.51623C3.4196 7.08968 2.95957 6.86905 2.35133 6.86905H0.000244141V6.06006H24.7412C29.0976 6.06006 33.3059 6.70724 37.3828 8.00159C41.4597 9.29594 44.8299 11.3551 47.4931 14.1645C50.1562 16.9738 51.4877 20.4891 51.4877 24.7104C51.4877 29.1965 49.8108 32.6972 46.4572 35.2123ZM34.276 24.1368C34.276 18.68 33.421 14.4292 31.6949 11.414C29.9688 8.38402 27.7824 6.86905 25.1193 6.86905C23.8534 6.92789 22.9986 7.11906 22.5876 7.47206C22.1602 7.82507 21.9137 8.384 21.8643 9.13413V40.3456C30.1332 39.919 34.276 34.5063 34.276 24.1221V24.1368Z" fill="#4F4D3F"/>
<path d="M78.7773 62.0112H81.0457V62.8201H55.1212V62.0112H57.39C58.6065 62.0112 59.1981 61.2022 59.1981 59.5843V32.0941C59.1981 30.9615 58.8036 30.1525 58.0145 29.6672C57.2254 29.1818 56.2555 28.9612 55.1212 29.02V28.3728C58.2611 28.3728 61.9108 27.755 66.0864 26.5048C70.2619 25.2693 73.7633 23.8573 76.5908 22.2835L76.9524 22.6953V59.6725C76.9524 61.1875 77.5608 61.967 78.7609 62.0259L78.7773 62.0112ZM63.0943 18.7534C61.5162 17.3267 60.7437 15.6058 60.7437 13.6055C60.7437 11.6051 61.5326 9.88421 63.0943 8.45749C64.6725 7.03076 66.563 6.31006 68.7987 6.31006C71.0344 6.31006 72.9578 7.03076 74.5524 8.45749C76.147 9.88421 76.9524 11.6051 76.9524 13.6055C76.9524 15.6058 76.147 17.3267 74.5524 18.7534C72.9578 20.1802 71.0344 20.9009 68.7987 20.9009C66.563 20.9009 64.6561 20.1802 63.0943 18.7534Z" fill="#4F4D3F"/>
<path d="M108.318 62.0111H110.586V62.82H84.6619V62.0111H86.9307C88.1472 62.0111 88.7387 61.2021 88.7387 59.5842V9.79587C88.7387 7.69255 87.7197 6.63355 85.6648 6.63355L84.6619 6.7218V6.07462C95.1665 4.1331 102.334 2.10332 106.131 0L106.493 0.411836V59.6871C106.493 61.2021 107.101 61.9816 108.302 62.0405L108.318 62.0111Z" fill="#4F4D3F"/>
<path d="M157.618 62.8188H152.637C150.467 62.7599 148.807 62.3775 147.656 61.6421C146.505 60.9067 145.848 59.4946 145.667 57.3913C144.697 59.6123 142.856 61.3038 140.143 62.4658C137.431 63.6277 134.374 64.2014 130.987 64.2014C128.028 64.2014 125.217 63.7454 122.554 62.8188C119.89 61.9068 117.803 60.5684 116.257 58.8034C114.712 57.0384 114.071 54.9203 114.301 52.4346C114.597 49.6841 115.682 47.3895 117.523 45.5804C119.364 43.7713 121.518 42.374 123.951 41.4032C126.384 40.4324 129.524 39.4028 133.338 38.3291C136.231 37.5202 138.45 36.8288 139.996 36.2552C141.541 35.6816 142.839 34.9609 143.892 34.0637C144.944 33.1664 145.47 32.078 145.47 30.7837C145.47 27.9155 144.993 25.8857 144.023 24.6649C143.053 23.4441 141.278 22.8999 138.68 23.0029C136.806 23.0617 135.261 23.6795 134.061 24.8709C132.844 26.0622 132.253 27.4154 132.253 28.9304C132.253 30.0188 132.631 30.9896 133.387 31.8427C134.143 32.7105 135.278 33.3577 136.79 33.7842C135.886 35.0344 134.258 36.0787 131.94 36.9465C129.606 37.8143 127.272 38.2409 124.921 38.2409C122.57 38.2409 120.581 37.7261 118.986 36.6965C117.392 35.6669 116.586 34.1078 116.586 31.9898C116.586 29.8717 117.671 28.1361 119.841 26.5917C122.011 25.0473 124.789 23.856 128.176 23.0176C131.562 22.1792 135.064 21.7673 138.697 21.7673C145.634 21.7673 151.503 23.0764 156.27 25.6945C161.038 28.3126 163.438 33.3871 163.438 40.9031V59.627C163.438 61.2009 164.046 61.9804 165.246 61.9804H167.515V62.7894H157.635L157.618 62.8188ZM137.234 58.7593C138.138 59.024 139.042 59.1711 139.946 59.1711C141.459 59.1711 142.757 58.7004 143.842 57.759C144.927 56.8177 145.503 55.3174 145.568 53.2582V33.7107C144.303 35.6081 142.182 37.9761 139.223 40.8443C137.596 42.521 136.33 43.8301 135.458 44.7715C134.587 45.7128 133.88 46.6983 133.321 47.7279C132.532 49.0811 132.138 50.5078 132.138 52.0227C132.138 53.1553 132.384 54.229 132.861 55.2292C133.338 56.2294 134.045 57.0531 134.949 57.7002C135.557 58.1268 136.313 58.4798 137.217 58.7593H137.234Z" fill="#4F4D3F"/>
<path d="M195.857 23.1792H190.777V59.671C190.777 61.186 191.352 61.9656 192.503 62.0244H194.854V62.8333L180.075 62.7451C177.724 62.6863 175.949 62.2156 174.782 61.3331C173.615 60.4506 173.023 58.6708 173.023 56.0233V26.268C173.023 25.0766 172.645 24.2676 171.888 23.8411C171.132 23.4145 170.327 23.1939 169.488 23.1939H167.499V22.2967C172.694 22.2967 177.215 20.9582 181.045 18.2813C184.875 15.6043 187.949 11.5448 190.251 6.07324L190.793 6.48508V22.2967H195.873V23.1939L195.857 23.1792Z" fill="#4F4D3F"/>
<path d="M243.48 52.8038C241.754 55.5837 239.107 58.0106 235.556 60.0551C231.989 62.1143 227.616 63.1439 222.421 63.1439C217.835 63.1439 213.659 62.3349 209.911 60.717C206.163 59.0991 203.187 56.7163 200.984 53.5834C198.782 50.4504 197.68 46.7145 197.68 42.3902C197.68 38.3307 198.864 34.7565 201.264 31.653C203.648 28.5495 206.853 26.1373 210.864 24.4311C214.876 22.7249 219.248 21.8718 223.95 21.8718C226.481 21.8718 229.03 22.269 231.561 23.0485C234.093 23.8281 236.329 25.1371 238.269 26.9757C240.208 28.8142 241.408 31.1676 241.902 34.0358L217.342 45.9496C218.854 48.5383 220.761 50.5093 223.095 51.833C225.413 53.1568 227.945 53.8187 230.657 53.8187C233.682 53.8187 236.542 53.0391 239.271 51.4653C241.984 49.8915 244.137 47.7147 245.699 44.8906L245.979 45.4643C246.044 47.5676 245.206 50.0239 243.48 52.8038ZM216.7 44.8171L225.397 40.2722C225.216 36.8598 224.525 33.3003 223.309 29.5644C222.092 25.8284 220.465 23.9751 218.41 23.9751C218.163 23.9751 217.868 24.034 217.506 24.1369C216.487 24.4017 215.665 25.446 215.056 27.2551C214.448 29.0643 214.152 31.1823 214.152 33.624C214.152 37.1393 214.794 40.434 216.059 43.5227C216.355 44.2288 216.569 44.6553 216.7 44.8171Z" fill="#4F4D3F"/>
<path d="M276.785 36.8751C280.599 38.8167 283.706 40.5081 286.122 41.9495C288.539 43.3763 290.627 45.0383 292.369 46.9357C294.112 48.8331 295 50.8335 295 52.9368C294.934 55.2607 293.8 57.2611 291.597 58.9379C289.394 60.6147 286.484 61.8796 282.9 62.7474C279.3 63.6152 275.388 64.0417 271.163 64.0417C265.064 64.0417 260.116 63.4093 256.302 62.1443C252.488 60.8794 250.318 58.9085 249.776 56.2609C249.661 55.6138 249.595 55.1284 249.595 54.8048C249.595 52.8044 250.335 51.1718 251.814 49.9068C253.294 48.6419 255.184 47.9948 257.486 47.9948C259.787 47.9948 261.661 48.4654 262.927 49.4068C264.193 50.3481 264.834 51.4513 264.834 52.6868C264.834 53.9223 264.324 54.8489 263.289 55.599C262.384 56.2462 261.924 56.9817 261.924 57.7906C261.924 58.982 262.746 60.0557 264.373 60.9971C266.001 61.9384 268.122 62.4385 270.719 62.4973C272.774 62.5562 274.582 62.0561 276.16 60.9971C277.738 59.9381 278.511 58.6878 278.511 57.2317C278.511 55.7756 277.673 54.3635 275.98 53.0104C274.648 51.9366 273.103 50.9365 271.36 50.0539C269.601 49.1567 267.497 48.2007 265.015 47.1711C261.694 45.7591 259.014 44.4941 256.992 43.3616C254.97 42.229 253.261 40.817 251.864 39.1403C250.466 37.4635 249.776 35.4631 249.776 33.1392C249.776 30.977 250.811 29.0208 252.899 27.2558C254.987 25.5055 257.732 24.1081 261.151 23.0786C264.571 22.049 268.138 21.5342 271.886 21.5342C275.634 21.5342 279.563 22.049 283.673 23.0786C285.974 23.5639 287.536 23.814 288.391 23.814C289.361 23.814 290.232 23.6227 291.021 23.2403L291.744 23.7257L288.753 30.6975L286.402 36.2868H285.498C285.136 32.7715 283.92 29.7121 281.865 27.0793C279.81 24.4612 276.851 23.1521 272.988 23.1521C271.113 23.1521 269.519 23.6375 268.187 24.6083C266.856 25.579 266.198 26.7704 266.198 28.1824C266.198 29.8592 267.201 31.3741 269.19 32.7273C270.637 33.6981 273.185 35.0807 276.802 36.8604L276.785 36.8751Z" fill="#4F4D3F"/>
<path d="M98.7676 95.8392C98.7676 97.0894 98.5211 98.2367 98.0444 99.1928C97.0909 101.061 95.2002 102.193 92.5042 102.193C90.4165 102.193 88.674 101.487 87.6383 100.075V101.929H85.4518V84.2783H87.6877V91.559C88.7562 90.1617 90.4329 89.4851 92.4878 89.4851C95.1673 89.4851 97.0745 90.603 98.0279 92.5151C98.5047 93.4711 98.7512 94.589 98.7512 95.8686L98.7676 95.8392ZM96.4005 95.8392C96.4005 94.8096 96.2031 93.9418 95.8743 93.2946C95.2003 91.912 93.8357 91.2207 92.011 91.2207C89.3807 91.2207 87.6877 92.7651 87.6877 95.545V96.1481C87.6877 98.928 89.3972 100.472 92.011 100.472C93.8193 100.472 95.2003 99.7517 95.8743 98.3985C96.2031 97.7219 96.4005 96.8688 96.4005 95.8539V95.8392Z" fill="#4F4D3F"/>
<path d="M104.027 99.0166C103.55 98.0899 103.337 96.9868 103.337 95.8395C103.337 94.6923 103.567 93.6185 104.027 92.6625C104.997 90.7357 107.052 89.4561 110.126 89.4561C113.2 89.4561 115.239 90.7357 116.225 92.6625C116.669 93.5891 116.915 94.6923 116.915 95.8395C116.915 96.9868 116.669 98.0899 116.225 99.0166C115.255 100.943 113.2 102.223 110.126 102.223C107.052 102.223 105.013 100.943 104.027 99.0166ZM114.039 98.4135C114.4 97.6928 114.548 96.8103 114.548 95.8395C114.548 94.8688 114.417 93.9716 114.039 93.2656C113.397 92.0153 112.115 91.221 110.126 91.221C108.137 91.221 106.822 92.0153 106.214 93.2656C105.852 93.9716 105.704 94.8688 105.704 95.8395C105.704 96.8103 105.835 97.6928 106.214 98.4135C106.855 99.6637 108.12 100.458 110.126 100.458C112.131 100.458 113.397 99.6637 114.039 98.4135Z" fill="#4F4D3F"/>
<path d="M133.931 89.7639V101.913H131.695V100.266C130.742 101.59 129.213 102.222 127.191 102.222C123.837 102.222 121.996 100.501 121.996 97.1182V89.7639H124.232V96.7357C124.232 99.3097 125.383 100.457 127.75 100.457C130.298 100.457 131.695 99.1332 131.695 96.6622V89.7639H133.931Z" fill="#4F4D3F"/>
<path d="M140.934 98.295V91.4702H138.666V89.764H140.934V86.8076H143.17V89.764H147.395V91.4702H143.17V98.0008C143.17 99.6335 143.959 100.384 145.521 100.384C146.047 100.384 146.688 100.31 147.28 100.178V101.884C146.556 102.031 145.718 102.134 144.962 102.134C142.2 102.134 140.934 100.957 140.934 98.3097V98.295Z" fill="#4F4D3F"/>
<path d="M151.899 86.3362C151.899 85.6155 152.491 85.0859 153.412 85.0859C154.218 85.0859 154.859 85.6155 154.859 86.3362C154.859 87.0569 154.218 87.5864 153.412 87.5864C152.491 87.5864 151.899 87.0863 151.899 86.3362ZM152.26 89.7632H154.497V101.912H152.26V89.7632Z" fill="#4F4D3F"/>
<path d="M173.023 89.7649V106.959H170.787V100.09C169.752 101.488 168.042 102.194 165.954 102.194C163.291 102.194 161.368 101.076 160.414 99.1931C159.938 98.237 159.691 97.0898 159.691 95.8395C159.691 94.5893 159.938 93.4421 160.414 92.486C161.368 90.5886 163.291 89.4561 165.954 89.4561C168.042 89.4561 169.785 90.1621 170.82 91.6035V89.7502H173.023V89.7649ZM170.787 96.1337V95.5307C170.787 92.7508 169.078 91.2064 166.48 91.2064C164.655 91.2064 163.258 91.9124 162.601 93.2803C162.272 93.9274 162.075 94.8099 162.075 95.8248C162.075 96.8397 162.272 97.7075 162.601 98.3694C163.275 99.7226 164.672 100.443 166.48 100.443C169.078 100.443 170.787 98.8989 170.787 96.119V96.1337Z" fill="#4F4D3F"/>
<path d="M190.76 89.7639V101.913H188.524V100.266C187.571 101.59 186.042 102.222 184.02 102.222C180.667 102.222 178.825 100.501 178.825 97.1182V89.7639H181.061V96.7357C181.061 99.3097 182.212 100.457 184.579 100.457C187.127 100.457 188.524 99.1332 188.524 96.6622V89.7639H190.76Z" fill="#4F4D3F"/>
<path d="M207.232 97.6487H209.468C209.353 98.943 208.794 99.9726 207.84 100.767C206.673 101.694 204.996 102.194 202.974 102.194C199.9 102.194 197.697 101.017 196.711 99.0166C196.234 98.1488 196.02 97.0898 196.02 95.8395C196.02 94.5893 196.251 93.545 196.711 92.6331C197.681 90.6622 199.818 89.4561 202.81 89.4561C205.802 89.4561 207.889 90.6621 208.843 92.5595C209.369 93.6627 209.55 94.7805 209.55 96.2808H198.289C198.338 97.1045 198.486 97.8252 198.799 98.4577C199.473 99.7814 200.903 100.532 202.958 100.532C204.273 100.532 205.424 100.237 206.163 99.6343C206.772 99.1342 207.15 98.4135 207.232 97.634V97.6487ZM198.799 93.2508C198.569 93.7215 198.437 94.2069 198.355 94.7805H207.265C207.183 94.1334 207.035 93.6333 206.821 93.1332C206.18 91.8535 204.832 91.1622 202.859 91.1622C200.886 91.1622 199.473 91.883 198.815 93.2656L198.799 93.2508Z" fill="#4F4D3F"/>
</svg>
