<svg width="20" height="24" viewBox="0 0 20 24" fill="none" xmlns="http://www.w3.org/2000/svg">
<path d="M18.3378 1.24255C18.2064 1.16632 18.062 1.1282 17.9045 1.1282C14.614 1.12634 10.6435 1.12634 5.99312 1.1282C5.53771 1.1282 5.21415 1.3039 5.02245 1.65531C4.92074 1.8403 4.86989 2.08944 4.86989 2.40273C4.87169 3.91153 4.87169 5.33433 4.86989 6.67115C4.86899 7.01976 4.69439 7.21823 4.34608 7.26658C4.33708 7.26751 4.32763 7.26751 4.31773 7.26658C3.95952 7.21545 3.78267 6.99652 3.78717 6.60979C3.79977 5.37245 3.79842 4.04028 3.78312 2.61329C3.77682 2.07225 3.84477 1.63718 3.98697 1.30809C4.21108 0.790282 4.58504 0.414709 5.10885 0.181371C5.38605 0.05773 5.82347 -0.00269662 6.42108 9.22792e-05C10.1697 0.0196146 13.8863 0.0200797 17.571 0.00148703C18.0255 -0.00130187 18.4094 0.0670264 18.7226 0.206471C19.2257 0.430513 19.5848 0.800507 19.7999 1.31645C19.9304 1.62788 19.9952 1.95186 19.9943 2.28839C19.988 8.42769 19.9898 14.805 19.9997 21.4202C20.0006 21.9529 19.9385 22.3675 19.8134 22.6641C19.5731 23.2377 19.1685 23.6346 18.5997 23.855C18.3504 23.9526 17.8365 24.0009 17.058 24C13.2176 23.9953 9.68501 23.9939 6.46023 23.9958C5.82842 23.9967 5.38605 23.9428 5.13315 23.834C4.58864 23.6016 4.20388 23.2168 3.97887 22.6794C3.84747 22.3652 3.78312 21.9976 3.78582 21.5764C3.79572 19.7162 3.79707 17.9453 3.78987 16.2636C3.78717 15.8648 3.96447 15.657 4.32178 15.6403C4.32898 15.6393 4.33618 15.6393 4.34338 15.6403C4.69439 15.6654 4.87034 15.8648 4.87124 16.2385C4.87484 18.0252 4.87439 19.8561 4.86989 21.7312C4.86989 21.9673 4.91984 22.1774 5.01975 22.3615C5.20875 22.7083 5.55166 22.8812 6.04847 22.8802C9.74936 22.8784 13.6321 22.8798 17.6966 22.8844C17.9738 22.8844 18.2069 22.8347 18.3959 22.7352C18.7388 22.5549 18.9102 22.2258 18.9102 21.7479C18.9138 15.2814 18.9143 8.78374 18.9116 2.25492C18.9116 1.80312 18.7203 1.46566 18.3378 1.24255Z" fill="#4F4D3F"/>
<path d="M1.95945 12.2823C1.89285 12.2823 1.88295 12.3065 1.92975 12.3548C2.36806 12.8122 2.81267 13.2719 3.26359 13.7339C3.8387 14.3238 3.06378 15.12 2.49272 14.5204C1.7493 13.7395 0.971679 12.9386 0.159859 12.1177C0.109243 12.0665 0.0690347 12.0053 0.041586 11.9378C0.0141373 11.8702 0 11.7977 0 11.7245C0 11.6513 0.0141373 11.5788 0.041586 11.5113C0.0690347 11.4437 0.109243 11.3826 0.159859 11.3313C0.908677 10.5727 1.63635 9.82387 2.34286 9.08481C2.89233 8.50891 3.66995 9.28562 3.11103 9.8685C2.73932 10.2571 2.34511 10.6629 1.9284 11.0859C1.8753 11.1398 1.88565 11.1667 1.95945 11.1667C5.28503 11.1658 8.58092 11.1663 11.8471 11.1681C12.2215 11.1691 12.4069 11.3522 12.4033 11.7175C12.4033 11.7259 12.4033 11.7338 12.4033 11.7412C12.397 12.1019 12.2062 12.2823 11.8309 12.2823C8.41801 12.2823 5.12753 12.2823 1.95945 12.2823Z" fill="#4F4D3F"/>
</svg>
