<svg width="260" height="94" viewBox="0 0 260 94" fill="none" xmlns="http://www.w3.org/2000/svg">
<path d="M41.2879 30.9155C38.3435 33.1237 34.8942 34.5959 30.9395 35.332C26.9849 36.068 23.2323 36.3909 19.6817 36.2875V52.4424C19.7828 53.7209 20.3169 54.3923 21.2695 54.4311H23.3333V55.1414H0.500244V54.4311H2.56441C3.09844 54.4311 3.48789 54.2374 3.76211 53.8629C4.02191 53.4884 4.16628 52.959 4.16628 52.3004V8.1618C4.16628 7.50321 4.03634 6.97376 3.76211 6.59927C3.50232 6.22478 3.09844 6.03107 2.56441 6.03107H0.500244V5.3208H22.222C26.0467 5.3208 29.7415 5.88901 33.3208 7.0254C36.9002 8.16179 39.8592 9.9697 42.1973 12.4362C44.5355 14.9027 45.7045 17.989 45.7045 21.6952C45.7045 25.6338 44.2322 28.7073 41.2879 30.9155ZM30.5932 21.1916C30.5932 16.4007 29.8425 12.6686 28.3271 10.0214C26.8116 7.36116 24.892 6.03107 22.5539 6.03107C21.4425 6.08272 20.692 6.25057 20.3312 6.56049C19.9559 6.87042 19.7395 7.36114 19.6962 8.01973V35.4223C26.956 35.0478 30.5932 30.2956 30.5932 21.1787V21.1916Z" fill="#4F4D3F"/>
<path d="M69.6643 54.4432H71.6559V55.1534H48.895V54.4432H50.887C51.955 54.4432 52.4744 53.733 52.4744 52.3125V28.177C52.4744 27.1827 52.128 26.4724 51.4352 26.0463C50.7425 25.6202 49.8909 25.4264 48.895 25.4781V24.9099C51.6517 24.9099 54.8561 24.3675 58.5221 23.2699C62.188 22.1851 65.2621 20.9454 67.7446 19.5637L68.0621 19.9252V52.39C68.0621 53.7201 68.5962 54.4045 69.6498 54.4561L69.6643 54.4432ZM55.8952 16.4644C54.5096 15.2118 53.8313 13.7009 53.8313 11.9447C53.8313 10.1884 54.524 8.67754 55.8952 7.42492C57.2807 6.1723 58.9405 5.53955 60.9034 5.53955C62.8662 5.53955 64.5549 6.1723 65.9549 7.42492C67.3549 8.67754 68.0621 10.1884 68.0621 11.9447C68.0621 13.7009 67.3549 15.2118 65.9549 16.4644C64.5549 17.717 62.8662 18.3498 60.9034 18.3498C58.9405 18.3498 57.2663 17.717 55.8952 16.4644Z" fill="#4F4D3F"/>
<path d="M95.5991 54.4436H97.5907V55.1538H74.8298V54.4436H76.8218C77.8898 54.4436 78.4092 53.7334 78.4092 52.3129V8.60044C78.4092 6.7538 77.5145 5.82403 75.7104 5.82403L74.8298 5.90151V5.33331C84.0525 3.62872 90.3454 1.84664 93.6794 0L93.9969 0.361578V52.4032C93.9969 53.7333 94.531 54.4178 95.5847 54.4694L95.5991 54.4436Z" fill="#4F4D3F"/>
<path d="M138.884 55.1531H134.511C132.606 55.1014 131.148 54.7657 130.138 54.12C129.127 53.4743 128.55 52.2346 128.391 50.388C127.54 52.3379 125.923 53.823 123.542 54.8432C121.16 55.8634 118.476 56.367 115.503 56.367C112.905 56.367 110.436 55.9666 108.098 55.1531C105.76 54.3525 103.927 53.1773 102.57 51.6277C101.214 50.0781 100.651 48.2185 100.853 46.0361C101.113 43.6213 102.065 41.6068 103.682 40.0184C105.298 38.43 107.189 37.2032 109.325 36.3509C111.461 35.4987 114.218 34.5947 117.566 33.652C120.107 32.9418 122.055 32.3348 123.412 31.8312C124.769 31.3276 125.909 30.6948 126.832 29.9071C127.756 29.1194 128.218 28.1637 128.218 27.0273C128.218 24.5092 127.799 22.7271 126.948 21.6553C126.096 20.5835 124.538 20.1057 122.257 20.1961C120.612 20.2478 119.255 20.7901 118.201 21.8361C117.133 22.8821 116.614 24.0702 116.614 25.4003C116.614 26.3559 116.946 27.2081 117.61 27.9571C118.274 28.719 119.27 29.2872 120.598 29.6617C119.804 30.7594 118.375 31.6762 116.34 32.4381C114.29 33.2 112.241 33.5745 110.177 33.5745C108.113 33.5745 106.366 33.1226 104.966 32.2186C103.566 31.3147 102.859 29.9458 102.859 28.0863C102.859 26.2267 103.812 24.7029 105.717 23.347C107.622 21.9911 110.061 20.9451 113.034 20.209C116.008 19.4729 119.082 19.1113 122.272 19.1113C128.362 19.1113 133.515 20.2607 137.7 22.5593C141.886 24.8579 143.993 29.3131 143.993 35.9119V52.3509C143.993 53.7326 144.527 54.417 145.581 54.417H147.573V55.1273H138.898L138.884 55.1531ZM120.987 51.589C121.781 51.8214 122.575 51.9506 123.369 51.9506C124.696 51.9506 125.836 51.5373 126.789 50.7108C127.742 49.8844 128.247 48.5672 128.305 46.7593V29.5972C127.193 31.263 125.332 33.3421 122.734 35.8602C121.305 37.3324 120.193 38.4817 119.428 39.3082C118.663 40.1346 118.043 40.9999 117.552 41.9038C116.859 43.0919 116.513 44.3444 116.513 45.6745C116.513 46.6689 116.729 47.6116 117.148 48.4897C117.566 49.3678 118.187 50.091 118.981 50.6592C119.515 51.0337 120.179 51.3436 120.972 51.589H120.987Z" fill="#4F4D3F"/>
<path d="M172.456 20.3515H167.996V52.39C167.996 53.7201 168.501 54.4046 169.511 54.4562H171.575V55.1665L158.6 55.089C156.536 55.0373 154.977 54.6241 153.952 53.8493C152.928 53.0745 152.408 51.5119 152.408 49.1875V23.0633C152.408 22.0174 152.076 21.3071 151.412 20.9326C150.748 20.5581 150.041 20.3644 149.305 20.3644H147.559V19.5767C152.12 19.5767 156.089 18.4015 159.451 16.0513C162.814 13.701 165.513 10.1369 167.534 5.33301L168.01 5.69459V19.5767H172.47V20.3644L172.456 20.3515Z" fill="#4F4D3F"/>
<path d="M214.267 46.3589C212.752 48.7996 210.428 50.9303 207.311 52.7253C204.179 54.5332 200.339 55.4371 195.779 55.4371C191.752 55.4371 188.086 54.7269 184.795 53.3064C181.505 51.8859 178.892 49.7939 176.958 47.0433C175.024 44.2927 174.057 41.0127 174.057 37.2161C174.057 33.652 175.096 30.5139 177.204 27.7892C179.296 25.0644 182.111 22.9466 185.632 21.4486C189.154 19.9507 192.993 19.2017 197.121 19.2017C199.343 19.2017 201.581 19.5504 203.803 20.2348C206.026 20.9192 207.989 22.0685 209.692 23.6827C211.395 25.2969 212.449 27.3631 212.882 29.8812L191.319 40.3412C192.647 42.614 194.321 44.3444 196.371 45.5066C198.406 46.6688 200.628 47.2499 203.01 47.2499C205.665 47.2499 208.177 46.5655 210.572 45.1838C212.954 43.802 214.845 41.8908 216.216 39.4114L216.461 39.915C216.519 41.7617 215.783 43.9182 214.267 46.3589ZM190.756 39.3468L198.391 35.3565C198.232 32.3606 197.626 29.2355 196.558 25.9555C195.49 22.6754 194.061 21.0483 192.257 21.0483C192.041 21.0483 191.781 21.1 191.463 21.1904C190.568 21.4228 189.847 22.3397 189.313 23.928C188.779 25.5164 188.519 27.376 188.519 29.5196C188.519 32.606 189.082 35.4986 190.193 38.2104C190.453 38.8303 190.64 39.2048 190.756 39.3468Z" fill="#4F4D3F"/>
<path d="M243.508 32.3746C246.856 34.0792 249.584 35.5642 251.706 36.8298C253.827 38.0824 255.661 39.5416 257.19 41.2075C258.72 42.8733 259.5 44.6296 259.5 46.4762C259.442 48.5165 258.446 50.2728 256.512 51.7449C254.578 53.2171 252.023 54.3277 248.877 55.0896C245.716 55.8515 242.281 56.226 238.572 56.226C233.217 56.226 228.873 55.6707 225.525 54.5601C222.176 53.4495 220.271 51.7191 219.795 49.3947C219.694 48.8265 219.636 48.4003 219.636 48.1162C219.636 46.36 220.285 44.9266 221.584 43.816C222.883 42.7054 224.543 42.1373 226.564 42.1373C228.584 42.1373 230.23 42.5505 231.341 43.3769C232.452 44.2034 233.015 45.1719 233.015 46.2567C233.015 47.3414 232.568 48.155 231.659 48.8135C230.865 49.3817 230.46 50.0274 230.46 50.7377C230.46 51.7837 231.182 52.7264 232.611 53.5528C234.04 54.3793 235.902 54.8184 238.182 54.87C239.986 54.9217 241.574 54.4826 242.959 53.5528C244.345 52.6231 245.023 51.5254 245.023 50.247C245.023 48.9685 244.287 47.7288 242.801 46.5408C241.632 45.5981 240.275 44.72 238.745 43.9451C237.201 43.1574 235.353 42.318 233.174 41.4141C230.259 40.1744 227.906 39.0638 226.131 38.0695C224.355 37.0751 222.854 35.8354 221.628 34.3633C220.401 32.8912 219.795 31.1349 219.795 29.0945C219.795 27.1962 220.704 25.4787 222.537 23.9291C224.37 22.3924 226.78 21.1656 229.782 20.2617C232.784 19.3577 235.916 18.9058 239.207 18.9058C242.498 18.9058 245.947 19.3577 249.555 20.2617C251.576 20.6878 252.947 20.9073 253.698 20.9073C254.549 20.9073 255.314 20.7395 256.007 20.4037L256.642 20.8299L254.015 26.9509L251.951 31.8581H251.158C250.84 28.7717 249.772 26.0857 247.968 23.7742C246.164 21.4755 243.566 20.3262 240.174 20.3262C238.528 20.3262 237.129 20.7524 235.96 21.6047C234.79 22.457 234.213 23.503 234.213 24.7427C234.213 26.2148 235.093 27.5449 236.84 28.733C238.11 29.5853 240.347 30.7991 243.522 32.3617L243.508 32.3746Z" fill="#4F4D3F"/>
<path d="M87.2143 84.1447C87.2143 85.2424 86.9979 86.2496 86.5793 87.089C85.7422 88.729 84.0823 89.7234 81.7152 89.7234C79.8823 89.7234 78.3524 89.1035 77.4431 87.8638V89.4909H75.5234V73.9946H77.4865V80.3869C78.4246 79.1601 79.8967 78.566 81.7008 78.566C84.0534 78.566 85.7278 79.5475 86.5649 81.2262C86.9834 82.0656 87.1998 83.047 87.1998 84.1705L87.2143 84.1447ZM85.136 84.1447C85.136 83.2408 84.9627 82.4788 84.6741 81.9107C84.0823 80.6968 82.8842 80.0898 81.2822 80.0898C78.9729 80.0898 77.4865 81.4458 77.4865 83.8864V84.4159C77.4865 86.8566 78.9873 88.2125 81.2822 88.2125C82.8698 88.2125 84.0823 87.5797 84.6741 86.3917C84.9627 85.7976 85.136 85.0487 85.136 84.1576V84.1447Z" fill="#4F4D3F"/>
<path d="M91.8319 86.9343C91.4133 86.1208 91.2258 85.1523 91.2258 84.145C91.2258 83.1378 91.4278 82.1951 91.8319 81.3557C92.6834 79.664 94.4875 78.5405 97.1865 78.5405C99.8855 78.5405 101.675 79.664 102.541 81.3557C102.931 82.1692 103.147 83.1378 103.147 84.145C103.147 85.1523 102.931 86.1208 102.541 86.9343C101.69 88.626 99.8855 89.7495 97.1865 89.7495C94.4875 89.7495 92.6979 88.626 91.8319 86.9343ZM100.622 86.4049C100.939 85.7721 101.069 84.9973 101.069 84.145C101.069 83.2927 100.954 82.505 100.622 81.8851C100.059 80.7875 98.9329 80.0901 97.1865 80.0901C95.4401 80.0901 94.2856 80.7875 93.7516 81.8851C93.4341 82.505 93.3041 83.2927 93.3041 84.145C93.3041 84.9973 93.4196 85.7721 93.7516 86.4049C94.3145 87.5025 95.4257 88.1999 97.1865 88.1999C98.9473 88.1999 100.059 87.5025 100.622 86.4049Z" fill="#4F4D3F"/>
<path d="M118.087 78.811V89.4777H116.124V88.0313C115.287 89.1936 113.944 89.7488 112.169 89.7488C109.225 89.7488 107.609 88.2379 107.609 85.2678V78.811H109.571V84.9321C109.571 87.1919 110.582 88.1992 112.66 88.1992C114.897 88.1992 116.124 87.037 116.124 84.8675V78.811H118.087Z" fill="#4F4D3F"/>
<path d="M124.235 86.3008V80.3089H122.243V78.811H124.235V76.2153H126.198V78.811H129.907V80.3089H126.198V86.0426C126.198 87.476 126.89 88.1346 128.261 88.1346C128.723 88.1346 129.286 88.07 129.806 87.9538V89.4517C129.171 89.5809 128.435 89.6713 127.771 89.6713C125.346 89.6713 124.235 88.6382 124.235 86.3138V86.3008Z" fill="#4F4D3F"/>
<path d="M133.861 75.8018C133.861 75.169 134.381 74.7041 135.19 74.7041C135.897 74.7041 136.461 75.169 136.461 75.8018C136.461 76.4345 135.897 76.8994 135.19 76.8994C134.381 76.8994 133.861 76.4604 133.861 75.8018ZM134.179 78.8106H136.143V89.4772H134.179V78.8106Z" fill="#4F4D3F"/>
<path d="M152.408 78.8117V93.9077H150.445V87.877C149.536 89.1038 148.035 89.7237 146.202 89.7237C143.864 89.7237 142.175 88.7422 141.338 87.0893C140.92 86.2499 140.703 85.2427 140.703 84.145C140.703 83.0474 140.92 82.0401 141.338 81.2007C142.175 79.5349 143.864 78.5405 146.202 78.5405C148.035 78.5405 149.565 79.1604 150.474 80.4259V78.7988H152.408V78.8117ZM150.445 84.4033V83.8738C150.445 81.4332 148.944 80.0772 146.664 80.0772C145.062 80.0772 143.835 80.6971 143.258 81.8981C142.969 82.4663 142.796 83.241 142.796 84.1321C142.796 85.0231 142.969 85.785 143.258 86.3661C143.85 87.5542 145.076 88.187 146.664 88.187C148.944 88.187 150.445 86.831 150.445 84.3904V84.4033Z" fill="#4F4D3F"/>
<path d="M167.981 78.811V89.4777H166.018V88.0313C165.181 89.1936 163.839 89.7488 162.064 89.7488C159.119 89.7488 157.503 88.2379 157.503 85.2678V78.811H159.466V84.9321C159.466 87.1919 160.476 88.1992 162.554 88.1992C164.791 88.1992 166.018 87.037 166.018 84.8675V78.811H167.981Z" fill="#4F4D3F"/>
<path d="M182.442 85.7334H184.405C184.304 86.8698 183.814 87.7737 182.976 88.4711C181.952 89.2846 180.479 89.7237 178.704 89.7237C176.005 89.7237 174.071 88.6906 173.205 86.9343C172.787 86.1724 172.599 85.2427 172.599 84.145C172.599 83.0474 172.801 82.1305 173.205 81.3299C174.057 79.5994 175.933 78.5405 178.56 78.5405C181.187 78.5405 183.02 79.5994 183.857 81.2653C184.319 82.2338 184.477 83.2152 184.477 84.5324H174.591C174.634 85.2556 174.764 85.8883 175.038 86.4436C175.63 87.6058 176.886 88.2644 178.69 88.2644C179.845 88.2644 180.855 88.0061 181.504 87.4767C182.038 87.0376 182.37 86.4049 182.442 85.7205V85.7334ZM175.038 81.8722C174.836 82.2854 174.721 82.7116 174.649 83.2152H182.471C182.399 82.647 182.269 82.208 182.081 81.7689C181.519 80.6454 180.335 80.0385 178.603 80.0385C176.871 80.0385 175.63 80.6713 175.053 81.8851L175.038 81.8722Z" fill="#4F4D3F"/>
</svg>
