<svg width="48" height="48" viewBox="0 0 48 48" fill="none" xmlns="http://www.w3.org/2000/svg">
<mask id="path-1-inside-1_735_8898" fill="white">
<path d="M0 24C0 10.7452 10.7452 0 24 0C37.2548 0 48 10.7452 48 24C48 37.2548 37.2548 48 24 48C10.7452 48 0 37.2548 0 24Z"/>
</mask>
<path d="M0 24C0 10.7452 10.7452 0 24 0C37.2548 0 48 10.7452 48 24C48 37.2548 37.2548 48 24 48C10.7452 48 0 37.2548 0 24Z" fill="#F4F4F4"/>
<path d="M0 0H48H0ZM48 25C48 38.2548 37.2548 49 24 49C10.7452 49 0 38.2548 0 25V24C0 36.7025 10.7452 47 24 47C37.2548 47 48 36.7025 48 24V25ZM0 48V0V48ZM48 0V48V0Z" fill="#4F4D3F" mask="url(#path-1-inside-1_735_8898)"/>
<path d="M36 24C36 27.1826 34.7357 30.2348 32.4853 32.4853C30.2348 34.7357 27.1826 36 24 36C20.8174 36 17.7652 34.7357 15.5147 32.4853C13.2643 30.2348 12 27.1826 12 24C12 20.8174 13.2643 17.7652 15.5147 15.5147C17.7652 13.2643 20.8174 12 24 12C27.1826 12 30.2348 13.2643 32.4853 15.5147C34.7357 17.7652 36 20.8174 36 24ZM34.8382 24.0047C34.8382 21.1308 33.6966 18.3747 31.6645 16.3425C29.6323 14.3104 26.8762 13.1688 24.0023 13.1688C21.1285 13.1688 18.3723 14.3104 16.3402 16.3425C14.3081 18.3747 13.1664 21.1308 13.1664 24.0047C13.1664 26.8785 14.3081 29.6347 16.3402 31.6668C18.3723 33.6989 21.1285 34.8405 24.0023 34.8405C26.8762 34.8405 29.6323 33.6989 31.6645 31.6668C33.6966 29.6347 34.8382 26.8785 34.8382 24.0047Z" fill="#4F4D3F"/>
<path d="M24.0034 17.7924L23.9335 17.7925C23.6342 17.793 23.392 18.0361 23.3925 18.3353L23.394 19.1813C23.3945 19.4806 23.6376 19.7227 23.9368 19.7222L24.0067 19.7221C24.306 19.7216 24.5482 19.4785 24.5476 19.1793L24.5462 18.3333C24.5456 18.034 24.3026 17.7919 24.0034 17.7924Z" fill="#4F4D3F"/>
<path d="M23.9785 21.8081H23.9598C23.6439 21.8081 23.3877 22.0643 23.3877 22.3803V29.5863C23.3877 29.9023 23.6439 30.1585 23.9598 30.1585H23.9785C24.2945 30.1585 24.5506 29.9023 24.5506 29.5863V22.3803C24.5506 22.0643 24.2945 21.8081 23.9785 21.8081Z" fill="#4F4D3F"/>
</svg>
