<svg width="50" height="33" viewBox="0 0 50 33" fill="none" xmlns="http://www.w3.org/2000/svg">
<rect y="0.019043" width="50" height="32" rx="6" fill="#FBF7F3"/>
<path d="M19.5996 25.019C24.5702 25.019 28.5996 20.9896 28.5996 16.019C28.5996 11.0485 24.5702 7.01904 19.5996 7.01904C14.629 7.01904 10.5996 11.0485 10.5996 16.019C10.5996 20.9896 14.629 25.019 19.5996 25.019Z" fill="#EB001B"/>
<path d="M30.3992 25.019C35.3697 25.019 39.3992 20.9896 39.3992 16.019C39.3992 11.0485 35.3697 7.01904 30.3992 7.01904C25.4286 7.01904 21.3992 11.0485 21.3992 16.019C21.3992 20.9896 25.4286 25.019 30.3992 25.019Z" fill="#F79E1B"/>
<path d="M28.5992 16.0186C28.5992 12.987 27.1592 10.3344 24.9992 8.8186C22.8392 10.4607 21.3992 13.1133 21.3992 16.0186C21.3992 18.9239 22.8392 21.7028 24.9992 23.2186C27.1592 21.7028 28.5992 19.0502 28.5992 16.0186Z" fill="#FF5F00"/>
</svg>
