<svg width="50" height="33" viewBox="0 0 50 33" fill="none" xmlns="http://www.w3.org/2000/svg">
<rect y="0.019043" width="50" height="32" rx="6" fill="#FBF7F3"/>
<path d="M39.7939 13.169H39.3588C38.7786 14.669 38.3435 15.419 37.9084 17.669H40.6641C40.229 15.419 40.229 14.369 39.7939 13.169ZM44 22.019H41.5344C41.3893 22.019 41.3893 22.019 41.2443 21.869L40.9542 20.519L40.8092 20.219H37.3282C37.1832 20.219 37.0382 20.219 37.0382 20.519L36.6031 21.869C36.6031 22.019 36.458 22.019 36.458 22.019H33.4122L33.7023 21.269L37.9084 11.069C37.9084 10.319 38.3435 10.019 39.0687 10.019H41.2443C41.3893 10.019 41.5344 10.019 41.5344 10.319L43.5649 20.069C43.7099 20.669 43.855 21.119 43.855 21.719C44 21.869 44 21.869 44 22.019ZM24.5649 21.569L25.145 18.869C25.2901 18.869 25.4351 19.019 25.4351 19.019C26.4504 19.469 27.4656 19.769 28.4809 19.619C28.771 19.619 29.2061 19.469 29.4962 19.319C30.2214 19.019 30.2214 18.269 29.6412 17.669C29.3511 17.369 28.916 17.219 28.4809 16.919C27.9008 16.619 27.3206 16.319 26.8855 15.869C25.145 14.369 25.7252 12.269 26.7405 11.219C27.6107 10.619 28.0458 10.019 29.2061 10.019C30.9466 10.019 32.8321 10.019 33.7023 10.319H33.8473C33.7023 11.219 33.5572 11.969 33.2672 12.869C32.542 12.569 31.8168 12.269 31.0916 12.269C30.6565 12.269 30.2214 12.269 29.7863 12.419C29.4962 12.419 29.3511 12.569 29.2061 12.719C28.916 13.019 28.916 13.469 29.2061 13.769L29.9313 14.369C30.5114 14.669 31.0916 14.969 31.5267 15.269C32.2519 15.719 32.9771 16.469 33.1221 17.369C33.4122 18.719 32.9771 19.919 31.8168 20.819C31.0916 21.419 30.8015 21.719 29.7863 21.719C27.7557 21.719 26.1603 21.869 24.855 21.419C24.7099 21.719 24.7099 21.719 24.5649 21.569ZM19.4885 22.019C19.6336 20.969 19.6336 20.969 19.7786 20.519C20.5038 17.219 21.229 13.769 21.8092 10.469C21.9542 10.169 21.9542 10.019 22.2443 10.019H24.855C24.5649 11.819 24.2748 13.169 23.8397 14.819C23.4046 17.069 22.9695 19.319 22.3893 21.569C22.3893 21.869 22.2443 21.869 21.9542 21.869M6 10.319C6 10.169 6.29008 10.019 6.43511 10.019H11.3664C12.0916 10.019 12.6718 10.469 12.8168 11.219L14.1221 17.819C14.1221 17.969 14.1221 17.969 14.2672 18.119C14.2672 17.969 14.4122 17.969 14.4122 17.969L17.458 10.319C17.313 10.169 17.458 10.019 17.6031 10.019H20.6489C20.6489 10.169 20.6489 10.169 20.5038 10.319L16.0076 21.269C15.8626 21.569 15.8626 21.719 15.7176 21.869C15.5725 22.019 15.2824 21.869 14.9924 21.869H12.8168C12.6718 21.869 12.5267 21.869 12.5267 21.569L10.2061 12.269C9.91603 11.969 9.48092 11.519 8.90076 11.369C8.03053 10.919 6.43511 10.619 6.14504 10.619L6 10.319Z" fill="#142688"/>
</svg>
