<svg width="50" height="33" viewBox="0 0 50 33" fill="none" xmlns="http://www.w3.org/2000/svg">
<rect y="0.019043" width="50" height="32" rx="6" fill="#FBF7F3"/>
<path d="M18.4564 7.33776C21.4037 5.47445 24.7541 5.60976 27.5875 7.59146C27.9691 7.85832 28.0636 8.19941 27.8708 8.61473C27.8474 8.66923 27.8143 8.71809 27.7715 8.76131C27.4891 9.03945 27.1697 9.08737 26.8134 8.90508C26.457 8.72091 26.1085 8.5311 25.7677 8.33566C23.6003 7.10097 21.0181 7.38568 19.0318 8.82051C17.2422 10.1135 16.4341 11.9627 16.6074 14.3681C16.6405 14.8436 16.4175 15.1396 15.9385 15.2561C15.8236 15.2824 15.7077 15.2749 15.5909 15.2336C15.2618 15.1133 15.0856 14.8821 15.0622 14.5401C14.848 11.3021 15.9794 8.90132 18.4564 7.33776Z" fill="#F1831D"/>
<path d="M20.4424 24.0369C22.6682 24.9503 24.6253 24.3865 26.7868 23.132C27.9767 22.4424 29.0613 21.8297 30.0408 21.2941C32.699 19.8424 33.9667 17.17 33.1108 14.2778C32.5704 12.454 31.1683 11.2869 29.4625 10.4243C28.9893 10.1857 28.853 9.82674 29.0535 9.34752C29.075 9.2949 29.1071 9.24792 29.1499 9.20657C29.4284 8.93784 29.7448 8.88616 30.0993 9.05153C31.7321 9.81546 33.1955 10.9148 34.0806 12.4793C35.62 15.2052 35.176 18.6838 33.1254 20.922C31.735 22.4414 29.4654 23.335 27.6193 24.4598C24.2894 26.4922 20.8689 26.6895 17.6616 24.144C16.3063 23.0653 15.465 21.6831 15.1379 19.9974C14.9938 19.2551 14.9626 18.3746 15.0444 17.3561C15.0736 16.9896 15.2791 16.7989 15.6608 16.7838L15.874 16.7754C16.2751 16.7622 16.4845 16.9483 16.502 17.3335C16.5371 18.1905 16.4786 19.0728 16.6977 19.9128C17.206 21.8466 18.4542 23.2213 20.4424 24.0369Z" fill="#F1831D"/>
<path d="M24.418 11.0274C22.198 9.79267 19.6363 11.2529 19.6743 13.7053C19.6996 15.2727 19.7035 16.855 19.686 18.4524C19.6655 20.4172 21.4912 21.8802 23.4628 21.4235C24.0908 21.2798 24.6371 20.8964 25.1979 20.6004C25.5971 20.3881 25.9447 20.4491 26.2407 20.7836C26.2816 20.8306 26.3128 20.8823 26.3342 20.9387C26.4724 21.3033 26.379 21.6002 26.0538 21.8295C23.9915 23.2821 22.0296 23.4193 20.1679 22.241C18.538 21.2121 18.0035 19.6673 18.0736 17.8125C18.1145 16.7338 18.1135 15.687 18.0707 14.6722C18.0161 13.3981 18.1719 12.3729 18.538 11.5968C19.3676 9.82931 21.5875 8.72711 23.606 9.13868C24.3031 9.2815 25.0139 9.57185 25.7383 10.0097C26.6711 10.5754 27.6029 11.0969 28.5337 11.5742C31.0633 12.8766 32.4887 14.6046 31.6416 17.5137C31.2989 18.6939 30.3028 19.6739 28.6535 20.4538C28.5119 20.5212 28.3505 20.5382 28.1978 20.5018C27.7733 20.4003 27.5376 20.2405 27.4909 20.0225C27.4488 19.8216 27.4791 19.6127 27.5768 19.4303C27.6745 19.2478 27.8337 19.1028 28.0284 19.019C29.5804 18.35 30.3447 17.3436 30.3213 15.9999C30.3019 14.893 29.7712 14.0436 28.7294 13.4516C27.4091 12.6999 25.972 11.8918 24.418 11.0274Z" fill="#F1831D"/>
<path d="M22.7527 13.8268L22.7556 14.5371C22.7557 14.655 22.7269 14.7713 22.6716 14.8766C22.6163 14.9819 22.536 15.0732 22.4372 15.1432C21.8676 15.5463 21.2455 15.1883 21.187 14.5512C21.076 13.3673 21.2425 12.0931 22.7644 12.0677C23.0682 12.064 23.37 12.1476 23.6699 12.3186C25.0291 13.0948 26.4468 13.8869 27.9229 14.695C29.1176 15.3518 29.0475 16.8064 27.8732 17.4406C26.5159 18.1698 25.1382 18.9412 23.74 19.7549C22.6855 20.3667 21.2542 19.9241 21.187 18.6161C21.1607 18.1002 21.0059 16.998 21.7449 16.8233C22.1364 16.7331 22.4324 16.8411 22.6329 17.1474C22.8345 17.4575 22.7176 17.8522 22.7469 18.1989C22.7496 18.2322 22.761 18.2643 22.78 18.2921C22.7991 18.32 22.8252 18.3427 22.8558 18.3582C22.8865 18.3737 22.9207 18.3814 22.9553 18.3807C22.9898 18.3799 23.0237 18.3707 23.0536 18.3539L26.9268 16.1918C26.9569 16.1752 26.9812 16.1501 26.9963 16.1199C27.0114 16.0897 27.0167 16.0558 27.0115 16.0227C27.0018 15.9607 26.9667 15.9137 26.9064 15.8817C25.6075 15.1639 24.2989 14.4366 22.9805 13.6999C22.9574 13.687 22.9313 13.6803 22.9046 13.6803C22.878 13.6803 22.8518 13.687 22.8287 13.6999C22.8056 13.7127 22.7864 13.7312 22.7731 13.7535C22.7597 13.7758 22.7527 13.801 22.7527 13.8268Z" fill="#F1831D"/>
</svg>
