<svg width="18" height="18" viewBox="0 0 18 18" fill="none" xmlns="http://www.w3.org/2000/svg">
<path d="M13.1918 4.19928C13.1918 5.313 12.7499 6.38111 11.9634 7.16862C11.1768 7.95614 10.1101 8.39857 8.99774 8.39857C7.88542 8.39857 6.81865 7.95614 6.03211 7.16862C5.24558 6.38111 4.80371 5.313 4.80371 4.19928C4.80371 3.08556 5.24558 2.01746 6.03211 1.22994C6.81865 0.442423 7.88542 0 8.99774 0C10.1101 0 11.1768 0.442423 11.9634 1.22994C12.7499 2.01746 13.1918 3.08556 13.1918 4.19928ZM11.9916 4.19928C11.9916 3.40428 11.6761 2.64184 11.1147 2.07969C10.5532 1.51754 9.79175 1.20172 8.99774 1.20172C8.20374 1.20172 7.44225 1.51754 6.8808 2.07969C6.31935 2.64184 6.00393 3.40428 6.00393 4.19928C6.00393 4.99429 6.31935 5.75672 6.8808 6.31888C7.44225 6.88103 8.20374 7.19684 8.99774 7.19684C9.79175 7.19684 10.5532 6.88103 11.1147 6.31888C11.6761 5.75672 11.9916 4.99429 11.9916 4.19928Z" fill="#4F4D3F"/>
<path d="M11.8679 11.0191C13.7559 11.3094 15.9664 11.9755 17.2666 13.355C17.8544 13.9772 18.0117 14.5804 17.9993 15.431C17.9859 16.3222 17.9851 17.1601 17.9971 17.9447C17.9978 17.9815 17.9799 17.9999 17.9431 17.9999H0.0499577C0.021488 17.9999 0.0072535 17.9856 0.0072535 17.9571C0.0177423 17.0584 0.0154941 16.1665 0.000510095 15.2814C-0.00548352 14.9033 0.0413416 14.5744 0.140985 14.2945C0.624221 12.9387 2.34701 12.0621 3.68883 11.612C6.24436 10.7535 9.17524 10.6061 11.8679 11.0191ZM16.6373 14.4149C16.081 13.3572 14.4144 12.7811 13.3356 12.5111C11.7952 12.1255 10.1514 11.9597 8.40431 12.0137C6.74033 12.0648 5.27264 12.2936 4.00125 12.7001C2.94937 13.0377 1.19062 13.7623 1.20073 15.1238C1.20598 15.6977 1.20635 16.24 1.20186 16.7509C1.20186 16.7652 1.20754 16.7789 1.21765 16.7891C1.22777 16.7992 1.24149 16.8049 1.2558 16.8049H16.7272C16.7736 16.8049 16.7965 16.7816 16.7957 16.7351C16.7845 16.252 16.7849 15.7431 16.7969 15.2082C16.8044 14.8954 16.7512 14.631 16.6373 14.4149Z" fill="#4F4D3F"/>
</svg>
