<svg width="180" height="39" viewBox="0 0 180 39" fill="none" xmlns="http://www.w3.org/2000/svg">
<path d="M28.26 21.0004C26.22 22.5005 23.8301 23.5005 21.0901 24.0005C18.3501 24.5005 15.75 24.7198 13.29 24.6496V35.6236C13.36 36.492 13.7301 36.9481 14.3901 36.9744H15.8201V37.4569H0V36.9744H1.43018C1.80018 36.9744 2.07001 36.8429 2.26001 36.5885C2.44001 36.3341 2.54004 35.9744 2.54004 35.527V5.54401C2.54004 5.09663 2.45001 4.73698 2.26001 4.48259C2.08001 4.2282 1.80018 4.09662 1.43018 4.09662H0V3.61414H15.05C17.7 3.61414 20.26 4.00011 22.74 4.77206C25.22 5.544 27.2701 6.7721 28.8901 8.44757C30.5101 10.123 31.3201 12.2196 31.3201 14.7372C31.3201 17.4126 30.3 19.5004 28.26 21.0004ZM20.8501 14.3951C20.8501 11.1406 20.33 8.60547 19.28 6.80719C18.23 5.00014 16.9 4.09662 15.28 4.09662C14.51 4.13171 13.99 4.24572 13.74 4.45625C13.48 4.66678 13.33 5.00012 13.3 5.4475V24.0619C18.33 23.8075 20.8501 20.5794 20.8501 14.3863V14.3951Z" fill="white"/>
<path d="M47.9214 36.9831H49.3013V37.4656H33.5312V36.9831H34.9114C35.6514 36.9831 36.0112 36.5007 36.0112 35.5357V19.1407C36.0112 18.4652 35.7713 17.9828 35.2913 17.6933C34.8113 17.4038 34.2212 17.2722 33.5312 17.3073V16.9213C35.4412 16.9213 37.6614 16.5529 40.2014 15.8073C42.7414 15.0704 44.8713 14.2283 46.5913 13.2897L46.8113 13.5353V35.5884C46.8113 36.4919 47.1814 36.9568 47.9114 36.9919L47.9214 36.9831ZM38.3813 11.1844C37.4213 10.3335 36.9514 9.30714 36.9514 8.11414C36.9514 6.92113 37.4313 5.8948 38.3813 5.0439C39.3413 4.19301 40.4913 3.76318 41.8513 3.76318C43.2113 3.76318 44.3813 4.19301 45.3513 5.0439C46.3213 5.8948 46.8113 6.92113 46.8113 8.11414C46.8113 9.30714 46.3213 10.3335 45.3513 11.1844C44.3813 12.0353 43.2113 12.4651 41.8513 12.4651C40.4913 12.4651 39.3313 12.0353 38.3813 11.1844Z" fill="white"/>
<path d="M65.8901 36.9832H67.27V37.4656H51.5V36.9832H52.8801C53.6201 36.9832 53.98 36.5007 53.98 35.5358V5.84222C53.98 4.58781 53.3601 3.95623 52.1101 3.95623L51.5 4.00886V3.62288C57.89 2.46496 62.2501 1.25441 64.5601 0L64.78 0.245618V35.5972C64.78 36.5007 65.1501 36.9656 65.8801 37.0007L65.8901 36.9832Z" fill="white"/>
<path d="M95.8797 37.4656H92.8497C91.5297 37.4305 90.5197 37.2025 89.8197 36.7638C89.1197 36.3252 88.7197 35.4831 88.6097 34.2287C88.0197 35.5533 86.8996 36.5621 85.2496 37.2551C83.5996 37.9481 81.7398 38.2902 79.6798 38.2902C77.8798 38.2902 76.1697 38.0182 74.5497 37.4656C72.9297 36.9217 71.6596 36.1235 70.7196 35.0708C69.7796 34.0182 69.3896 32.755 69.5296 31.2725C69.7096 29.6321 70.3696 28.2637 71.4896 27.1847C72.6096 26.1057 73.9198 25.2724 75.3998 24.6934C76.8798 24.1145 78.7897 23.5004 81.1097 22.8601C82.8697 22.3776 84.2198 21.9653 85.1598 21.6232C86.0998 21.2811 86.8896 20.8513 87.5296 20.3162C88.1696 19.7811 88.4896 19.1319 88.4896 18.36C88.4896 16.6494 88.1997 15.4389 87.6097 14.7108C87.0197 13.9827 85.9397 13.6581 84.3597 13.7195C83.2197 13.7546 82.2797 14.1231 81.5497 14.8336C80.8097 15.5441 80.4498 16.3512 80.4498 17.2547C80.4498 17.9038 80.6798 18.4828 81.1398 18.9916C81.5998 19.5091 82.2898 19.8951 83.2098 20.1495C82.6598 20.8951 81.6696 21.5179 80.2596 22.0355C78.8396 22.553 77.4196 22.8074 75.9896 22.8074C74.5596 22.8074 73.3497 22.5004 72.3797 21.8864C71.4097 21.2723 70.9198 20.3425 70.9198 19.0793C70.9198 17.8161 71.5798 16.781 72.8998 15.8599C74.2198 14.9388 75.9096 14.2283 77.9696 13.7283C80.0296 13.2283 82.1597 12.9827 84.3697 12.9827C88.5897 12.9827 92.1597 13.7634 95.0597 15.3248C97.9597 16.8863 99.4198 19.9126 99.4198 24.3952V35.5621C99.4198 36.5007 99.7896 36.9656 100.52 36.9656H101.9V37.4481H95.8898L95.8797 37.4656ZM83.4796 35.0445C84.0296 35.2024 84.5797 35.2901 85.1297 35.2901C86.0497 35.2901 86.8396 35.0094 87.4996 34.448C88.1596 33.8866 88.5097 32.9918 88.5497 31.7637V20.1056C87.7797 21.2372 86.4898 22.6495 84.6898 24.3601C83.6998 25.3601 82.9298 26.1408 82.3998 26.7022C81.8698 27.2637 81.4397 27.8514 81.0997 28.4654C80.6197 29.2725 80.3797 30.1234 80.3797 31.0269C80.3797 31.7023 80.5297 32.3427 80.8197 32.9392C81.1097 33.5357 81.5397 34.027 82.0897 34.4129C82.4597 34.6673 82.9196 34.8779 83.4696 35.0445H83.4796Z" fill="white"/>
<path d="M119.141 13.8249H116.051V35.5885C116.051 36.492 116.401 36.9569 117.101 36.992H118.531V37.4745L109.541 37.4218C108.111 37.3867 107.031 37.106 106.321 36.5797C105.611 36.0534 105.25 34.992 105.25 33.413V15.667C105.25 14.9565 105.021 14.474 104.561 14.2196C104.101 13.9652 103.611 13.8336 103.101 13.8336H101.891V13.2986C105.051 13.2986 107.801 12.5003 110.131 10.9038C112.461 9.30724 114.33 6.88615 115.73 3.62292L116.061 3.86854V13.2986H119.151V13.8336L119.141 13.8249Z" fill="white"/>
<path d="M148.11 31.4918C147.06 33.1497 145.45 34.5971 143.29 35.8164C141.12 37.0445 138.46 37.6586 135.3 37.6586C132.51 37.6586 129.97 37.1761 127.69 36.2112C125.41 35.2463 123.6 33.8252 122.26 31.9567C120.92 30.0883 120.25 27.8602 120.25 25.2812C120.25 22.8601 120.97 20.7284 122.43 18.8775C123.88 17.0266 125.83 15.588 128.27 14.5704C130.71 13.5529 133.37 13.0441 136.23 13.0441C137.77 13.0441 139.32 13.2809 140.86 13.7459C142.4 14.2108 143.76 14.9915 144.94 16.088C146.12 17.1845 146.85 18.5881 147.15 20.2986L132.21 27.404C133.13 28.9479 134.29 30.1233 135.71 30.9128C137.12 31.7023 138.66 32.0971 140.31 32.0971C142.15 32.0971 143.89 31.6321 145.55 30.6935C147.2 29.7549 148.51 28.4566 149.46 26.7724L149.63 27.1145C149.67 28.3689 149.16 29.8339 148.11 31.4918ZM131.82 26.7286L137.11 24.018C137 21.9828 136.58 19.86 135.84 17.6319C135.1 15.4038 134.11 14.2985 132.86 14.2985C132.71 14.2985 132.53 14.3336 132.31 14.395C131.69 14.5529 131.19 15.1757 130.82 16.2547C130.45 17.3336 130.27 18.5968 130.27 20.053C130.27 22.1495 130.66 24.1145 131.43 25.9566C131.61 26.3777 131.74 26.6321 131.82 26.7286Z" fill="white"/>
<path d="M168.37 21.9917C170.69 23.1496 172.58 24.1584 174.05 25.0181C175.52 25.869 176.79 26.8602 177.85 27.9918C178.91 29.1234 179.45 30.3164 179.45 31.5708C179.41 32.9568 178.72 34.1498 177.38 35.1499C176.04 36.1499 174.27 36.9043 172.09 37.4218C169.9 37.9394 167.52 38.1938 164.95 38.1938C161.24 38.1938 158.23 37.8166 155.91 37.0622C153.59 36.3078 152.27 35.1323 151.94 33.5533C151.87 33.1674 151.83 32.8779 151.83 32.6849C151.83 31.4919 152.28 30.5182 153.18 29.7638C154.08 29.0094 155.23 28.6234 156.63 28.6234C158.03 28.6234 159.17 28.9041 159.94 29.4655C160.71 30.0269 161.1 30.6849 161.1 31.4217C161.1 32.1586 160.79 32.7112 160.16 33.1586C159.61 33.5445 159.33 33.9832 159.33 34.4656C159.33 35.1762 159.83 35.8165 160.82 36.3779C161.81 36.9394 163.1 37.2376 164.68 37.2727C165.93 37.3078 167.03 37.0095 167.99 36.3779C168.95 35.7464 169.42 35.0007 169.42 34.1323C169.42 33.2639 168.91 32.4217 167.88 31.6147C167.07 30.9743 166.13 30.3778 165.07 29.8515C164 29.3164 162.72 28.7462 161.21 28.1322C159.19 27.2901 157.56 26.5357 156.33 25.8602C155.1 25.1848 154.06 24.3426 153.21 23.3426C152.36 22.3426 151.94 21.1496 151.94 19.7636C151.94 18.4741 152.57 17.3074 153.84 16.2547C155.11 15.2109 156.78 14.3775 158.86 13.7635C160.94 13.1494 163.11 12.8424 165.39 12.8424C167.67 12.8424 170.06 13.1494 172.56 13.7635C173.96 14.0529 174.91 14.2021 175.43 14.2021C176.02 14.2021 176.55 14.088 177.03 13.8599L177.47 14.1494L175.65 18.3074L174.22 21.6408H173.67C173.45 19.5443 172.71 17.7197 171.46 16.1495C170.21 14.588 168.41 13.8073 166.06 13.8073C164.92 13.8073 163.95 14.0968 163.14 14.6758C162.33 15.2547 161.93 15.9653 161.93 16.8074C161.93 17.8074 162.54 18.7109 163.75 19.518C164.63 20.0969 166.18 20.9215 168.38 21.9829L168.37 21.9917Z" fill="white"/>
</svg>
