<svg width="416" height="102" viewBox="0 0 416 102" fill="none" xmlns="http://www.w3.org/2000/svg">
<path d="M379.586 52.0305C381.631 53.576 385.208 55.7654 390.319 58.5987C395.685 61.6896 400.072 64.3941 403.479 66.7123C406.886 68.9446 409.825 71.5633 412.295 74.5684C414.765 77.5734 416 80.7502 416 84.0987C415.915 87.7906 414.297 90.9673 411.145 93.6289C408.079 96.2906 403.99 98.3082 398.879 99.682C393.854 101.056 388.36 101.743 382.397 101.743C373.794 101.743 366.809 100.755 361.443 98.7804C356.077 96.7198 353.01 93.586 352.244 89.379C352.073 88.3487 351.988 87.5759 351.988 87.0608C351.988 83.884 353.01 81.3083 355.055 79.3335C357.184 77.2729 359.867 76.2426 363.104 76.2426C366.426 76.2426 368.982 77.0153 370.77 78.5608C372.559 80.0204 373.453 81.7375 373.453 83.7123C373.453 85.6012 372.729 87.1466 371.281 88.3487C370.004 89.379 369.365 90.538 369.365 91.8259C369.365 93.7148 370.515 95.432 372.815 96.9774C375.114 98.437 378.096 99.2097 381.758 99.2956C384.654 99.3815 387.21 98.6087 389.425 96.9774C391.639 95.2603 392.747 93.2426 392.747 90.9244C392.747 88.6062 391.554 86.3739 389.169 84.2274C387.295 82.5103 385.123 80.9648 382.653 79.5911C380.183 78.1315 377.201 76.586 373.709 74.9547C369.024 72.7224 365.234 70.7047 362.338 68.9017C359.527 67.0987 357.142 64.8664 355.183 62.2047C353.223 59.5431 352.244 56.3664 352.244 52.6744C352.244 49.2401 353.692 46.1492 356.588 43.4017C359.569 40.5684 363.445 38.3361 368.215 36.7048C373.07 35.0735 378.138 34.2578 383.419 34.2578C388.701 34.2578 394.237 35.0735 400.029 36.7048C403.266 37.4775 405.481 37.8639 406.673 37.8639C408.036 37.8639 409.271 37.5634 410.379 36.9624L411.401 37.7351L407.184 48.8108L403.862 57.6972H402.585C402.074 52.1164 400.37 47.2654 397.474 43.1442C394.578 38.9371 390.404 36.8336 384.953 36.8336C382.312 36.8336 380.055 37.6063 378.181 39.1517C376.307 40.6972 375.37 42.5861 375.37 44.8184C375.37 47.48 376.775 49.884 379.586 52.0305Z" fill="#F8EFE7"/>
<path d="M346.847 72.2499C346.932 75.5984 345.74 79.505 343.269 83.9696C340.884 88.3484 337.179 92.1691 332.153 95.4317C327.128 98.6943 320.952 100.326 313.627 100.326C307.153 100.326 301.276 99.0378 295.995 96.462C290.714 93.8863 286.497 90.1085 283.346 85.1287C280.279 80.1489 278.746 74.2247 278.746 67.356C278.746 60.9166 280.407 55.2499 283.729 50.356C287.136 45.3762 291.651 41.5555 297.273 38.8939C302.98 36.1464 309.155 34.7727 315.799 34.7727C319.377 34.7727 322.954 35.4166 326.532 36.7045C330.109 37.9065 333.261 39.9671 335.986 42.8863C338.712 45.8055 340.416 49.5404 341.097 54.0909L306.472 73.0227C308.601 77.1439 311.285 80.2777 314.521 82.4242C317.843 84.4848 321.421 85.5151 325.254 85.5151C329.513 85.5151 333.559 84.2701 337.392 81.7802C341.225 79.2903 344.249 75.813 346.464 71.3484L346.847 72.2499ZM304.683 69.159C305.109 70.2752 305.407 70.9621 305.578 71.2196L317.843 64.0075C317.588 58.5984 316.608 52.9318 314.905 47.0075C313.201 41.0833 310.901 38.1212 308.005 38.1212C307.664 38.1212 307.239 38.207 306.727 38.3788C305.279 38.808 304.129 40.4823 303.278 43.4015C302.426 46.2348 302 49.5833 302 53.4469C302 59.0277 302.894 64.2651 304.683 69.159Z" fill="#F8EFE7"/>
<path d="M276.189 35.4167V36.8334H269.034V94.7879C269.034 97.1919 269.843 98.4368 271.461 98.5227H274.783V99.8106L253.957 99.6818C250.635 99.5959 248.122 98.8661 246.419 97.4924C244.8 96.0328 243.991 93.1995 243.991 88.9924V41.7273C243.991 39.8384 243.437 38.5506 242.33 37.8637C241.308 37.1768 240.201 36.8334 239.008 36.8334H236.197V35.4167C243.523 35.4167 249.869 33.3132 255.235 29.1061C260.686 24.8132 265.03 18.3309 268.267 9.65918L269.034 10.3031V35.4167H276.189Z" fill="#F8EFE7"/>
<path d="M236.211 99.8106H222.285H215.257C212.191 99.7248 209.848 99.1238 208.23 98.0076C206.612 96.8056 205.675 94.5303 205.419 91.1818C204.056 94.702 201.458 97.4066 197.625 99.2955C193.792 101.099 189.491 102 184.721 102C180.547 102 176.586 101.27 172.838 99.8106C169.09 98.351 166.109 96.2475 163.894 93.5C161.765 90.6667 160.87 87.2753 161.211 83.3258C161.637 78.947 163.128 75.341 165.683 72.5076C168.324 69.5884 171.347 67.3561 174.755 65.8107C178.247 64.2652 182.676 62.6339 188.043 60.9167C192.131 59.6289 195.24 58.5556 197.37 57.697C199.584 56.7526 201.416 55.5935 202.864 54.2198C204.397 52.7602 205.164 51.0001 205.164 48.9395C205.164 44.389 204.482 41.1693 203.119 39.2804C201.756 37.3057 199.244 36.4041 195.581 36.5759C192.94 36.6617 190.768 37.6491 189.065 39.538C187.361 41.4269 186.509 43.5733 186.509 45.9774C186.509 47.6945 187.02 49.24 188.043 50.6137C189.15 51.9875 190.768 53.0178 192.898 53.7046C191.62 55.6794 189.32 57.3536 185.998 58.7273C182.761 60.1011 179.482 60.788 176.16 60.788C172.838 60.788 170.027 59.9723 167.727 58.341C165.513 56.7097 164.405 54.2198 164.405 50.8713C164.405 47.6087 165.939 44.7753 169.005 42.3713C172.071 39.8814 175.99 37.9925 180.76 36.7047C185.53 35.3309 190.47 34.644 195.581 34.644C205.376 34.644 213.639 36.7476 220.368 40.9546C227.097 45.0759 230.462 53.1036 230.462 65.0379V94.7879C230.462 97.2778 231.314 98.5228 233.017 98.5228H236.211V99.8106ZM190.342 91.697C191.194 92.3839 192.259 92.9419 193.537 93.3712C194.814 93.8005 196.092 94.0152 197.37 94.0152C199.499 94.0152 201.33 93.2854 202.864 91.8258C204.397 90.2803 205.206 87.8763 205.291 84.6137V53.5758C203.503 56.5809 200.521 60.3587 196.348 64.9092C194.048 67.5708 192.259 69.6743 190.981 71.2198C189.789 72.6794 188.809 74.2248 188.043 75.8561C186.935 78.0026 186.382 80.2778 186.382 82.6819C186.382 84.4849 186.722 86.2021 187.404 87.8334C188.085 89.3788 189.065 90.6667 190.342 91.697Z" fill="#F8EFE7"/>
<path d="M150.201 94.7878C150.201 97.1918 151.053 98.4367 152.757 98.5226H155.951V99.8105H119.409V98.5226H122.603C124.307 98.5226 125.159 97.2347 125.159 94.659V15.5833C125.159 12.2348 123.711 10.5606 120.815 10.5606L119.409 10.6894V9.65908C134.23 6.56817 144.324 3.34848 149.69 0L150.201 0.643938V94.7878Z" fill="#F8EFE7"/>
<path d="M97.0275 33.2277C93.8758 33.2277 91.1927 32.1115 88.978 29.8792C86.7634 27.561 85.656 24.8136 85.656 21.6368C85.656 18.46 86.7634 15.7555 88.978 13.5232C91.1927 11.205 93.8758 10.0459 97.0275 10.0459C100.179 10.0459 102.862 11.205 105.077 13.5232C107.377 15.7555 108.527 18.46 108.527 21.6368C108.527 24.8136 107.377 27.561 105.077 29.8792C102.862 32.1115 100.179 33.2277 97.0275 33.2277ZM108.527 94.7882C108.527 97.1923 109.378 98.4372 111.082 98.5231H114.276V99.8109H77.7344V98.5231H80.9286C82.6322 98.5231 83.484 97.2352 83.484 94.6594V51.0004C83.484 49.1974 82.9303 47.9095 81.823 47.1368C80.7156 46.364 79.3528 46.0206 77.7344 46.1065V45.0762C82.1637 45.0762 87.317 44.0888 93.1944 42.114C99.0718 40.1393 104.012 37.907 108.016 35.4171L108.527 36.061V94.7882Z" fill="#F8EFE7"/>
<path d="M72.5726 39.2804C72.5726 46.4066 70.1876 51.9874 65.4176 56.0228C60.7327 59.9722 55.1961 62.6339 48.8077 64.0076C42.5044 65.2955 36.4993 65.8536 30.7923 65.6818V94.9166C30.9626 97.2348 31.8144 98.4368 33.3476 98.5227H36.6696V99.8106H0V98.5227H3.32199C4.17378 98.5227 4.81262 98.1793 5.23852 97.4924C5.66441 96.8055 5.87736 95.8611 5.87736 94.6591V14.8107C5.87736 13.6087 5.66441 12.6642 5.23852 11.9774C4.81262 11.2905 4.17378 10.9471 3.32199 10.9471H0V9.65918H34.8809C41.0138 9.65918 46.9337 10.6895 52.6407 12.7501C58.4329 14.8107 63.2029 18.0733 66.9508 22.538C70.6987 27.0026 72.5726 32.5834 72.5726 39.2804ZM30.7923 64.1364C42.4618 63.4495 48.2966 54.8637 48.2966 38.3788C48.2966 29.7071 47.0615 22.9672 44.5913 18.1592C42.2063 13.3511 39.1398 10.9471 35.3919 10.9471C33.6032 11.0329 32.4107 11.3764 31.8144 11.9774C31.2182 12.4925 30.8774 13.3511 30.7923 14.5531V64.1364Z" fill="#F8EFE7"/>
</svg>
