<svg width="46" height="49" viewBox="0 0 46 49" fill="none" xmlns="http://www.w3.org/2000/svg">
<path d="M9.92237 18.7626C16.6397 18.5888 22.8358 18.9363 30.0743 18.8784C30.1322 18.8205 30.1901 18.7626 30.1901 18.7047C30.1901 18.7047 38.9342 7.41262 39.3396 6.65981C41.7138 2.08509 45.9411 -0.984035 45.999 0.289939C46.0569 1.50601 43.5669 3.35906 43.7985 8.51287C43.7406 9.55521 41.598 8.10751 40.9031 8.91822C39.687 10.308 37.6024 14.3616 35.286 19.1679C35.8651 19.3996 36.3284 19.8049 36.4442 20.4419C36.56 21.1947 36.0968 21.8896 35.4598 22.237C35.1123 22.4108 34.6491 22.0633 34.1279 21.658C29.7848 30.9811 25.268 41.8678 24.8047 42.5048C18.8402 50.7857 13.3389 51.7701 3.89994 33.5291C0.0201103 26.0011 4.01576 17.9519 2.45224 14.2458C2.39434 14.1299 2.33643 14.072 2.33643 13.9562C2.22061 13.7246 2.04689 13.4929 1.87316 13.3192C1.81526 13.2613 1.81526 13.2613 1.81526 13.2034C1.12036 12.4506 0.251742 11.7557 0.0201102 9.20776C-0.327337 5.27002 3.89994 3.6486 7.08488 4.80676C9.80655 5.79119 10.5594 7.70216 10.3856 9.84475C10.2698 11.1766 11.7754 11.0029 11.0805 11.582C10.8489 11.8136 10.5014 11.8136 10.4435 12.6822C10.3856 13.3192 10.8489 14.5353 10.3856 14.9406C9.74864 15.4618 8.64839 15.7514 7.43233 15.8672C7.43233 17.0832 8.06931 18.2993 9.92237 18.7626ZM27.9896 21.8317C21.8514 22.7582 16.1185 23.3952 13.6864 23.3952L13.4548 23.511C16.8713 29.3597 13.3968 39.8411 19.0718 34.3398C19.3035 34.0503 24.7468 26.4643 27.9896 21.8317Z" fill="#788170"/>
<path d="M1.87305 13.6089C2.10468 13.7826 2.22049 14.0142 2.33631 14.2459C2.22049 14.0142 2.04677 13.8405 1.87305 13.6089Z" fill="#47BEAE"/>
</svg>
