<svg width="9" height="14" viewBox="0 0 9 14" fill="none" xmlns="http://www.w3.org/2000/svg">
<path d="M1.63779 0.102627C1.73933 0.102068 1.83998 0.12062 1.93398 0.157219C2.02798 0.193819 2.11348 0.247748 2.18557 0.315912L8.35772 6.19963C8.43004 6.268 8.48743 6.34934 8.5266 6.43896C8.56577 6.52859 8.58594 6.62472 8.58594 6.72181C8.58594 6.8189 8.56577 6.91503 8.5266 7.00465C8.48743 7.09427 8.43004 7.17561 8.35772 7.24399L2.18557 13.1277C2.04029 13.2662 1.84325 13.344 1.63779 13.344C1.43234 13.344 1.23529 13.2662 1.09001 13.1277C0.944735 12.9892 0.863117 12.8014 0.863117 12.6055C0.863117 12.4097 0.944735 12.2218 1.09001 12.0833L6.7221 6.72181L1.09001 1.36027C1.0177 1.2919 0.960303 1.21056 0.921134 1.12093C0.881965 1.03131 0.8618 0.935182 0.8618 0.838092C0.8618 0.741001 0.881965 0.644872 0.921134 0.555249C0.960303 0.465626 1.0177 0.384283 1.09001 0.315912C1.16211 0.247748 1.2476 0.193819 1.3416 0.157219C1.4356 0.12062 1.53626 0.102068 1.63779 0.102627Z" fill="white"/>
</svg>
