<svg width="21" height="21" viewBox="0 0 21 21" fill="none" xmlns="http://www.w3.org/2000/svg">
<g clip-path="url(#clip0_676_10304)">
<g clip-path="url(#clip1_676_10304)">
<path d="M16.8337 4.61353C16.0697 3.8418 15.1596 3.22992 14.1567 2.81357C13.1537 2.39722 12.0779 2.18475 10.992 2.18853C6.44199 2.18853 2.73366 5.89686 2.73366 10.4469C2.73366 11.9052 3.11699 13.3219 3.83366 14.5719L2.66699 18.8552L7.04199 17.7052C8.25033 18.3635 9.60866 18.7135 10.992 18.7135C15.542 18.7135 19.2503 15.0052 19.2503 10.4552C19.2503 8.24686 18.392 6.17186 16.8337 4.61353ZM10.992 17.3135C9.75866 17.3135 8.55033 16.9802 7.49199 16.3552L7.24199 16.2052L4.64199 16.8885L5.33366 14.3552L5.16699 14.0969C4.48178 13.0027 4.11794 11.7379 4.11699 10.4469C4.11699 6.66353 7.20033 3.58019 10.9837 3.58019C12.817 3.58019 14.542 4.29686 15.8337 5.59686C16.4732 6.2335 16.9801 6.99075 17.3248 7.82472C17.6696 8.65868 17.8454 9.55279 17.842 10.4552C17.8587 14.2385 14.7753 17.3135 10.992 17.3135ZM14.7587 12.1802C14.5503 12.0802 13.5337 11.5802 13.3503 11.5052C13.1587 11.4385 13.0253 11.4052 12.8837 11.6052C12.742 11.8135 12.3503 12.2802 12.2337 12.4135C12.117 12.5552 11.992 12.5719 11.7837 12.4635C11.5753 12.3635 10.9087 12.1385 10.1253 11.4385C9.50866 10.8885 9.10033 10.2135 8.97533 10.0052C8.85866 9.79686 8.95866 9.68853 9.06699 9.58019C9.15866 9.48853 9.27533 9.33853 9.37533 9.22186C9.47533 9.10519 9.51699 9.01353 9.58366 8.88019C9.65033 8.73853 9.61699 8.62186 9.56699 8.52186C9.51699 8.42186 9.10033 7.40519 8.93366 6.98853C8.76699 6.58853 8.59199 6.63853 8.46699 6.63019H8.06699C7.92532 6.63019 7.70866 6.68019 7.51699 6.88853C7.33366 7.09686 6.80033 7.59686 6.80033 8.61353C6.80033 9.63019 7.54199 10.6135 7.64199 10.7469C7.74199 10.8885 9.10033 12.9719 11.167 13.8635C11.6587 14.0802 12.042 14.2052 12.342 14.2969C12.8337 14.4552 13.2837 14.4302 13.642 14.3802C14.042 14.3219 14.867 13.8802 15.0337 13.3969C15.2087 12.9135 15.2087 12.5052 15.1503 12.4135C15.092 12.3219 14.967 12.2802 14.7587 12.1802Z" fill="white"/>
</g>
</g>
<defs>
<clipPath id="clip0_676_10304">
<rect width="21" height="21" fill="white"/>
</clipPath>
<clipPath id="clip1_676_10304">
<rect width="21" height="21" fill="white"/>
</clipPath>
</defs>
</svg>
