<svg width="24" height="24" viewBox="0 0 24 24" fill="white" xmlns="http://www.w3.org/2000/svg">
<path d="M17.5426 17.1852H17.0759V17.6519V19.8179H16.6102V17.6519V17.1852H16.1435H13.9196V16.8549H16.1435H16.6102V16.3882V14.2223H16.9683V16.3882V16.8549H17.435H19.6589V17.1852H17.5426ZM10.1442 18.1948L10.0709 17.8171H9.6861H0.550722L2.65553 5.166H5.27354H5.67309L5.73464 4.77122C6.20385 1.76152 7.74106 0.477185 9.0441 0.466735C10.3397 0.456344 11.8761 1.70573 12.3459 4.77005L12.4066 5.166H12.8072H15.4241L16.2211 10.0399L16.2851 10.4313H16.6816H16.7892C20.5222 10.4313 23.5318 13.3895 23.5333 17.0172C23.4817 20.9926 20.542 23.232 17.368 23.5053C14.1915 23.7788 10.8968 22.0729 10.1442 18.1948ZM6.22311 4.57404L6.05812 5.166H6.67265H11.4081H11.9664L11.8673 4.6165C11.6999 3.68804 11.304 2.46622 10.6534 1.66683C10.3246 1.26276 9.89217 0.920175 9.34826 0.832628C8.79087 0.74291 8.22322 0.937386 7.66922 1.38911L7.65285 1.40246L7.63775 1.41723C7.24569 1.80085 6.97414 2.31972 6.76299 2.85689C6.5524 3.39264 6.38562 3.99102 6.22677 4.56091L6.22311 4.57404ZM1.15406 16.9432L1.06325 17.4867H1.61435H9.57848H10.0451V17.0201C10.0451 14.0262 12.1535 11.489 15.0037 10.722L15.0631 11.0997C8.46789 12.7955 9.03904 23.068 16.7766 23.2783L16.7892 23.2787L16.8019 23.2783C25.1561 23.0513 25.1561 11.0941 16.8019 10.8671L16.7892 10.8667L16.7766 10.8671C16.1859 10.8831 15.6369 10.9578 15.1298 11.0829L15.641 10.5826C15.7542 10.5634 15.8683 10.547 15.9832 10.5333L15.9283 9.60324L15.9154 9.60324C15.8734 9.60322 15.8247 9.6032 15.7728 9.60456L15.2054 5.99582L15.1434 5.60164H14.7444H13.13H12.5903L12.6683 6.13572C12.8036 7.06245 12.8519 7.8615 12.8691 8.33958H12.5184C12.5105 7.7043 12.473 6.84207 12.2958 5.97485L12.2195 5.60164H11.8386H6.4574H6.07647L6.00019 5.97485C5.82292 6.84207 5.7855 7.7043 5.7776 8.33958H5.42689C5.44411 7.8615 5.49239 7.06245 5.62769 6.13572L5.70567 5.60164H5.16592H3.44395H3.04877L2.98366 5.99141L1.15406 16.9432Z" fill="#788170" stroke="white" stroke-width="0.933333"/>
</svg>
