<svg width="20" height="20" viewBox="0 0 20 20" fill="white" xmlns="http://www.w3.org/2000/svg">
<path d="M17.603 2.59022C16.709 1.57199 15.4968 1 14.2329 1C12.9691 1 11.7569 1.57199 10.8629 2.59022L9.94457 3.63684L9.02624 2.59022C8.12274 1.62699 6.92613 1.10165 5.68911 1.12516C4.4521 1.14866 3.27152 1.71917 2.39669 2.7162C1.52187 3.71322 1.02129 5.05871 1.00066 6.46852C0.980039 7.87834 1.44099 9.2421 2.28616 10.2718L3.2057 11.3184L9.94578 19L16.6859 11.3184L17.6054 10.2718C18.4988 9.25276 19.0005 7.871 19 6.43045C18.9995 4.98989 18.497 3.60854 17.603 2.59022Z" fill="white" stroke="white" stroke-width="1.2" stroke-linecap="round" stroke-linejoin="round"/>
</svg>
